{
.appVersion = "1230";
DisplayStrings = (
npoPHO
);
copyright = "Copyright 2012 The Familyname Project Authors (https://github.com/huertatipografica/Caladea)";
customParameters = (
{
name = license;
value = "This Font Software is licensed under the SIL Open Font License, Version 1.1. This license is available with a FAQ at: http://scripts.sil.org/OFL";
},
{
name = licenseURL;
value = "http://scripts.sil.org/OFL";
},
{
name = description;
value = "Copyright (c) 2012 by Huerta Tipografica. All rights reserved.";
},
{
name = trademark;
value = "Camadea is a trademark of Carolina Giovagnoli & Andres Torresi.";
},
{
name = panose;
value = (
2,
4,
5,
3,
5,
4,
6,
3,
2,
4
);
},
{
name = openTypeOS2Type;
value = (
);
},
{
name = glyphOrder;
value = (
B,
C,
D,
E,
F,
G,
H,
I,
J,
K,
L,
M,
N,
O,
P,
Q,
R,
S,
T,
U,
V,
W,
X,
Y,
Z,
AE,
Hbar,
Oslash,
OE,
Eng,
Thorn,
a,
b,
c,
d,
e,
f,
g,
h,
i,
j,
k,
l,
m,
n,
o,
p,
q,
r,
s,
t,
u,
v,
w,
x,
y,
z,
ae,
hbar,
dotlessi,
ij,
kgreenlandic,
oslash,
oe,
germandbls,
longs,
eng,
eth,
thorn,
ampersand,
grave,
acute,
circumflex,
caron,
tilde,
dieresis,
macron,
breve,
ring,
hungarumlaut,
dotaccent,
cedilla,
ogonek,
comma,
semicolon,
colon,
period,
ellipsis,
hyphen,
exclam,
exclamdown,
question,
questiondown,
quoteleft,
quoteright,
quotedblleft,
quotedblright,
quotesinglbase,
quotedblbase,
guilsinglleft,
guilsinglright,
guillemotleft,
guillemotright,
slash,
bar,
endash,
emdash,
bullet,
periodcentered,
parenleft,
parenright,
bracketleft,
bracketright,
braceleft,
braceright,
asterisk,
dagger,
daggerdbl,
section,
paragraph,
Omega,
asciicircum,
asciitilde,
brokenbar,
backslash,
underscore,
quotesingle,
quotedbl,
at,
copyright,
registered,
trademark,
estimated,
currency,
Euro,
dollar,
cent,
sterling,
florin,
yen,
ordfeminine,
ordmasculine,
numbersign,
zero,
one,
two,
three,
four,
five,
six,
seven,
eight,
nine,
onesuperior,
twosuperior,
threesuperior,
fraction,
onequarter,
onehalf,
threequarters,
percent,
perthousand,
plus,
minus,
plusminus,
multiply,

glyphs = (
{
glyphname = B;
lastChange = "2019-08-19 16:07:20 +0000";
layers = (
{
layerId = UUID0;
paths = (
{
closed = 1;
nodes = (
"46 667 LINE",
"41 631 LINE",
"84 626 OFFCURVE",
"116 617 OFFCURVE",
"139 604 CURVE",
"139 64 LINE",
"115 50 OFFCURVE",
"88 42 OFFCURVE",
"47 37 CURVE",
"45 25 OFFCURVE",
"43 13 OFFCURVE",
"42 0 CURVE",
"332 0 LINE SMOOTH",
"479 0 OFFCURVE",
"562 74 OFFCURVE",
"562 188 CURVE SMOOTH",
"562 270 OFFCURVE",
"507 328 OFFCURVE",
"417 354 CURVE",
"494 376 OFFCURVE",
"534 425 OFFCURVE",
"534 501 CURVE SMOOTH",
"534 607 OFFCURVE",
"460 667 OFFCURVE",
"305 667 CURVE",
"305 667 LINE"
);
},
{
closed = 1;
nodes = (
"306 327 LINE SMOOTH",
"418 327 OFFCURVE",
"471 275 OFFCURVE",
"471 187 CURVE SMOOTH",
"471 98 OFFCURVE",
"425 49 OFFCURVE",
"332 49 CURVE SMOOTH",
"286 49 OFFCURVE",
"227 53 OFFCURVE",
"227 53 CURVE",
"227 327 LINE"
);
},
{
closed = 1;
nodes = (
"403 621 OFFCURVE",
"447 583 OFFCURVE",
"447 499 CURVE SMOOTH",
"447 415 OFFCURVE",
"403 376 OFFCURVE",
"307 376 CURVE SMOOTH",
"227 376 LINE",
"227 617 LINE",
"266 620 OFFCURVE",
"293 621 OFFCURVE",
"304 621 CURVE SMOOTH",
"304 621 LINE"
);
}
);
width = 611;
},
{
layerId = "0EBA3A65-8808-4583-9AA2-2A9BC4F414AB";
paths = (
{
closed = 1;
nodes = (
"39 628 LINE",
"70 618 OFFCURVE",
"88 608 OFFCURVE",
"100 596 CURVE",
"100 71 LINE",
"82 53 OFFCURVE",
"68 46 OFFCURVE",
"43 41 CURVE",
"39 0 LINE",
"347 0 LINE SMOOTH",
"515 0 OFFCURVE",
"617 71 OFFCURVE",
"617 188 CURVE SMOOTH",
"617 269 OFFCURVE",
"565 331 OFFCURVE",
"472 359 CURVE",
"552 380 OFFCURVE",
"594 428 OFFCURVE",
"594 501 CURVE SMOOTH",
"594 609 OFFCURVE",
"500 667 OFFCURVE",
"325 667 CURVE SMOOTH",
"43 667 LINE"
);
},
{
closed = 1;
nodes = (
"404 320 OFFCURVE",
"457 275 OFFCURVE",
"457 187 CURVE SMOOTH",
"457 101 OFFCURVE",
"413 62 OFFCURVE",
"315 62 CURVE SMOOTH",
"294 62 OFFCURVE",
"273 63 OFFCURVE",
"247 65 CURVE",
"247 320 LINE",
"301 320 LINE"
);
},
{
closed = 1;
nodes = (
"439 422 OFFCURVE",
"393 383 OFFCURVE",
"302 383 CURVE SMOOTH",
"247 383 LINE",
"247 602 LINE",
"267 605 OFFCURVE",
"286 606 OFFCURVE",
"312 606 CURVE SMOOTH",
"393 606 OFFCURVE",
"439 568 OFFCURVE",
"439 499 CURVE SMOOTH",
"439 499 LINE"
);
}
);
width = 651;
}
);
unicode = 0042;
},
{
glyphname = C;
lastChange = "2019-08-19 16:07:20 +0000";
layers = (
{
anchors = (
{
name = cedilla;
position = "{306, 0}";
},
{
name = top;
position = "{301, 705}";
}
);
layerId = UUID0;
paths = (
{
closed = 1;
nodes = (
"458 95 OFFCURVE",
"387 53 OFFCURVE",
"313 53 CURVE SMOOTH",
"204 53 OFFCURVE",
"154 141 OFFCURVE",
"154 334 CURVE SMOOTH",
"154 531 OFFCURVE",
"205 622 OFFCURVE",
"313 622 CURVE SMOOTH",
"375 622 OFFCURVE",
"415 595 OFFCURVE",
"415 554 CURVE SMOOTH",
"415 538 OFFCURVE",
"409 522 OFFCURVE",
"396 504 CURVE",
"404 481 OFFCURVE",
"428 465 OFFCURVE",
"454 465 CURVE SMOOTH",
"486 465 OFFCURVE",
"512 500 OFFCURVE",
"512 544 CURVE SMOOTH",
"512 620 OFFCURVE",
"428 676 OFFCURVE",
"313 676 CURVE SMOOTH",
"137 676 OFFCURVE",
"54 566 OFFCURVE",
"54 334 CURVE SMOOTH",
"54 101 OFFCURVE",
"136 -7 OFFCURVE",
"312 -7 CURVE SMOOTH",
"443 -7 OFFCURVE",
"524 97 OFFCURVE",
"524 97 CURVE",
"489 135 LINE"
);
}
);
width = 562;
},
{
anchors = (
{
name = cedilla;
position = "{326, 0}";
},
{
name = top;
position = "{316, 705}";
}
);
layerId = "0EBA3A65-8808-4583-9AA2-2A9BC4F414AB";
paths = (
{
closed = 1;
nodes = (
"410 -10 OFFCURVE",
"490 31 OFFCURVE",
"553 101 CURVE",
"520 133 LINE",
"474 84 OFFCURVE",
"421 58 OFFCURVE",
"368 58 CURVE SMOOTH",
"256 58 OFFCURVE",
"212 159 OFFCURVE",
"212 342 CURVE SMOOTH",
"212 525 OFFCURVE",
"250 621 OFFCURVE",
"330 621 CURVE SMOOTH",
"371 621 OFFCURVE",
"398 595 OFFCURVE",
"398 555 CURVE SMOOTH",
"398 538 OFFCURVE",
"392 519 OFFCURVE",
"382 502 CURVE",
"395 475 OFFCURVE",
"427 456 OFFCURVE",
"459 456 CURVE SMOOTH",
"504 456 OFFCURVE",
"539 494 OFFCURVE",
"539 542 CURVE SMOOTH",
"539 620 OFFCURVE",
"455 674 OFFCURVE",
"334 674 CURVE SMOOTH",
"145 674 OFFCURVE",
"47 556 OFFCURVE",
"47 325 CURVE SMOOTH",
"47 105 OFFCURVE",
"147 -10 OFFCURVE",
"335 -10 CURVE SMOOTH",
"335 -10 LINE"
);
}
);
width = 573;
}
);
unicode = 0043;
},
{
glyphname = D;
lastChange = "2019-08-19 16:07:20 +0000";
layers = (
{
anchors = (
{
name = top;
position = "{324, 705}";
}
);
layerId = UUID0;
paths = (
{
closed = 1;
nodes = (
"254 0 LINE SMOOTH",
"490 0 OFFCURVE",
"609 96 OFFCURVE",
"609 333 CURVE SMOOTH",
"609 569 OFFCURVE",
"489 667 OFFCURVE",
"260 667 CURVE SMOOTH",
"45 667 LINE",
"40 631 LINE",
"72 627 OFFCURVE",
"108 620 OFFCURVE",
"137 604 CURVE",
"137 63 LINE",
"109 46 OFFCURVE",
"78 41 OFFCURVE",
"46 37 CURVE",
"41 0 LINE"
);
},
{
closed = 1;
nodes = (
"425 617 OFFCURVE",
"509 548 OFFCURVE",
"509 334 CURVE SMOOTH",
"509 117 OFFCURVE",
"423 49 OFFCURVE",
"271 49 CURVE SMOOTH",
"257 49 OFFCURVE",
"239 50 OFFCURVE",
"226 53 CURVE",
"226 617 LINE",
"274 617 LINE"
);
}
);
width = 662;
},
{
anchors = (
{
name = top;
position = "{324, 705}";
}
);
layerId = "0EBA3A65-8808-4583-9AA2-2A9BC4F414AB";
paths = (
{
closed = 1;
nodes = (
"254 0 LINE SMOOTH",
"533 0 OFFCURVE",
"651 101 OFFCURVE",
"651 333 CURVE SMOOTH",
"651 565 OFFCURVE",
"534 667 OFFCURVE",
"260 667 CURVE SMOOTH",
"46 667 LINE",
"42 628 LINE",
"71 618 OFFCURVE",
"90 608 OFFCURVE",
"102 597 CURVE",
"102 70 LINE",
"84 53 OFFCURVE",
"70 46 OFFCURVE",
"46 41 CURVE",
"42 0 LINE"
);
},
{
closed = 1;
nodes = (
"436 605 OFFCURVE",
"494 524 OFFCURVE",
"494 334 CURVE SMOOTH",
"494 145 OFFCURVE",
"433 62 OFFCURVE",
"289 62 CURVE SMOOTH",
"267 62 OFFCURVE",
"257 63 OFFCURVE",
"250 66 CURVE",
"250 605 LINE",
"292 605 LINE"
);
}
);
width = 705;
}
);
unicode = 0044;
},
{
glyphname = E;
lastChange = "2019-08-19 16:07:20 +0000";
layers = (
{
anchors = (
{
name = ogonek;
position = "{504, 0}";
},
{
name = top;
position = "{272, 705}";
}
);
layerId = UUID0;
paths = (
{
closed = 1;
nodes = (
"36 667 LINE",
"35 655 OFFCURVE",
"33 643 OFFCURVE",
"31 631 CURVE",
"64 627 OFFCURVE",
"100 619 OFFCURVE",
"129 604 CURVE",
"129 64 LINE",
"113 52 OFFCURVE",
"70 41 OFFCURVE",
"37 37 CURVE",
"31 0 LINE",
"504 0 LINE",
"513 171 LINE",
"505 172 OFFCURVE",
"499 173 OFFCURVE",
"492 173 CURVE SMOOTH",
"486 173 OFFCURVE",
"479 172 OFFCURVE",
"473 171 CURVE",
"467 138 OFFCURVE",
"456 94 OFFCURVE",
"430 58 CURVE",
"217 58 LINE",
"217 318 LINE",
"329 312 LINE SMOOTH",
"367 310 OFFCURVE",
"377 272 OFFCURVE",
"384 247 CURVE SMOOTH",
"386 238 LINE",
"418 238 LINE",
"418 436 LINE",
"386 436 LINE",
"380 413 OFFCURVE",
"365 370 OFFCURVE",
"330 369 CURVE SMOOTH",
"217 364 LINE",
"217 614 LINE",
"405 614 LINE",
"430 583 OFFCURVE",
"441 543 OFFCURVE",
"447 512 CURVE",
"452 511 OFFCURVE",
"457 510 OFFCURVE",
"462 510 CURVE SMOOTH",
"472 510 OFFCURVE",
"482 512 OFFCURVE",
"490 515 CURVE",
"482 667 LINE"
);
}
);
width = 575;
},
{
anchors = (
{
name = ogonek;
position = "{524, 0}";
},
{
name = top;
position = "{307, 705}";
}
);
layerId = "0EBA3A65-8808-4583-9AA2-2A9BC4F414AB";
paths = (
{
closed = 1;
nodes = (
"41 667 LINE",
"38 630 LINE",
"62 625 OFFCURVE",
"83 615 OFFCURVE",
"99 601 CURVE",
"99 66 LINE",
"89 55 OFFCURVE",
"63 44 OFFCURVE",
"42 41 CURVE",
"38 0 LINE",
"532 0 LINE",
"542 189 LINE",
"531 191 OFFCURVE",
"520 192 OFFCURVE",
"509 192 CURVE SMOOTH",
"494 192 OFFCURVE",
"482 191 OFFCURVE",
"468 189 CURVE",
"458 135 OFFCURVE",
"442 93 OFFCURVE",
"421 62 CURVE",
"246 62 LINE",
"246 318 LINE",
"338 310 LINE SMOOTH",
"361 308 OFFCURVE",
"376 290 OFFCURVE",
"395 236 CURVE",
"447 236 LINE",
"447 443 LINE",
"395 443 LINE",
"385 404 OFFCURVE",
"363 378 OFFCURVE",
"339 376 CURVE SMOOTH",
"246 369 LINE",
"246 606 LINE",
"414 606 LINE",
"434 579 OFFCURVE",
"446 550 OFFCURVE",
"457 499 CURVE",
"468 497 OFFCURVE",
"479 495 OFFCURVE",
"489 495 CURVE SMOOTH",
"504 495 OFFCURVE",
"518 498 OFFCURVE",
"531 502 CURVE",
"527 667 LINE"
);
}
);
width = 578;
}
);
unicode = 0045;
},
{
glyphname = F;
lastChange = "2019-08-19 16:07:20 +0000";
layers = (
{
layerId = UUID0;
paths = (
{
closed = 1;
nodes = (
"310 0 LINE",
"314 37 LINE",
"281 41 OFFCURVE",
"243 48 OFFCURVE",
"217 64 CURVE",
"217 310 LINE",
"329 304 LINE SMOOTH",
"366 302 OFFCURVE",
"379 262 OFFCURVE",
"385 237 CURVE SMOOTH",
"386 231 LINE",
"418 231 LINE",
"418 429 LINE",
"386 429 LINE",
"380 405 OFFCURVE",
"364 362 OFFCURVE",
"330 361 CURVE SMOOTH",
"217 356 LINE",
"217 614 LINE",
"400 614 LINE",
"427 583 OFFCURVE",
"441 543 OFFCURVE",
"447 512 CURVE",
"452 510 OFFCURVE",
"458 510 OFFCURVE",
"463 510 CURVE SMOOTH",
"473 510 OFFCURVE",
"482 512 OFFCURVE",
"490 515 CURVE",
"482 667 LINE",
"36 667 LINE",
"35 655 OFFCURVE",
"33 643 OFFCURVE",
"31 631 CURVE",
"65 627 OFFCURVE",
"100 619 OFFCURVE",
"129 604 CURVE",
"129 64 LINE",
"113 52 OFFCURVE",
"70 41 OFFCURVE",
"37 37 CURVE",
"31 0 LINE"
);
}
);
width = 537;
},
{
layerId = "0EBA3A65-8808-4583-9AA2-2A9BC4F414AB";
paths = (
{
closed = 1;
nodes = (
"287 46 OFFCURVE",
"261 57 OFFCURVE",
"246 71 CURVE",
"246 318 LINE",
"338 310 LINE SMOOTH",
"361 308 OFFCURVE",
"376 290 OFFCURVE",
"395 236 CURVE",
"447 236 LINE",
"447 443 LINE",
"395 443 LINE",
"385 404 OFFCURVE",
"363 378 OFFCURVE",
"339 376 CURVE SMOOTH",
"246 369 LINE",
"246 606 LINE",
"409 606 LINE",
"429 579 OFFCURVE",
"441 550 OFFCURVE",
"452 499 CURVE",
"464 497 OFFCURVE",
"476 496 OFFCURVE",
"487 496 CURVE SMOOTH",
"500 496 OFFCURVE",
"513 498 OFFCURVE",
"527 502 CURVE",
"518 667 LINE",
"41 667 LINE",
"38 630 LINE",
"62 625 OFFCURVE",
"83 615 OFFCURVE",
"99 601 CURVE",
"99 66 LINE",
"89 55 OFFCURVE",
"63 44 OFFCURVE",
"42 41 CURVE",
"38 0 LINE",
"314 0 LINE",
"321 39 LINE"
);
}
);
width = 551;
}
);
unicode = 0046;
},
{
glyphname = G;
lastChange = "2019-08-19 16:07:20 +0000";
layers = (
{
anchors = (
{
name = bottom;
position = "{322, 0}";
},
{
name = top;
position = "{322, 705}";
}
);
layerId = UUID0;
paths = (
{
closed = 1;
nodes = (
"389 276 OFFCURVE",
"422 272 OFFCURVE",
"455 258 CURVE",
"455 83 LINE",
"406 48 OFFCURVE",
"349 46 OFFCURVE",
"332 46 CURVE SMOOTH",
"184 46 OFFCURVE",
"161 182 OFFCURVE",
"161 334 CURVE SMOOTH",
"161 487 OFFCURVE",
"185 622 OFFCURVE",
"334 622 CURVE SMOOTH",
"395 622 OFFCURVE",
"446 600 OFFCURVE",
"446 554 CURVE SMOOTH",
"446 539 OFFCURVE",
"440 523 OFFCURVE",
"427 504 CURVE",
"435 482 OFFCURVE",
"458 465 OFFCURVE",
"485 465 CURVE SMOOTH",
"516 465 OFFCURVE",
"544 496 OFFCURVE",
"544 544 CURVE SMOOTH",
"544 638 OFFCURVE",
"425 676 OFFCURVE",
"333 676 CURVE SMOOTH",
"129 676 OFFCURVE",
"60 543 OFFCURVE",
"60 334 CURVE SMOOTH",
"60 126 OFFCURVE",
"126 -7 OFFCURVE",
"332 -7 CURVE SMOOTH",
"403 -7 OFFCURVE",
"488 11 OFFCURVE",
"544 42 CURVE",
"544 325 LINE",
"357 316 LINE",
"353 279 LINE"
);
}
);
width = 611;
},
{
anchors = (
{
name = bottom;
position = "{337, 0}";
},
{
name = top;
position = "{347, 705}";
}
);
background = {
paths = (
{
closed = 1;
nodes = (
"370 279 LINE",
"406 276 OFFCURVE",
"439 272 OFFCURVE",
"472 258 CURVE",
"472 83 LINE",
"423 48 OFFCURVE",
"366 46 OFFCURVE",
"349 46 CURVE SMOOTH",
"201 46 OFFCURVE",
"178 182 OFFCURVE",
"178 334 CURVE SMOOTH",
"178 487 OFFCURVE",
"202 622 OFFCURVE",
"351 622 CURVE SMOOTH",
"412 622 OFFCURVE",
"463 600 OFFCURVE",
"463 554 CURVE SMOOTH",
"463 539 OFFCURVE",
"457 523 OFFCURVE",
"444 504 CURVE",
"452 482 OFFCURVE",
"475 465 OFFCURVE",
"502 465 CURVE SMOOTH",
"533 465 OFFCURVE",
"561 496 OFFCURVE",
"561 544 CURVE SMOOTH",
"561 638 OFFCURVE",
"442 676 OFFCURVE",
"350 676 CURVE SMOOTH",
"146 676 OFFCURVE",
"77 543 OFFCURVE",
"77 334 CURVE SMOOTH",
"77 126 OFFCURVE",
"143 -7 OFFCURVE",
"349 -7 CURVE SMOOTH",
"420 -7 OFFCURVE",
"505 11 OFFCURVE",
"561 42 CURVE",
"561 325 LINE",
"374 316 LINE"
);
},
{
closed = 1;
nodes = (
"584 340 LINE",
"364 332 LINE",
"359 292 LINE",
"395 288 OFFCURVE",
"425 273 OFFCURVE",
"437 253 CURVE",
"437 62 LINE",
"417 59 OFFCURVE",
"396 58 OFFCURVE",
"374 58 CURVE SMOOTH",
"261 58 OFFCURVE",
"208 148 OFFCURVE",
"208 342 CURVE SMOOTH",
"208 526 OFFCURVE",
"257 621 OFFCURVE",
"351 621 CURVE SMOOTH",
"407 621 OFFCURVE",
"435 597 OFFCURVE",
"435 553 CURVE SMOOTH",
"435 537 OFFCURVE",
"429 520 OFFCURVE",
"418 502 CURVE",
"431 475 OFFCURVE",
"463 456 OFFCURVE",
"495 456 CURVE SMOOTH",
"540 456 OFFCURVE",
"575 494 OFFCURVE",
"575 542 CURVE SMOOTH",
"575 620 OFFCURVE",
"485 674 OFFCURVE",
"355 674 CURVE SMOOTH",
"156 674 OFFCURVE",
"53 555 OFFCURVE",
"53 325 CURVE SMOOTH",
"53 106 OFFCURVE",
"152 -10 OFFCURVE",
"341 -10 CURVE SMOOTH",
"428 -10 OFFCURVE",
"517 18 OFFCURVE",
"584 66 CURVE"
);
}
);
};
layerId = "0EBA3A65-8808-4583-9AA2-2A9BC4F414AB";
paths = (
{
closed = 1;
nodes = (
"364 332 LINE",
"359 292 LINE",
"395 288 OFFCURVE",
"425 273 OFFCURVE",
"437 253 CURVE",
"437 72 LINE",
"417 63 OFFCURVE",
"396 58 OFFCURVE",
"374 58 CURVE SMOOTH",
"261 58 OFFCURVE",
"208 148 OFFCURVE",
"208 342 CURVE SMOOTH",
"208 526 OFFCURVE",
"257 621 OFFCURVE",
"351 621 CURVE SMOOTH",
"407 621 OFFCURVE",
"435 597 OFFCURVE",
"435 553 CURVE SMOOTH",
"435 537 OFFCURVE",
"429 520 OFFCURVE",
"418 502 CURVE",
"431 475 OFFCURVE",
"463 456 OFFCURVE",
"495 456 CURVE SMOOTH",
"540 456 OFFCURVE",
"575 494 OFFCURVE",
"575 542 CURVE SMOOTH",
"575 620 OFFCURVE",
"485 674 OFFCURVE",
"355 674 CURVE SMOOTH",
"156 674 OFFCURVE",
"53 555 OFFCURVE",
"53 325 CURVE SMOOTH",
"53 106 OFFCURVE",
"152 -10 OFFCURVE",
"341 -10 CURVE SMOOTH",
"428 -10 OFFCURVE",
"517 18 OFFCURVE",
"584 66 CURVE",
"584 340 LINE"
);
}
);
width = 646;
}
);
unicode = 0047;
},
{
glyphname = H;
lastChange = "2019-08-19 16:07:20 +0000";
layers = (
{
anchors = (
{
name = top;
position = "{343, 705}";
}
);
layerId = UUID0;
paths = (
{
closed = 1;
nodes = (
"657 0 LINE",
"661 37 LINE",
"628 41 OFFCURVE",
"598 47 OFFCURVE",
"569 64 CURVE",
"569 604 LINE",
"598 620 OFFCURVE",
"624 627 OFFCURVE",
"656 631 CURVE",
"657 643 OFFCURVE",
"659 655 OFFCURVE",
"661 667 CURVE",
"388 667 LINE",
"387 655 OFFCURVE",
"385 643 OFFCURVE",
"383 631 CURVE",
"417 627 OFFCURVE",
"452 619 OFFCURVE",
"481 604 CURVE",
"481 368 LINE",
"206 368 LINE",
"206 604 LINE",
"235 620 OFFCURVE",
"265 627 OFFCURVE",
"298 631 CURVE",
"304 667 LINE",
"30 667 LINE",
"29 655 OFFCURVE",
"27 643 OFFCURVE",
"25 631 CURVE",
"59 627 OFFCURVE",
"89 619 OFFCURVE",
"118 604 CURVE",
"118 64 LINE",
"89 47 OFFCURVE",
"63 41 OFFCURVE",
"31 37 CURVE",
"25 0 LINE",
"299 0 LINE",
"300 13 OFFCURVE",
"302 25 OFFCURVE",
"304 37 CURVE",
"270 41 OFFCURVE",
"235 48 OFFCURVE",
"206 64 CURVE",
"206 317 LINE",
"481 317 LINE",
"481 64 LINE",
"452 47 OFFCURVE",
"422 41 OFFCURVE",
"389 37 CURVE",
"383 0 LINE"
);
}
);
width = 687;
},
{
anchors = (
{
name = top;
position = "{358, 705}";
}
);
layerId = "0EBA3A65-8808-4583-9AA2-2A9BC4F414AB";
paths = (
{
closed = 1;
nodes = (
"280 46 OFFCURVE",
"254 57 OFFCURVE",
"239 71 CURVE",
"239 310 LINE",
"468 310 LINE",
"468 71 LINE",
"450 53 OFFCURVE",
"437 46 OFFCURVE",
"411 41 CURVE",
"407 0 LINE",
"683 0 LINE",
"690 39 LINE",
"656 46 OFFCURVE",
"630 57 OFFCURVE",
"615 71 CURVE",
"615 596 LINE",
"631 610 OFFCURVE",
"651 620 OFFCURVE",
"676 628 CURVE",
"682 667 LINE",
"404 667 LINE",
"399 626 LINE",
"431 620 OFFCURVE",
"448 613 OFFCURVE",
"468 596 CURVE",
"468 373 LINE",
"239 373 LINE",
"239 596 LINE",
"259 613 OFFCURVE",
"276 620 OFFCURVE",
"308 626 CURVE",
"314 667 LINE",
"35 667 LINE",
"31 628 LINE",
"57 619 OFFCURVE",
"77 609 OFFCURVE",
"92 596 CURVE",
"92 71 LINE",
"74 53 OFFCURVE",
"61 46 OFFCURVE",
"35 41 CURVE",
"31 0 LINE",
"307 0 LINE",
"314 39 LINE"
);
}
);
width = 722;
}
);
unicode = 0048;
},
{
glyphname = I;
lastChange = "2019-08-19 16:07:20 +0000";
layers = (
{
anchors = (
{
name = ogonek;
position = "{213, 0}";
},
{
name = top;
position = "{161, 705}";
}
);
layerId = UUID0;
paths = (
{
closed = 1;
nodes = (
"298 0 LINE",
"303 37 LINE",
"270 41 OFFCURVE",
"235 47 OFFCURVE",
"206 64 CURVE",
"206 604 LINE",
"235 620 OFFCURVE",
"265 627 OFFCURVE",
"297 631 CURVE",
"299 643 OFFCURVE",
"301 655 OFFCURVE",
"302 667 CURVE",
"25 667 LINE",
"24 655 OFFCURVE",
"22 643 OFFCURVE",
"20 631 CURVE",
"54 627 OFFCURVE",
"89 619 OFFCURVE",
"118 604 CURVE",
"118 64 LINE",
"89 47 OFFCURVE",
"58 41 OFFCURVE",
"26 37 CURVE",
"20 0 LINE"
);
}
);
width = 324;
},
{
anchors = (
{
name = ogonek;
position = "{233, 0}";
},
{
name = top;
position = "{181, 705}";
}
);
layerId = "0EBA3A65-8808-4583-9AA2-2A9BC4F414AB";
paths = (
{
closed = 1;
nodes = (
"53 622 OFFCURVE",
"87 610 OFFCURVE",
"101 596 CURVE",
"101 71 LINE",
"82 55 OFFCURVE",
"61 46 OFFCURVE",
"29 41 CURVE",
"25 0 LINE",
"316 0 LINE",
"323 41 LINE",
"289 48 OFFCURVE",
"263 57 OFFCURVE",
"248 71 CURVE",
"248 596 LINE",
"268 613 OFFCURVE",
"285 620 OFFCURVE",
"317 626 CURVE",
"323 667 LINE",
"30 667 LINE",
"25 626 LINE"
);
}
);
width = 350;
}
);
unicode = 0049;
},
{
glyphname = J;
lastChange = "2019-08-19 16:07:20 +0000";
layers = (
{
anchors = (
{
name = top;
position = "{158, 705}";
}
);
layerId = UUID0;
paths = (
{
closed = 1;
nodes = (
"198 604 LINE",
"226 620 OFFCURVE",
"256 627 OFFCURVE",
"289 631 CURVE",
"291 643 OFFCURVE",
"293 655 OFFCURVE",
"294 667 CURVE",
"17 667 LINE",
"12 631 LINE",
"46 627 OFFCURVE",
"81 619 OFFCURVE",
"110 604 CURVE",
"110 1 LINE SMOOTH",
"110 -98 OFFCURVE",
"51 -141 OFFCURVE",
"-8 -168 CURVE",
"3 -198 LINE",
"120 -167 OFFCURVE",
"198 -107 OFFCURVE",
"198 16 CURVE",
"198 16 LINE"
);
}
);
width = 307;
},
{
anchors = (
{
name = top;
position = "{168, 705}";
}
);
layerId = "0EBA3A65-8808-4583-9AA2-2A9BC4F414AB";
paths = (
{
closed = 1;
nodes = (
"46 622 OFFCURVE",
"80 610 OFFCURVE",
"94 596 CURVE",
"94 1 LINE SMOOTH",
"94 -95 OFFCURVE",
"42 -137 OFFCURVE",
"-8 -163 CURVE",
"13 -218 LINE",
"151 -183 OFFCURVE",
"241 -119 OFFCURVE",
"241 16 CURVE SMOOTH",
"241 596 LINE",
"261 613 OFFCURVE",
"278 620 OFFCURVE",
"310 626 CURVE",
"316 667 LINE",
"23 667 LINE",
"18 626 LINE"
);
}
);
width = 341;
}
);
unicode = 004A;
},
{
glyphname = K;
lastChange = "2019-08-19 16:07:20 +0000";
layers = (
{
anchors = (
{
name = bottom;
position = "{321, 0}";
}
);
layerId = UUID0;
paths = (
{
closed = 1;
nodes = (
"305 0 LINE",
"306 13 OFFCURVE",
"308 25 OFFCURVE",
"310 37 CURVE",
"276 41 OFFCURVE",
"241 48 OFFCURVE",
"212 64 CURVE",
"212 604 LINE",
"241 620 OFFCURVE",
"270 627 OFFCURVE",
"304 631 CURVE",
"310 667 LINE",
"31 667 LINE",
"30 655 OFFCURVE",
"28 643 OFFCURVE",
"26 631 CURVE",
"59 627 OFFCURVE",
"95 619 OFFCURVE",
"123 604 CURVE",
"123 64 LINE",
"95 47 OFFCURVE",
"65 41 OFFCURVE",
"32 37 CURVE",
"26 0 LINE"
);
},
{
closed = 1;
nodes = (
"435 48 LINE SMOOTH",
"442 38 OFFCURVE",
"450 17 OFFCURVE",
"451 0 CURVE",
"611 0 LINE",
"617 38 LINE",
"575 42 OFFCURVE",
"549 52 OFFCURVE",
"532 64 CURVE",
"314 366 LINE",
"500 599 LINE",
"529 626 OFFCURVE",
"563 629 OFFCURVE",
"591 631 CURVE",
"595 667 LINE",
"360 667 LINE",
"354 631 LINE",
"389 630 OFFCURVE",
"416 620 OFFCURVE",
"416 602 CURVE SMOOTH",
"416 597 OFFCURVE",
"414 590 OFFCURVE",
"410 582 CURVE",
"222 348 LINE"
);
}
);
width = 629;
},
{
anchors = (
{
name = bottom;
position = "{331, 0}";
}
);
background = {
paths = (
{
closed = 1;
nodes = (
"53 0 LINE",
"332 0 LINE",
"333 13 OFFCURVE",
"335 25 OFFCURVE",
"337 37 CURVE",
"303 41 OFFCURVE",
"268 48 OFFCURVE",
"239 64 CURVE",
"239 604 LINE",
"268 620 OFFCURVE",
"297 627 OFFCURVE",
"331 631 CURVE",
"337 667 LINE",
"58 667 LINE",
"57 655 OFFCURVE",
"55 643 OFFCURVE",
"53 631 CURVE",
"86 627 OFFCURVE",
"122 619 OFFCURVE",
"150 604 CURVE",
"150 64 LINE",
"122 47 OFFCURVE",
"92 41 OFFCURVE",
"59 37 CURVE"
);
},
{
closed = 1;
nodes = (
"249 348 LINE",
"462 48 LINE SMOOTH",
"469 38 OFFCURVE",
"477 17 OFFCURVE",
"478 0 CURVE",
"638 0 LINE",
"644 38 LINE",
"602 42 OFFCURVE",
"576 52 OFFCURVE",
"559 64 CURVE",
"341 366 LINE",
"527 599 LINE",
"556 626 OFFCURVE",
"590 629 OFFCURVE",
"618 631 CURVE",
"622 667 LINE",
"387 667 LINE",
"381 631 LINE",
"416 630 OFFCURVE",
"443 620 OFFCURVE",
"443 602 CURVE SMOOTH",
"443 597 OFFCURVE",
"441 590 OFFCURVE",
"437 582 CURVE"
);
},
{
closed = 1;
nodes = (
"314 39 LINE",
"280 46 OFFCURVE",
"254 57 OFFCURVE",
"239 71 CURVE",
"239 596 LINE",
"259 613 OFFCURVE",
"276 620 OFFCURVE",
"308 626 CURVE",
"314 667 LINE",
"35 667 LINE",
"31 628 LINE",
"57 619 OFFCURVE",
"77 609 OFFCURVE",
"92 596 CURVE",
"92 71 LINE",
"74 53 OFFCURVE",
"61 46 OFFCURVE",
"35 41 CURVE",
"31 0 LINE",
"307 0 LINE"
);
},
{
closed = 1;
nodes = (
"253 341 LINE",
"428 58 LINE SMOOTH",
"441 38 OFFCURVE",
"445 23 OFFCURVE",
"446 0 CURVE",
"674 0 LINE",
"681 41 LINE",
"645 47 OFFCURVE",
"616 59 OFFCURVE",
"595 76 CURVE",
"398 391 LINE",
"575 589 LINE SMOOTH",
"603 621 OFFCURVE",
"643 627 OFFCURVE",
"663 628 CURVE",
"669 667 LINE",
"419 667 LINE",
"425 628 LINE",
"452 628 OFFCURVE",
"477 619 OFFCURVE",
"477 601 CURVE SMOOTH",
"477 595 OFFCURVE",
"474 588 OFFCURVE",
"468 581 CURVE SMOOTH"
);
}
);
};
layerId = "0EBA3A65-8808-4583-9AA2-2A9BC4F414AB";
paths = (
{
closed = 1;
nodes = (
"280 46 OFFCURVE",
"254 57 OFFCURVE",
"239 71 CURVE",
"239 596 LINE",
"259 613 OFFCURVE",
"276 620 OFFCURVE",
"308 626 CURVE",
"314 667 LINE",
"35 667 LINE",
"31 628 LINE",
"57 619 OFFCURVE",
"77 609 OFFCURVE",
"92 596 CURVE",
"92 71 LINE",
"74 53 OFFCURVE",
"61 46 OFFCURVE",
"35 41 CURVE",
"31 0 LINE",
"307 0 LINE",
"314 39 LINE"
);
},
{
closed = 1;
nodes = (
"428 58 LINE SMOOTH",
"441 38 OFFCURVE",
"445 23 OFFCURVE",
"446 0 CURVE",
"674 0 LINE",
"681 41 LINE",
"645 47 OFFCURVE",
"616 59 OFFCURVE",
"595 76 CURVE",
"398 398 LINE",
"570 589 LINE SMOOTH",
"598 621 OFFCURVE",
"638 627 OFFCURVE",
"658 628 CURVE",
"664 667 LINE",
"414 667 LINE",
"420 628 LINE",
"447 628 OFFCURVE",
"472 619 OFFCURVE",
"472 601 CURVE SMOOTH",
"472 595 OFFCURVE",
"469 588 OFFCURVE",
"463 581 CURVE SMOOTH",
"253 348 LINE"
);
}
);
width = 682;
}
);
unicode = 004B;
},
{
glyphname = L;
lastChange = "2019-08-19 16:07:20 +0000";
layers = (
{
anchors = (
{
name = bottom;
position = "{285, 0}";
},
{
name = top;
position = "{190, 705}";
}
);
layerId = UUID0;
paths = (
{
closed = 1;
nodes = (
"503 171 LINE",
"495 173 OFFCURVE",
"488 174 OFFCURVE",
"481 174 CURVE SMOOTH",
"474 174 OFFCURVE",
"468 173 OFFCURVE",
"463 171 CURVE",
"457 138 OFFCURVE",
"445 94 OFFCURVE",
"420 58 CURVE",
"233 58 LINE",
"233 604 LINE",
"262 620 OFFCURVE",
"292 627 OFFCURVE",
"325 631 CURVE",
"330 667 LINE",
"53 667 LINE",
"51 655 OFFCURVE",
"49 643 OFFCURVE",
"48 631 CURVE",
"80 627 OFFCURVE",
"116 619 OFFCURVE",
"144 604 CURVE",
"144 64 LINE",
"117 47 OFFCURVE",
"86 41 OFFCURVE",
"54 37 CURVE",
"48 0 LINE",
"494 0 LINE"
);
}
);
width = 537;
},
{
anchors = (
{
name = bottom;
position = "{285, 0}";
},
{
name = top;
position = "{175, 705}";
}
);
layerId = "0EBA3A65-8808-4583-9AA2-2A9BC4F414AB";
paths = (
{
closed = 1;
nodes = (
"246 596 LINE",
"266 613 OFFCURVE",
"283 620 OFFCURVE",
"315 626 CURVE",
"321 667 LINE",
"42 667 LINE",
"37 626 LINE",
"63 617 OFFCURVE",
"84 609 OFFCURVE",
"99 596 CURVE",
"99 66 LINE",
"89 55 OFFCURVE",
"63 44 OFFCURVE",
"42 41 CURVE",
"38 0 LINE",
"532 0 LINE",
"542 189 LINE",
"531 191 OFFCURVE",
"520 192 OFFCURVE",
"509 192 CURVE SMOOTH",
"495 192 OFFCURVE",
"481 191 OFFCURVE",
"468 189 CURVE",
"458 135 OFFCURVE",
"442 93 OFFCURVE",
"421 62 CURVE",
"246 62 LINE"
);
}
);
width = 551;
}
);
unicode = 004C;
},
{
glyphname = M;
lastChange = "2019-08-19 16:07:20 +0000";
layers = (
{
layerId = UUID0;
paths = (
{
closed = 1;
nodes = (
"-3 667 LINE",
"-7 631 LINE",
"25 627 OFFCURVE",
"61 619 OFFCURVE",
"89 604 CURVE",
"89 64 LINE",
"61 47 OFFCURVE",
"31 41 OFFCURVE",
"-2 37 CURVE",
"-7 0 LINE",
"246 0 LINE",
"250 37 LINE",
"217 41 OFFCURVE",
"182 47 OFFCURVE",
"153 64 CURVE",
"153 538 LINE",
"157 538 LINE",
"370 0 LINE",
"429 0 LINE",
"632 529 LINE",
"636 529 LINE",
"636 64 LINE",
"607 47 OFFCURVE",
"578 41 OFFCURVE",
"544 37 CURVE",
"543 25 OFFCURVE",
"541 13 OFFCURVE",
"539 0 CURVE",
"817 0 LINE",
"821 37 LINE",
"788 41 OFFCURVE",
"753 47 OFFCURVE",
"724 64 CURVE",
"724 604 LINE",
"753 620 OFFCURVE",
"782 627 OFFCURVE",
"816 631 CURVE",
"817 643 OFFCURVE",
"819 655 OFFCURVE",
"821 667 CURVE",
"630 667 LINE",
"414 123 LINE",
"190 667 LINE"
);
}
);
width = 815;
},
{
layerId = "0EBA3A65-8808-4583-9AA2-2A9BC4F414AB";
paths = (
{
closed = 1;
nodes = (
"789 46 OFFCURVE",
"763 57 OFFCURVE",
"748 71 CURVE",
"748 596 LINE",
"764 610 OFFCURVE",
"784 620 OFFCURVE",
"809 628 CURVE",
"815 667 LINE",
"571 667 LINE",
"431 217 LINE",
"268 667 LINE",
"42 667 LINE",
"38 628 LINE",
"64 619 OFFCURVE",
"84 609 OFFCURVE",
"99 596 CURVE",
"99 71 LINE",
"81 53 OFFCURVE",
"68 46 OFFCURVE",
"42 41 CURVE",
"38 0 LINE",
"254 0 LINE",
"261 39 LINE",
"227 46 OFFCURVE",
"201 57 OFFCURVE",
"186 71 CURVE",
"186 481 LINE",
"365 0 LINE",
"442 0 LINE",
"605 508 LINE",
"605 71 LINE",
"588 53 OFFCURVE",
"575 46 OFFCURVE",
"549 41 CURVE",
"545 0 LINE",
"816 0 LINE",
"823 39 LINE"
);
}
);
width = 846;
}
);
unicode = 004D;
},
{
glyphname = N;
lastChange = "2019-08-19 16:07:20 +0000";
layers = (
{
anchors = (
{
name = bottom;
position = "{345, 0}";
},
{
name = top;
position = "{345, 705}";
}
);
layerId = UUID0;
paths = (
{
closed = 1;
nodes = (
"30 667 LINE",
"29 655 OFFCURVE",
"27 643 OFFCURVE",
"25 631 CURVE",
"59 627 OFFCURVE",
"94 619 OFFCURVE",
"123 604 CURVE",
"123 64 LINE",
"94 47 OFFCURVE",
"64 41 OFFCURVE",
"31 37 CURVE",
"25 0 LINE",
"279 0 LINE",
"283 37 LINE",
"251 41 OFFCURVE",
"214 48 OFFCURVE",
"186 64 CURVE",
"186 515 LINE",
"526 0 LINE",
"569 0 LINE",
"569 604 LINE",
"598 620 OFFCURVE",
"627 627 OFFCURVE",
"661 631 CURVE",
"662 643 OFFCURVE",
"664 655 OFFCURVE",
"666 667 CURVE",
"413 667 LINE",
"411 655 OFFCURVE",
"409 643 OFFCURVE",
"408 631 CURVE",
"440 627 OFFCURVE",
"477 619 OFFCURVE",
"504 604 CURVE",
"504 191 LINE",
"189 667 LINE"
);
}
);
width = 681;
},
{
anchors = (
{
name = bottom;
position = "{355, 0}";
},
{
name = top;
position = "{345, 705}";
}
);
layerId = "0EBA3A65-8808-4583-9AA2-2A9BC4F414AB";
paths = (
{
closed = 1;
nodes = (
"444 667 LINE",
"439 626 LINE",
"471 620 OFFCURVE",
"488 613 OFFCURVE",
"508 596 CURVE",
"508 183 LINE",
"232 667 LINE",
"35 667 LINE",
"31 628 LINE",
"57 619 OFFCURVE",
"77 609 OFFCURVE",
"92 596 CURVE",
"92 71 LINE",
"74 53 OFFCURVE",
"61 46 OFFCURVE",
"35 41 CURVE",
"31 0 LINE",
"247 0 LINE",
"254 39 LINE",
"220 46 OFFCURVE",
"194 57 OFFCURVE",
"179 71 CURVE",
"179 460 LINE",
"443 0 LINE",
"595 0 LINE",
"595 596 LINE",
"611 610 OFFCURVE",
"631 620 OFFCURVE",
"656 628 CURVE",
"662 667 LINE"
);
}
);
width = 679;
}
);
unicode = 004E;
},
{
glyphname = O;
lastChange = "2019-08-19 16:07:20 +0000";
layers = (
{
anchors = (
{
name = top;
position = "{326, 705}";
}
);
layerId = UUID0;
paths = (
{
closed = 1;
nodes = (
"177 42 OFFCURVE",
"154 181 OFFCURVE",
"154 334 CURVE SMOOTH",
"154 488 OFFCURVE",
"177 626 OFFCURVE",
"327 626 CURVE SMOOTH",
"477 626 OFFCURVE",
"499 487 OFFCURVE",
"499 333 CURVE SMOOTH",
"499 180 OFFCURVE",
"477 42 OFFCURVE",
"327 42 CURVE SMOOTH",
"327 42 LINE"
);
},
{
closed = 1;
nodes = (
"122 676 OFFCURVE",
"53 543 OFFCURVE",
"53 334 CURVE SMOOTH",
"53 126 OFFCURVE",
"122 -7 OFFCURVE",
"327 -7 CURVE SMOOTH",
"531 -7 OFFCURVE",
"600 125 OFFCURVE",
"600 333 CURVE SMOOTH",
"600 542 OFFCURVE",
"531 676 OFFCURVE",
"327 676 CURVE SMOOTH",
"327 676 LINE"
);
}
);
width = 653;
},
{
anchors = (
{
name = top;
position = "{348, 705}";
}
);
layerId = "0EBA3A65-8808-4583-9AA2-2A9BC4F414AB";
paths = (
{
closed = 1;
nodes = (
"214 537 OFFCURVE",
"253 620 OFFCURVE",
"348 620 CURVE SMOOTH",
"442 620 OFFCURVE",
"480 537 OFFCURVE",
"480 335 CURVE SMOOTH",
"480 131 OFFCURVE",
"442 48 OFFCURVE",
"348 48 CURVE SMOOTH",
"253 48 OFFCURVE",
"214 131 OFFCURVE",
"214 335 CURVE SMOOTH",
"214 335 LINE"
);
},
{
closed = 1;
nodes = (
"49 111 OFFCURVE",
"150 -10 OFFCURVE",
"348 -10 CURVE SMOOTH",
"547 -10 OFFCURVE",
"646 111 OFFCURVE",
"646 335 CURVE SMOOTH",
"646 558 OFFCURVE",
"547 678 OFFCURVE",
"348 678 CURVE SMOOTH",
"150 678 OFFCURVE",
"49 558 OFFCURVE",
"49 335 CURVE SMOOTH",
"49 335 LINE"
);
}
);
width = 695;
}
);
unicode = 004F;
},
{
glyphname = P;
lastChange = "2019-08-19 16:07:20 +0000";
layers = (
{
layerId = UUID0;
paths = (
{
closed = 1;
nodes = (
"315 0 LINE",
"319 37 LINE",
"286 41 OFFCURVE",
"251 47 OFFCURVE",
"222 64 CURVE",
"222 293 LINE",
"254 293 LINE SMOOTH",
"415 293 OFFCURVE",
"520 335 OFFCURVE",
"520 482 CURVE SMOOTH",
"520 598 OFFCURVE",
"453 667 OFFCURVE",
"298 667 CURVE SMOOTH",
"41 667 LINE",
"40 655 OFFCURVE",
"38 643 OFFCURVE",
"36 631 CURVE",
"70 627 OFFCURVE",
"105 619 OFFCURVE",
"134 604 CURVE",
"134 64 LINE",
"105 47 OFFCURVE",
"75 41 OFFCURVE",
"43 37 CURVE",
"37 0 LINE"
);
},
{
closed = 1;
nodes = (
"430 381 OFFCURVE",
"362 338 OFFCURVE",
"254 338 CURVE SMOOTH",
"222 338 LINE",
"222 619 LINE",
"245 623 OFFCURVE",
"268 625 OFFCURVE",
"288 625 CURVE SMOOTH",
"372 625 OFFCURVE",
"430 589 OFFCURVE",
"430 484 CURVE SMOOTH",
"430 484 LINE"
);
}
);
width = 568;
},
{
layerId = "0EBA3A65-8808-4583-9AA2-2A9BC4F414AB";
paths = (
{
closed = 1;
nodes = (
"287 46 OFFCURVE",
"261 57 OFFCURVE",
"247 71 CURVE",
"247 283 LINE",
"261 282 OFFCURVE",
"291 280 OFFCURVE",
"311 280 CURVE SMOOTH",
"488 280 OFFCURVE",
"586 351 OFFCURVE",
"586 481 CURVE SMOOTH",
"586 605 OFFCURVE",
"499 667 OFFCURVE",
"325 667 CURVE SMOOTH",
"43 667 LINE",
"39 628 LINE",
"68 618 OFFCURVE",
"87 608 OFFCURVE",
"100 596 CURVE",
"100 71 LINE",
"82 53 OFFCURVE",
"68 46 OFFCURVE",
"43 41 CURVE",
"39 0 LINE",
"315 0 LINE",
"322 39 LINE"
);
},
{
closed = 1;
nodes = (
"431 389 OFFCURVE",
"390 343 OFFCURVE",
"312 343 CURVE SMOOTH",
"247 343 LINE",
"247 602 LINE",
"266 605 OFFCURVE",
"284 606 OFFCURVE",
"312 606 CURVE SMOOTH",
"387 606 OFFCURVE",
"431 560 OFFCURVE",
"431 479 CURVE SMOOTH",
"431 479 LINE"
);
}
);
width = 614;
}
);
unicode = 0050;
},
{
glyphname = Q;
lastChange = "2019-08-19 16:07:20 +0000";
layers = (
{
layerId = UUID0;
paths = (
{
closed = 1;
nodes = (
"122 676 OFFCURVE",
"53 543 OFFCURVE",
"53 334 CURVE SMOOTH",
"53 134 OFFCURVE",
"117 3 OFFCURVE",
"304 -6 CURVE",
"343 -82 OFFCURVE",
"409 -150 OFFCURVE",
"529 -170 CURVE",
"536 -164 OFFCURVE",
"539 -156 OFFCURVE",
"539 -146 CURVE SMOOTH",
"539 -140 LINE",
"468 -116 OFFCURVE",
"409 -65 OFFCURVE",
"385 -2 CURVE",
"544 22 OFFCURVE",
"600 147 OFFCURVE",
"600 333 CURVE SMOOTH",
"600 542 OFFCURVE",
"531 676 OFFCURVE",
"327 676 CURVE SMOOTH",
"327 676 LINE"
);
},
{
closed = 1;
nodes = (
"177 42 OFFCURVE",
"154 181 OFFCURVE",
"154 334 CURVE SMOOTH",
"154 488 OFFCURVE",
"177 626 OFFCURVE",
"327 626 CURVE SMOOTH",
"477 626 OFFCURVE",
"499 487 OFFCURVE",
"499 333 CURVE SMOOTH",
"499 180 OFFCURVE",
"477 42 OFFCURVE",
"327 42 CURVE SMOOTH",
"327 42 LINE"
);
}
);
width = 653;
},
{
layerId = "0EBA3A65-8808-4583-9AA2-2A9BC4F414AB";
paths = (
{
closed = 1;
nodes = (
"49 134 OFFCURVE",
"130 15 OFFCURVE",
"290 -6 CURVE",
"335 -84 OFFCURVE",
"403 -153 OFFCURVE",
"541 -174 CURVE",
"548 -170 OFFCURVE",
"554 -157 OFFCURVE",
"554 -146 CURVE SMOOTH",
"554 -143 OFFCURVE",
"554 -141 OFFCURVE",
"553 -138 CURVE",
"490 -114 OFFCURVE",
"443 -65 OFFCURVE",
"421 -4 CURVE",
"571 23 OFFCURVE",
"646 140 OFFCURVE",
"646 335 CURVE SMOOTH",
"646 558 OFFCURVE",
"547 678 OFFCURVE",
"348 678 CURVE SMOOTH",
"150 678 OFFCURVE",
"49 558 OFFCURVE",
"49 335 CURVE SMOOTH",
"49 335 LINE"
);
},
{
closed = 1;
nodes = (
"214 537 OFFCURVE",
"253 620 OFFCURVE",
"348 620 CURVE SMOOTH",
"442 620 OFFCURVE",
"480 537 OFFCURVE",
"480 335 CURVE SMOOTH",
"480 131 OFFCURVE",
"442 48 OFFCURVE",
"348 48 CURVE SMOOTH",
"253 48 OFFCURVE",
"214 131 OFFCURVE",
"214 335 CURVE SMOOTH",
"214 335 LINE"
);
}
);
width = 695;
}
);
unicode = 0051;
},
{
glyphname = R;
lastChange = "2019-08-19 16:07:20 +0000";
layers = (
{
anchors = (
{
name = bottom;
position = "{337, 0}";
},
{
name = top;
position = "{302, 705}";
}
);
layerId = UUID0;
paths = (
{
closed = 1;
nodes = (
"316 0 LINE",
"317 13 OFFCURVE",
"319 25 OFFCURVE",
"321 37 CURVE",
"268 44 OFFCURVE",
"243 52 OFFCURVE",
"224 64 CURVE",
"224 311 LINE",
"244 311 LINE SMOOTH",
"330 311 OFFCURVE",
"340 304 OFFCURVE",
"372 223 CURVE SMOOTH",
"459 0 LINE",
"610 0 LINE",
"616 38 LINE",
"578 42 OFFCURVE",
"551 51 OFFCURVE",
"532 64 CURVE",
"453 240 LINE SMOOTH",
"435 281 OFFCURVE",
"417 309 OFFCURVE",
"391 326 CURVE",
"486 349 OFFCURVE",
"529 403 OFFCURVE",
"529 491 CURVE SMOOTH",
"529 609 OFFCURVE",
"451 667 OFFCURVE",
"300 667 CURVE SMOOTH",
"43 667 LINE",
"38 631 LINE",
"81 626 OFFCURVE",
"113 617 OFFCURVE",
"136 604 CURVE",
"136 64 LINE",
"112 50 OFFCURVE",
"85 42 OFFCURVE",
"44 37 CURVE",
"39 0 LINE"
);
},
{
closed = 1;
nodes = (
"391 626 OFFCURVE",
"439 581 OFFCURVE",
"439 493 CURVE SMOOTH",
"439 401 OFFCURVE",
"380 357 OFFCURVE",
"255 357 CURVE SMOOTH",
"224 357 LINE",
"224 619 LINE",
"259 625 OFFCURVE",
"272 626 OFFCURVE",
"299 626 CURVE SMOOTH",
"299 626 LINE"
);
}
);
width = 621;
},
{
anchors = (
{
name = bottom;
position = "{362, 0}";
},
{
name = top;
position = "{307, 705}";
}
);
layerId = "0EBA3A65-8808-4583-9AA2-2A9BC4F414AB";
paths = (
{
closed = 1;
nodes = (
"286 46 OFFCURVE",
"260 57 OFFCURVE",
"246 71 CURVE",
"246 302 LINE",
"257 302 LINE SMOOTH",
"269 301 OFFCURVE",
"285 300 OFFCURVE",
"298 300 CURVE",
"324 296 OFFCURVE",
"342 287 OFFCURVE",
"352 262 CURVE SMOOTH",
"449 0 LINE",
"631 0 LINE",
"638 41 LINE",
"612 47 OFFCURVE",
"586 55 OFFCURVE",
"577 76 CURVE SMOOTH",
"502 254 LINE SMOOTH",
"487 288 OFFCURVE",
"468 308 OFFCURVE",
"450 320 CURVE",
"535 348 OFFCURVE",
"580 406 OFFCURVE",
"580 491 CURVE SMOOTH",
"580 609 OFFCURVE",
"495 667 OFFCURVE",
"324 667 CURVE SMOOTH",
"42 667 LINE",
"38 628 LINE",
"67 618 OFFCURVE",
"86 608 OFFCURVE",
"99 596 CURVE",
"99 71 LINE",
"81 53 OFFCURVE",
"67 46 OFFCURVE",
"42 41 CURVE",
"38 0 LINE",
"314 0 LINE",
"321 39 LINE"
);
},
{
closed = 1;
nodes = (
"425 405 OFFCURVE",
"386 363 OFFCURVE",
"311 363 CURVE SMOOTH",
"246 363 LINE",
"246 602 LINE",
"265 605 OFFCURVE",
"283 606 OFFCURVE",
"311 606 CURVE SMOOTH",
"383 606 OFFCURVE",
"425 564 OFFCURVE",
"425 489 CURVE SMOOTH",
"425 489 LINE"
);
}
);
width = 662;
}
);
unicode = 0052;
},
{
glyphname = S;
lastChange = "2019-08-19 16:07:20 +0000";
layers = (
{
anchors = (
{
name = bottom;
position = "{259, 0}";
},
{
name = cedilla;
position = "{269, 0}";
},
{
name = top;
position = "{254, 705}";
}
);
layerId = UUID0;
paths = (
{
closed = 1;
nodes = (
"328 625 OFFCURVE",
"363 597 OFFCURVE",
"363 564 CURVE SMOOTH",
"363 537 OFFCURVE",
"352 523 OFFCURVE",
"342 513 CURVE",
"353 498 OFFCURVE",
"366 485 OFFCURVE",
"400 485 CURVE SMOOTH",
"433 485 OFFCURVE",
"450 507 OFFCURVE",
"450 549 CURVE SMOOTH",
"450 621 OFFCURVE",
"363 676 OFFCURVE",
"262 676 CURVE SMOOTH",
"131 676 OFFCURVE",
"56 605 OFFCURVE",
"56 499 CURVE SMOOTH",
"56 382 OFFCURVE",
"146 341 OFFCURVE",
"227 306 CURVE SMOOTH",
"300 275 OFFCURVE",
"371 244 OFFCURVE",
"371 160 CURVE SMOOTH",
"371 86 OFFCURVE",
"320 43 OFFCURVE",
"246 43 CURVE SMOOTH",
"189 43 OFFCURVE",
"156 55 OFFCURVE",
"132 66 CURVE",
"110 116 OFFCURVE",
"103 160 OFFCURVE",
"96 214 CURVE",
"47 209 LINE",
"47 45 LINE",
"73 26 OFFCURVE",
"156 -7 OFFCURVE",
"232 -7 CURVE SMOOTH",
"367 -7 OFFCURVE",
"462 57 OFFCURVE",
"462 181 CURVE SMOOTH",
"462 311 OFFCURVE",
"367 352 OFFCURVE",
"281 389 CURVE SMOOTH",
"208 420 OFFCURVE",
"142 448 OFFCURVE",
"142 524 CURVE SMOOTH",
"142 591 OFFCURVE",
"188 625 OFFCURVE",
"261 625 CURVE SMOOTH",
"261 625 LINE"
);
}
);
width = 496;
},
{
anchors = (
{
name = bottom;
position = "{259, 0}";
},
{
name = cedilla;
position = "{274, 0}";
},
{
name = top;
position = "{264, 705}";
}
);
layerId = "0EBA3A65-8808-4583-9AA2-2A9BC4F414AB";
paths = (
{
closed = 1;
nodes = (
"45 44 LINE",
"108 11 OFFCURVE",
"185 -7 OFFCURVE",
"260 -7 CURVE SMOOTH",
"395 -7 OFFCURVE",
"484 69 OFFCURVE",
"484 183 CURVE SMOOTH",
"484 294 OFFCURVE",
"436 356 OFFCURVE",
"304 412 CURVE SMOOTH",
"209 453 OFFCURVE",
"179 482 OFFCURVE",
"179 541 CURVE SMOOTH",
"179 589 OFFCURVE",
"216 621 OFFCURVE",
"272 621 CURVE SMOOTH",
"326 621 OFFCURVE",
"360 598 OFFCURVE",
"360 561 CURVE SMOOTH",
"360 541 OFFCURVE",
"351 519 OFFCURVE",
"335 501 CURVE",
"362 480 OFFCURVE",
"386 471 OFFCURVE",
"411 471 CURVE SMOOTH",
"450 471 OFFCURVE",
"476 500 OFFCURVE",
"476 545 CURVE SMOOTH",
"476 617 OFFCURVE",
"384 675 OFFCURVE",
"270 675 CURVE SMOOTH",
"141 675 OFFCURVE",
"46 597 OFFCURVE",
"46 492 CURVE SMOOTH",
"46 390 OFFCURVE",
"91 340 OFFCURVE",
"222 286 CURVE SMOOTH",
"304 252 OFFCURVE",
"342 210 OFFCURVE",
"342 140 CURVE SMOOTH",
"342 85 OFFCURVE",
"305 48 OFFCURVE",
"251 48 CURVE SMOOTH",
"224 48 OFFCURVE",
"197 54 OFFCURVE",
"168 65 CURVE",
"154 91 OFFCURVE",
"140 157 OFFCURVE",
"136 213 CURVE",
"45 196 LINE"
);
}
);
width = 513;
}
);
unicode = 0053;
},
{
glyphname = T;
lastChange = "2019-08-19 16:07:20 +0000";
layers = (
{
anchors = (
{
name = bottom;
position = "{296, 0}";
},
{
name = top;
position = "{296, 705}";
}
);
layerId = UUID0;
paths = (
{
closed = 1;
nodes = (
"434 0 LINE",
"435 13 OFFCURVE",
"437 25 OFFCURVE",
"439 37 CURVE",
"406 41 OFFCURVE",
"370 48 OFFCURVE",
"341 64 CURVE",
"341 622 LINE",
"405 621 OFFCURVE",
"445 617 OFFCURVE",
"473 614 CURVE",
"497 578 OFFCURVE",
"506 528 OFFCURVE",
"509 499 CURVE",
"517 498 OFFCURVE",
"524 498 OFFCURVE",
"532 498 CURVE SMOOTH",
"539 498 OFFCURVE",
"546 498 OFFCURVE",
"553 499 CURVE",
"553 671 LINE",
"543 670 OFFCURVE",
"391 667 OFFCURVE",
"296 667 CURVE SMOOTH",
"172 667 OFFCURVE",
"40 671 OFFCURVE",
"40 671 CURVE",
"40 499 LINE",
"47 498 OFFCURVE",
"54 498 OFFCURVE",
"60 498 CURVE SMOOTH",
"68 498 OFFCURVE",
"77 499 OFFCURVE",
"84 499 CURVE",
"85 529 OFFCURVE",
"96 579 OFFCURVE",
"122 615 CURVE",
"150 618 OFFCURVE",
"190 621 OFFCURVE",
"253 622 CURVE",
"253 64 LINE",
"225 47 OFFCURVE",
"194 41 OFFCURVE",
"162 37 CURVE",
"156 0 LINE"
);
}
);
width = 593;
},
{
anchors = (
{
name = bottom;
position = "{321, 0}";
},
{
name = top;
position = "{321, 705}";
}
);
layerId = "0EBA3A65-8808-4583-9AA2-2A9BC4F414AB";
paths = (
{
closed = 1;
nodes = (
"431 48 OFFCURVE",
"407 58 OFFCURVE",
"393 71 CURVE",
"393 606 LINE",
"432 605 OFFCURVE",
"466 602 OFFCURVE",
"496 598 CURVE",
"513 571 OFFCURVE",
"527 528 OFFCURVE",
"532 483 CURVE",
"544 481 OFFCURVE",
"556 480 OFFCURVE",
"568 480 CURVE SMOOTH",
"579 480 OFFCURVE",
"590 481 OFFCURVE",
"601 483 CURVE",
"601 671 LINE",
"587 670 OFFCURVE",
"400 667 OFFCURVE",
"319 667 CURVE SMOOTH",
"185 667 OFFCURVE",
"38 671 OFFCURVE",
"38 671 CURVE",
"38 483 LINE",
"49 481 OFFCURVE",
"60 480 OFFCURVE",
"71 480 CURVE SMOOTH",
"83 480 OFFCURVE",
"95 481 OFFCURVE",
"107 483 CURVE",
"108 522 OFFCURVE",
"124 570 OFFCURVE",
"145 599 CURVE",
"174 601 OFFCURVE",
"207 604 OFFCURVE",
"246 605 CURVE",
"246 71 LINE",
"226 54 OFFCURVE",
"205 45 OFFCURVE",
"174 41 CURVE",
"170 0 LINE",
"461 0 LINE",
"468 41 LINE"
);
}
);
width = 639;
}
);
unicode = 0054;
},
{
glyphname = U;
lastChange = "2019-08-19 16:07:20 +0000";
layers = (
{
anchors = (
{
name = ogonek;
position = "{403, 0}";
},
{
name = top;
position = "{323, 705}";
}
);
layerId = UUID0;
paths = (
{
closed = 1;
nodes = (
"402 667 LINE",
"400 655 OFFCURVE",
"398 643 OFFCURVE",
"397 631 CURVE",
"440 626 OFFCURVE",
"472 616 OFFCURVE",
"494 604 CURVE",
"494 216 LINE SMOOTH",
"494 105 OFFCURVE",
"435 45 OFFCURVE",
"332 45 CURVE SMOOTH",
"228 45 OFFCURVE",
"180 91 OFFCURVE",
"180 210 CURVE SMOOTH",
"180 604 LINE",
"203 616 OFFCURVE",
"229 624 OFFCURVE",
"270 631 CURVE",
"276 667 LINE",
"-4 667 LINE",
"-8 631 LINE",
"35 626 OFFCURVE",
"66 616 OFFCURVE",
"89 604 CURVE",
"89 210 LINE SMOOTH",
"89 60 OFFCURVE",
"160 -7 OFFCURVE",
"332 -7 CURVE SMOOTH",
"477 -7 OFFCURVE",
"558 73 OFFCURVE",
"558 216 CURVE SMOOTH",
"558 604 LINE",
"581 616 OFFCURVE",
"607 624 OFFCURVE",
"650 631 CURVE",
"655 667 LINE"
);
}
);
width = 648;
},
{
anchors = (
{
name = ogonek;
position = "{413, 0}";
},
{
name = top;
position = "{343, 705}";
}
);
background = {
paths = (
{
closed = 1;
nodes = (
"78 300 OFFCURVE",
"110 268 OFFCURVE",
"151 268 CURVE SMOOTH",
"192 268 OFFCURVE",
"225 300 OFFCURVE",
"225 341 CURVE SMOOTH",
"225 382 OFFCURVE",
"192 415 OFFCURVE",
"151 415 CURVE SMOOTH",
"110 415 OFFCURVE",
"78 382 OFFCURVE",
"78 341 CURVE SMOOTH"
);
},
{
closed = 1;
nodes = (
"484 312 OFFCURVE",
"506 290 OFFCURVE",
"535 290 CURVE SMOOTH",
"564 290 OFFCURVE",
"587 312 OFFCURVE",
"587 341 CURVE SMOOTH",
"587 370 OFFCURVE",
"564 393 OFFCURVE",
"535 393 CURVE SMOOTH",
"506 393 OFFCURVE",
"484 370 OFFCURVE",
"484 341 CURVE SMOOTH"
);
},
{
closed = 1;
nodes = (
"303 10 OFFCURVE",
"321 -8 OFFCURVE",
"344 -8 CURVE SMOOTH",
"367 -8 OFFCURVE",
"386 10 OFFCURVE",
"386 33 CURVE SMOOTH",
"386 56 OFFCURVE",
"367 75 OFFCURVE",
"344 75 CURVE SMOOTH",
"321 75 OFFCURVE",
"303 56 OFFCURVE",
"303 33 CURVE SMOOTH"
);
},
{
closed = 1;
nodes = (
"2 626 LINE",
"32 621 OFFCURVE",
"65 609 OFFCURVE",
"78 596 CURVE",
"78 208 LINE SMOOTH",
"78 64 OFFCURVE",
"166 -7 OFFCURVE",
"344 -7 CURVE SMOOTH",
"504 -7 OFFCURVE",
"589 67 OFFCURVE",
"589 208 CURVE SMOOTH",
"589 596 LINE",
"605 609 OFFCURVE",
"626 619 OFFCURVE",
"655 628 CURVE",
"661 667 LINE",
"423 667 LINE",
"418 626 LINE",
"449 619 OFFCURVE",
"465 613 OFFCURVE",
"484 598 CURVE",
"484 208 LINE SMOOTH",
"484 103 OFFCURVE",
"439 48 OFFCURVE",
"355 48 CURVE SMOOTH",
"271 48 OFFCURVE",
"225 105 OFFCURVE",
"225 208 CURVE SMOOTH",
"225 596 LINE",
"244 612 OFFCURVE",
"260 619 OFFCURVE",
"294 626 CURVE",
"300 667 LINE",
"7 667 LINE"
);
}
);
};
layerId = "0EBA3A65-8808-4583-9AA2-2A9BC4F414AB";
paths = (
{
closed = 1;
nodes = (
"32 621 OFFCURVE",
"65 609 OFFCURVE",
"78 596 CURVE",
"78 208 LINE SMOOTH",
"78 64 OFFCURVE",
"166 -7 OFFCURVE",
"344 -7 CURVE SMOOTH",
"397 -7 OFFCURVE",
"444 3 OFFCURVE",
"479 19 CURVE SMOOTH",
"564 58 OFFCURVE",
"589 125 OFFCURVE",
"589 245 CURVE SMOOTH",
"589 596 LINE",
"605 609 OFFCURVE",
"626 619 OFFCURVE",
"655 628 CURVE",
"661 667 LINE",
"423 667 LINE",
"418 626 LINE",
"449 619 OFFCURVE",
"475 613 OFFCURVE",
"494 598 CURVE",
"494 223 LINE SMOOTH",
"494 132 OFFCURVE",
"465 60 OFFCURVE",
"365 60 CURVE SMOOTH",
"268 60 OFFCURVE",
"225 111 OFFCURVE",
"225 208 CURVE SMOOTH",
"225 596 LINE",
"244 612 OFFCURVE",
"260 619 OFFCURVE",
"294 626 CURVE",
"300 667 LINE",
"7 667 LINE",
"2 626 LINE"
);
}
);
width = 676;
}
);
unicode = 0055;
},
{
glyphname = V;
lastChange = "2019-08-19 16:07:20 +0000";
layers = (
{
layerId = UUID0;
paths = (
{
closed = 1;
nodes = (
"376 667 LINE",
"375 655 OFFCURVE",
"373 643 OFFCURVE",
"371 631 CURVE",
"403 627 OFFCURVE",
"435 618 OFFCURVE",
"462 604 CURVE",
"319 153 LINE",
"162 604 LINE",
"189 620 OFFCURVE",
"217 627 OFFCURVE",
"248 631 CURVE",
"254 667 LINE",
"12 667 LINE",
"7 631 LINE",
"29 626 OFFCURVE",
"54 616 OFFCURVE",
"68 604 CURVE",
"284 0 LINE",
"332 0 LINE",
"528 605 LINE",
"548 619 OFFCURVE",
"568 627 OFFCURVE",
"590 631 CURVE",
"596 667 LINE"
);
}
);
width = 604;
},
{
layerId = "0EBA3A65-8808-4583-9AA2-2A9BC4F414AB";
paths = (
{
closed = 1;
nodes = (
"280 667 LINE",
"6 667 LINE",
"1 627 LINE",
"27 622 OFFCURVE",
"54 613 OFFCURVE",
"65 585 CURVE",
"252 0 LINE",
"353 0 LINE",
"573 601 LINE",
"584 618 OFFCURVE",
"609 626 OFFCURVE",
"636 627 CURVE",
"641 667 LINE",
"420 667 LINE",
"415 627 LINE",
"446 623 OFFCURVE",
"476 613 OFFCURVE",
"494 597 CURVE",
"348 185 LINE",
"212 605 LINE",
"227 620 OFFCURVE",
"247 626 OFFCURVE",
"274 627 CURVE",
"274 627 LINE"
);
}
);
width = 634;
}
);
unicode = 0056;
},
{
glyphname = W;
lastChange = "2019-08-19 16:07:20 +0000";
layers = (
{
anchors = (
{
name = top;
position = "{460, 705}";
}
);
layerId = UUID0;
paths = (
{
closed = 1;
nodes = (
"681 667 LINE",
"676 631 LINE",
"709 627 OFFCURVE",
"740 618 OFFCURVE",
"767 604 CURVE",
"648 161 LINE",
"488 667 LINE",
"456 667 LINE",
"307 159 LINE",
"175 604 LINE",
"202 620 OFFCURVE",
"230 627 OFFCURVE",
"261 631 CURVE",
"267 667 LINE",
"24 667 LINE",
"20 631 LINE",
"42 626 OFFCURVE",
"65 617 OFFCURVE",
"80 605 CURVE",
"272 0 LINE",
"320 0 LINE",
"460 462 LINE",
"614 0 LINE",
"662 0 LINE",
"835 606 LINE",
"854 619 OFFCURVE",
"874 627 OFFCURVE",
"895 631 CURVE",
"901 667 LINE"
);
}
);
width = 921;
},
{
anchors = (
{
name = top;
position = "{515, 705}";
}
);
layerId = "0EBA3A65-8808-4583-9AA2-2A9BC4F414AB";
paths = (
{
closed = 1;
nodes = (
"328 185 LINE",
"211 605 LINE",
"227 620 OFFCURVE",
"247 626 OFFCURVE",
"274 627 CURVE",
"280 667 LINE",
"6 667 LINE",
"1 627 LINE",
"24 622 OFFCURVE",
"48 615 OFFCURVE",
"61 593 CURVE",
"232 0 LINE",
"333 0 LINE",
"472 430 LINE",
"600 0 LINE",
"701 0 LINE",
"901 602 LINE",
"912 619 OFFCURVE",
"937 626 OFFCURVE",
"963 627 CURVE",
"968 667 LINE",
"747 667 LINE",
"742 627 LINE",
"773 623 OFFCURVE",
"804 613 OFFCURVE",
"822 596 CURVE",
"696 185 LINE",
"558 667 LINE",
"470 667 LINE"
);
}
);
width = 961;
}
);
unicode = 0057;
},
{
glyphname = X;
lastChange = "2019-08-19 16:07:20 +0000";
layers = (
{
layerId = UUID0;
paths = (
{
closed = 1;
nodes = (
"15 667 LINE",
"10 631 LINE",
"37 624 OFFCURVE",
"57 615 OFFCURVE",
"71 605 CURVE",
"242 339 LINE",
"68 61 LINE",
"42 44 OFFCURVE",
"11 39 OFFCURVE",
"-20 37 CURVE",
"-21 25 OFFCURVE",
"-23 13 OFFCURVE",
"-25 0 CURVE",
"229 0 LINE",
"233 37 LINE",
"185 37 OFFCURVE",
"153 44 OFFCURVE",
"140 61 CURVE",
"277 283 LINE",
"417 63 LINE",
"401 47 OFFCURVE",
"379 37 OFFCURVE",
"331 37 CURVE",
"330 25 OFFCURVE",
"328 13 OFFCURVE",
"326 0 CURVE",
"592 0 LINE",
"593 13 OFFCURVE",
"595 25 OFFCURVE",
"597 37 CURVE",
"577 40 OFFCURVE",
"548 44 OFFCURVE",
"523 61 CURVE",
"335 355 LINE",
"491 605 LINE",
"507 617 OFFCURVE",
"527 627 OFFCURVE",
"555 631 CURVE",
"560 667 LINE",
"343 667 LINE",
"341 655 OFFCURVE",
"339 643 OFFCURVE",
"338 631 CURVE",
"372 625 OFFCURVE",
"401 614 OFFCURVE",
"418 604 CURVE",
"298 412 LINE",
"176 604 LINE",
"195 616 OFFCURVE",
"223 626 OFFCURVE",
"256 631 CURVE",
"262 667 LINE"
);
}
);
width = 571;
},
{
layerId = "0EBA3A65-8808-4583-9AA2-2A9BC4F414AB";
paths = (
{
closed = 1;
nodes = (
"58 48 OFFCURVE",
"33 41 OFFCURVE",
"7 40 CURVE",
"2 0 LINE",
"223 0 LINE",
"228 40 LINE",
"201 44 OFFCURVE",
"175 53 OFFCURVE",
"159 68 CURVE",
"280 248 LINE",
"397 61 LINE",
"383 47 OFFCURVE",
"365 41 OFFCURVE",
"341 40 CURVE",
"335 0 LINE",
"609 0 LINE",
"614 40 LINE",
"596 43 OFFCURVE",
"577 48 OFFCURVE",
"563 61 CURVE",
"373 365 LINE",
"530 599 LINE SMOOTH",
"542 616 OFFCURVE",
"567 623 OFFCURVE",
"593 624 CURVE",
"598 664 LINE",
"377 664 LINE",
"372 624 LINE",
"399 620 OFFCURVE",
"425 611 OFFCURVE",
"441 595 CURVE",
"332 432 LINE",
"224 606 LINE",
"238 620 OFFCURVE",
"255 626 OFFCURVE",
"280 627 CURVE",
"286 667 LINE",
"12 667 LINE",
"7 627 LINE",
"25 623 OFFCURVE",
"45 618 OFFCURVE",
"58 604 CURVE",
"238 315 LINE",
"69 65 LINE"
);
}
);
width = 619;
}
);
unicode = 0058;
},
{
glyphname = Y;
lastChange = "2019-08-19 16:07:20 +0000";
layers = (
{
anchors = (
{
name = top;
position = "{295, 705}";
}
);
layerId = UUID0;
paths = (
{
closed = 1;
nodes = (
"429 0 LINE",
"433 37 LINE",
"398 41 OFFCURVE",
"361 47 OFFCURVE",
"331 64 CURVE",
"331 277 LINE",
"493 605 LINE",
"511 619 OFFCURVE",
"532 627 OFFCURVE",
"554 631 CURVE",
"560 667 LINE",
"340 667 LINE",
"338 655 OFFCURVE",
"336 643 OFFCURVE",
"335 631 CURVE",
"367 627 OFFCURVE",
"399 618 OFFCURVE",
"424 605 CURVE",
"296 343 LINE",
"171 604 LINE",
"199 620 OFFCURVE",
"228 627 OFFCURVE",
"258 631 CURVE",
"259 643 OFFCURVE",
"261 655 OFFCURVE",
"263 667 CURVE",
"16 667 LINE",
"11 631 LINE",
"34 626 OFFCURVE",
"58 616 OFFCURVE",
"73 605 CURVE",
"243 265 LINE",
"243 64 LINE",
"212 46 OFFCURVE",
"182 41 OFFCURVE",
"146 37 CURVE",
"141 0 LINE"
);
}
);
width = 570;
},
{
anchors = (
{
name = top;
position = "{325, 705}";
}
);
layerId = "0EBA3A65-8808-4583-9AA2-2A9BC4F414AB";
paths = (
{
closed = 1;
nodes = (
"408 46 OFFCURVE",
"382 57 OFFCURVE",
"367 71 CURVE",
"367 268 LINE",
"538 605 LINE",
"550 620 OFFCURVE",
"573 626 OFFCURVE",
"598 627 CURVE",
"603 667 LINE",
"379 667 LINE",
"374 627 LINE",
"405 623 OFFCURVE",
"436 613 OFFCURVE",
"454 597 CURVE",
"332 357 LINE",
"213 605 LINE",
"228 620 OFFCURVE",
"248 626 OFFCURVE",
"275 627 CURVE",
"281 667 LINE",
"10 667 LINE",
"5 627 LINE",
"28 622 OFFCURVE",
"53 615 OFFCURVE",
"65 593 CURVE SMOOTH",
"67 590 LINE SMOOTH",
"68 588 OFFCURVE",
"68 586 OFFCURVE",
"69 585 CURVE SMOOTH",
"220 269 LINE",
"220 66 LINE",
"210 55 OFFCURVE",
"184 44 OFFCURVE",
"163 41 CURVE",
"159 0 LINE",
"435 0 LINE",
"442 39 LINE"
);
}
);
width = 604;
}
);
unicode = 0059;
},
{
glyphname = Z;
lastChange = "2019-08-19 16:07:20 +0000";
layers = (
{
anchors = (
{
name = top;
position = "{290, 704}";
}
);
layerId = UUID0;
paths = (
{
closed = 1;
nodes = (
"491 182 OFFCURVE",
"484 183 OFFCURVE",
"476 183 CURVE SMOOTH",
"470 183 OFFCURVE",
"461 182 OFFCURVE",
"455 181 CURVE",
"442 132 OFFCURVE",
"418 87 OFFCURVE",
"389 52 CURVE",
"341 51 OFFCURVE",
"286 51 OFFCURVE",
"240 51 CURVE SMOOTH",
"204 51 OFFCURVE",
"171 51 OFFCURVE",
"144 52 CURVE",
"499 632 LINE",
"490 672 LINE",
"463 671 OFFCURVE",
"381 667 OFFCURVE",
"296 667 CURVE SMOOTH",
"194 667 OFFCURVE",
"74 672 OFFCURVE",
"74 672 CURVE",
"48 648 LINE",
"60 502 LINE",
"65 501 OFFCURVE",
"72 501 OFFCURVE",
"77 501 CURVE SMOOTH",
"84 501 OFFCURVE",
"92 502 OFFCURVE",
"98 502 CURVE",
"105 543 OFFCURVE",
"122 593 OFFCURVE",
"146 614 CURVE",
"191 615 OFFCURVE",
"248 616 OFFCURVE",
"295 616 CURVE SMOOTH",
"345 616 LINE SMOOTH",
"358 616 OFFCURVE",
"372 615 OFFCURVE",
"384 615 CURVE",
"38 46 LINE",
"41 -4 LINE",
"48 -3 OFFCURVE",
"141 0 OFFCURVE",
"239 0 CURVE SMOOTH",
"322 0 OFFCURVE",
"443 -1 OFFCURVE",
"489 -3 CURVE",
"498 181 LINE"
);
}
);
width = 538;
},
{
anchors = (
{
name = top;
position = "{310, 704}";
}
);
layerId = "0EBA3A65-8808-4583-9AA2-2A9BC4F414AB";
paths = (
{
closed = 1;
nodes = (
"526 193 OFFCURVE",
"513 194 OFFCURVE",
"500 194 CURVE SMOOTH",
"487 194 OFFCURVE",
"472 193 OFFCURVE",
"460 190 CURVE",
"448 138 OFFCURVE",
"429 89 OFFCURVE",
"408 59 CURVE",
"200 59 LINE",
"535 631 LINE",
"525 669 LINE",
"449 667 OFFCURVE",
"375 667 OFFCURVE",
"302 667 CURVE SMOOTH",
"203 667 OFFCURVE",
"88 668 OFFCURVE",
"65 669 CURVE",
"28 637 LINE",
"40 490 LINE",
"56 485 OFFCURVE",
"73 482 OFFCURVE",
"90 482 CURVE SMOOTH",
"102 482 OFFCURVE",
"114 483 OFFCURVE",
"125 485 CURVE",
"134 541 OFFCURVE",
"149 594 OFFCURVE",
"161 609 CURVE",
"354 609 LINE",
"28 45 LINE",
"32 -2 LINE",
"69 0 OFFCURVE",
"196 0 OFFCURVE",
"261 0 CURVE SMOOTH",
"355 0 OFFCURVE",
"481 -2 OFFCURVE",
"526 -2 CURVE",
"535 191 LINE"
);
}
);
width = 566;
}
);
unicode = 005A;
},
{
glyphname = AE;
lastChange = "2019-08-19 16:07:20 +0000";
layers = (
{
anchors = (
{
name = bottom;
position = "{508, 0}";
},
{
name = top;
position = "{569, 695}";
}
);
layerId = UUID0;
paths = (
{
closed = 1;
nodes = (
"252 0 LINE",
"256 37 LINE",
"223 41 OFFCURVE",
"186 47 OFFCURVE",
"157 64 CURVE",
"265 271 LINE",
"433 271 LINE",
"433 64 LINE",
"403 47 OFFCURVE",
"374 41 OFFCURVE",
"341 37 CURVE",
"335 0 LINE",
"808 0 LINE",
"817 171 LINE",
"810 172 OFFCURVE",
"803 173 OFFCURVE",
"797 173 CURVE SMOOTH",
"790 173 OFFCURVE",
"784 172 OFFCURVE",
"777 171 CURVE",
"771 138 OFFCURVE",
"760 94 OFFCURVE",
"734 58 CURVE",
"521 58 LINE",
"521 318 LINE",
"632 312 LINE SMOOTH",
"670 310 OFFCURVE",
"681 272 OFFCURVE",
"688 247 CURVE SMOOTH",
"691 238 LINE",
"721 238 LINE",
"721 436 LINE",
"691 436 LINE",
"684 411 OFFCURVE",
"669 370 OFFCURVE",
"633 369 CURVE SMOOTH",
"521 364 LINE",
"521 614 LINE",
"710 614 LINE",
"734 583 OFFCURVE",
"746 543 OFFCURVE",
"752 512 CURVE",
"757 511 OFFCURVE",
"762 510 OFFCURVE",
"766 510 CURVE SMOOTH",
"776 510 OFFCURVE",
"786 512 OFFCURVE",
"794 515 CURVE",
"785 667 LINE",
"406 667 LINE",
"88 61 LINE",
"69 48 OFFCURVE",
"49 41 OFFCURVE",
"25 37 CURVE",
"19 0 LINE"
);
},
{
closed = 1;
nodes = (
"433 590 LINE",
"433 318 LINE",
"290 318 LINE"
);
}
);
width = 866;
},
{
anchors = (
{
name = bottom;
position = "{503, 0}";
},
{
name = top;
position = "{559, 695}";
}
);
layerId = "0EBA3A65-8808-4583-9AA2-2A9BC4F414AB";
paths = (
{
closed = 1;
nodes = (
"375 667 LINE",
"67 71 LINE",
"58 50 OFFCURVE",
"32 41 OFFCURVE",
"3 40 CURVE",
"-3 0 LINE",
"223 0 LINE",
"228 40 LINE",
"196 44 OFFCURVE",
"166 52 OFFCURVE",
"146 68 CURVE",
"217 208 LINE",
"415 208 LINE",
"415 66 LINE",
"405 55 OFFCURVE",
"379 44 OFFCURVE",
"358 41 CURVE",
"354 0 LINE",
"833 0 LINE",
"843 189 LINE",
"832 191 OFFCURVE",
"821 192 OFFCURVE",
"810 192 CURVE SMOOTH",
"795 192 OFFCURVE",
"783 191 OFFCURVE",
"769 189 CURVE",
"759 135 OFFCURVE",
"743 93 OFFCURVE",
"722 62 CURVE",
"562 62 LINE",
"562 318 LINE",
"639 310 LINE SMOOTH",
"662 308 OFFCURVE",
"677 290 OFFCURVE",
"696 236 CURVE",
"748 236 LINE",
"748 443 LINE",
"696 443 LINE",
"686 404 OFFCURVE",
"664 378 OFFCURVE",
"640 376 CURVE SMOOTH",
"562 369 LINE",
"562 606 LINE",
"715 606 LINE",
"735 579 OFFCURVE",
"747 550 OFFCURVE",
"758 499 CURVE",
"769 497 OFFCURVE",
"780 495 OFFCURVE",
"790 495 CURVE SMOOTH",
"805 495 OFFCURVE",
"819 498 OFFCURVE",
"832 502 CURVE",
"828 667 LINE"
);
},
{
closed = 1;
nodes = (
"415 596 LINE",
"415 271 LINE",
"249 271 LINE"
);
}
);
width = 880;
}
);
unicode = 00C6;
},
{
glyphname = Hbar;
lastChange = "2019-08-19 16:07:20 +0000";
layers = (
{
components = (
{
name = H;
transform = "{1, 0, 0, 1, 2, 0}";
}
);
layerId = UUID0;
paths = (
{
closed = 1;
nodes = (
"653 498 LINE",
"31 498 LINE",
"31 454 LINE",
"653 454 LINE"
);
}
);
width = 691;
},
{
background = {
paths = (
{
closed = 1;
nodes = (
"33 443 LINE",
"94 443 LINE",
"94 71 LINE",
"76 53 OFFCURVE",
"63 46 OFFCURVE",
"37 41 CURVE",
"33 0 LINE",
"309 0 LINE",
"316 39 LINE",
"282 46 OFFCURVE",
"256 57 OFFCURVE",
"241 71 CURVE",
"241 310 LINE",
"470 310 LINE",
"470 71 LINE",
"452 53 OFFCURVE",
"439 46 OFFCURVE",
"413 41 CURVE",
"409 0 LINE",
"685 0 LINE",
"692 39 LINE",
"658 46 OFFCURVE",
"632 57 OFFCURVE",
"617 71 CURVE",
"617 443 LINE",
"677 443 LINE",
"677 511 LINE",
"617 511 LINE",
"617 596 LINE",
"633 610 OFFCURVE",
"653 620 OFFCURVE",
"678 628 CURVE",
"684 667 LINE",
"406 667 LINE",
"401 626 LINE",
"433 620 OFFCURVE",
"450 613 OFFCURVE",
"470 596 CURVE",
"470 511 LINE",
"241 511 LINE",
"241 596 LINE",
"261 613 OFFCURVE",
"278 620 OFFCURVE",
"310 626 CURVE",
"316 667 LINE",
"37 667 LINE",
"33 628 LINE",
"59 619 OFFCURVE",
"79 609 OFFCURVE",
"94 596 CURVE",
"94 511 LINE",
"33 511 LINE"
);
},
{
closed = 1;
nodes = (
"470 373 LINE",
"241 373 LINE",
"241 443 LINE",
"470 443 LINE"
);
}
);
};
components = (
{
name = H;
transform = "{1, 0, 0, 1, 2, 0}";
}
);
layerId = "0EBA3A65-8808-4583-9AA2-2A9BC4F414AB";
paths = (
{
closed = 1;
nodes = (
"677 442 LINE",
"677 510 LINE",
"33 510 LINE",
"33 442 LINE"
);
}
);
width = 727;
}
);
unicode = 0126;
},
{
glyphname = Oslash;
lastChange = "2019-08-19 16:07:20 +0000";
layers = (
{
anchors = (
{
name = bottom;
position = "{327, 0}";
},
{
name = top;
position = "{327, 695}";
}
);
layerId = UUID0;
paths = (
{
closed = 1;
nodes = (
"127 676 OFFCURVE",
"58 543 OFFCURVE",
"58 334 CURVE SMOOTH",
"58 228 OFFCURVE",
"75 142 OFFCURVE",
"120 82 CURVE",
"57 -4 LINE",
"64 -12 OFFCURVE",
"72 -21 OFFCURVE",
"83 -28 CURVE",
"90 -27 LINE",
"148 52 LINE",
"190 14 OFFCURVE",
"250 -7 OFFCURVE",
"332 -7 CURVE SMOOTH",
"536 -7 OFFCURVE",
"605 125 OFFCURVE",
"605 333 CURVE SMOOTH",
"605 441 OFFCURVE",
"586 530 OFFCURVE",
"540 590 CURVE",
"591 660 LINE",
"584 668 OFFCURVE",
"576 678 OFFCURVE",
"565 684 CURVE",
"558 684 LINE",
"511 620 LINE",
"468 656 OFFCURVE",
"410 676 OFFCURVE",
"332 676 CURVE SMOOTH",
"332 676 LINE"
);
},
{
closed = 1;
nodes = (
"263 42 OFFCURVE",
"221 71 OFFCURVE",
"195 117 CURVE",
"483 512 LINE",
"500 462 OFFCURVE",
"504 399 OFFCURVE",
"504 333 CURVE SMOOTH",
"504 180 OFFCURVE",
"482 42 OFFCURVE",
"332 42 CURVE SMOOTH",
"332 42 LINE"
);
},
{
closed = 1;
nodes = (
"159 488 OFFCURVE",
"182 626 OFFCURVE",
"332 626 CURVE SMOOTH",
"398 626 OFFCURVE",
"439 599 OFFCURVE",
"464 556 CURVE",
"177 161 LINE",
"162 211 OFFCURVE",
"159 271 OFFCURVE",
"159 334 CURVE SMOOTH",
"159 334 LINE"
);
}
);
width = 653;
},
{
anchors = (
{
name = bottom;
position = "{352, 0}";
},
{
name = top;
position = "{349, 695}";
}
);
layerId = "0EBA3A65-8808-4583-9AA2-2A9BC4F414AB";
paths = (
{
closed = 1;
nodes = (
"49 230 OFFCURVE",
"71 148 OFFCURVE",
"114 90 CURVE",
"53 7 LINE",
"117 -41 LINE",
"173 35 LINE",
"219 5 OFFCURVE",
"277 -10 OFFCURVE",
"348 -10 CURVE SMOOTH",
"547 -10 OFFCURVE",
"646 111 OFFCURVE",
"646 335 CURVE SMOOTH",
"646 442 OFFCURVE",
"623 525 OFFCURVE",
"577 583 CURVE",
"626 649 LINE",
"562 697 LINE",
"517 636 LINE",
"472 663 OFFCURVE",
"416 678 OFFCURVE",
"348 678 CURVE SMOOTH",
"150 678 OFFCURVE",
"49 558 OFFCURVE",
"49 335 CURVE SMOOTH",
"49 335 LINE"
);
},
{
closed = 1;
nodes = (
"480 131 OFFCURVE",
"442 48 OFFCURVE",
"348 48 CURVE SMOOTH",
"297 48 OFFCURVE",
"262 72 OFFCURVE",
"240 126 CURVE",
"475 444 LINE",
"478 412 OFFCURVE",
"480 376 OFFCURVE",
"480 335 CURVE SMOOTH",
"480 335 LINE"
);
},
{
closed = 1;
nodes = (
"214 537 OFFCURVE",
"253 620 OFFCURVE",
"348 620 CURVE SMOOTH",
"397 620 OFFCURVE",
"431 597 OFFCURVE",
"452 547 CURVE",
"218 231 LINE",
"215 261 OFFCURVE",
"214 296 OFFCURVE",
"214 335 CURVE SMOOTH",
"214 335 LINE"
);
}
);
width = 695;
}
);
unicode = 00D8;
},
{
glyphname = OE;
lastChange = "2019-08-19 16:07:20 +0000";
layers = (
{
anchors = (
{
name = bottom;
position = "{493, 0}";
},
{
name = top;
position = "{503, 695}";
}
);
layerId = UUID0;
paths = (
{
closed = 1;
nodes = (
"855 0 LINE",
"864 171 LINE",
"857 172 OFFCURVE",
"850 173 OFFCURVE",
"843 173 CURVE SMOOTH",
"836 173 OFFCURVE",
"830 172 OFFCURVE",
"824 171 CURVE",
"818 138 OFFCURVE",
"807 94 OFFCURVE",
"781 58 CURVE",
"572 58 LINE",
"572 323 LINE",
"679 312 LINE SMOOTH",
"718 308 OFFCURVE",
"728 273 OFFCURVE",
"735 248 CURVE SMOOTH",
"737 238 LINE",
"768 238 LINE",
"768 436 LINE",
"737 436 LINE",
"731 413 OFFCURVE",
"715 372 OFFCURVE",
"680 369 CURVE SMOOTH",
"572 359 LINE",
"572 614 LINE",
"757 614 LINE",
"781 583 OFFCURVE",
"792 543 OFFCURVE",
"799 512 CURVE",
"805 511 OFFCURVE",
"811 511 OFFCURVE",
"816 511 CURVE SMOOTH",
"826 511 OFFCURVE",
"835 512 OFFCURVE",
"841 515 CURVE",
"832 667 LINE",
"395 667 LINE",
"370 673 OFFCURVE",
"344 676 OFFCURVE",
"316 676 CURVE SMOOTH",
"126 676 OFFCURVE",
"43 556 OFFCURVE",
"43 334 CURVE SMOOTH",
"43 113 OFFCURVE",
"126 -7 OFFCURVE",
"316 -7 CURVE SMOOTH",
"343 -7 OFFCURVE",
"368 -4 OFFCURVE",
"392 0 CURVE",
"392 0 LINE"
);
},
{
closed = 1;
nodes = (
"143 493 OFFCURVE",
"164 626 OFFCURVE",
"316 626 CURVE SMOOTH",
"467 626 OFFCURVE",
"489 493 OFFCURVE",
"489 334 CURVE SMOOTH",
"489 176 OFFCURVE",
"467 42 OFFCURVE",
"316 42 CURVE SMOOTH",
"164 42 OFFCURVE",
"143 176 OFFCURVE",
"143 334 CURVE SMOOTH",
"143 334 LINE"
);
}
);
width = 929;
},
{
layerId = "0EBA3A65-8808-4583-9AA2-2A9BC4F414AB";
paths = (
{
closed = 1;
nodes = (
"426 667 LINE",
"398 674 OFFCURVE",
"366 678 OFFCURVE",
"331 678 CURVE SMOOTH",
"133 678 OFFCURVE",
"32 558 OFFCURVE",
"32 335 CURVE SMOOTH",
"32 111 OFFCURVE",
"133 -10 OFFCURVE",
"331 -10 CURVE SMOOTH",
"364 -10 OFFCURVE",
"395 -6 OFFCURVE",
"422 0 CURVE",
"914 0 LINE",
"924 189 LINE",
"913 191 OFFCURVE",
"902 192 OFFCURVE",
"891 192 CURVE SMOOTH",
"876 192 OFFCURVE",
"864 191 OFFCURVE",
"850 189 CURVE",
"840 135 OFFCURVE",
"824 93 OFFCURVE",
"803 62 CURVE",
"628 62 LINE",
"628 318 LINE",
"720 310 LINE SMOOTH",
"743 308 OFFCURVE",
"758 290 OFFCURVE",
"777 236 CURVE",
"829 236 LINE",
"829 443 LINE",
"777 443 LINE",
"767 404 OFFCURVE",
"745 378 OFFCURVE",
"721 376 CURVE SMOOTH",
"628 369 LINE",
"628 606 LINE",
"796 606 LINE",
"816 579 OFFCURVE",
"828 550 OFFCURVE",
"839 499 CURVE",
"850 497 OFFCURVE",
"861 495 OFFCURVE",
"871 495 CURVE SMOOTH",
"886 495 OFFCURVE",
"900 498 OFFCURVE",
"913 502 CURVE",
"909 667 LINE"
);
},
{
closed = 1;
nodes = (
"197 537 OFFCURVE",
"236 620 OFFCURVE",
"331 620 CURVE SMOOTH",
"425 620 OFFCURVE",
"463 537 OFFCURVE",
"463 335 CURVE SMOOTH",
"463 131 OFFCURVE",
"425 48 OFFCURVE",
"331 48 CURVE SMOOTH",
"236 48 OFFCURVE",
"197 131 OFFCURVE",
"197 335 CURVE SMOOTH",
"197 335 LINE"
);
}
);
width = 952;
}
);
unicode = 0152;
},
{
glyphname = Eng;
lastChange = "2019-08-19 16:07:20 +0000";
layers = (
{
layerId = UUID0;
paths = (
{
closed = 1;
nodes = (
"32 667 LINE",
"31 655 OFFCURVE",
"29 643 OFFCURVE",
"27 631 CURVE",
"61 627 OFFCURVE",
"96 619 OFFCURVE",
"125 604 CURVE",
"125 64 LINE",
"96 47 OFFCURVE",
"66 41 OFFCURVE",
"33 37 CURVE",
"27 0 LINE",
"281 0 LINE",
"285 37 LINE",
"253 41 OFFCURVE",
"216 48 OFFCURVE",
"188 64 CURVE",
"188 515 LINE",
"528 0 LINE",
"571 25 LINE",
"571 604 LINE",
"600 620 OFFCURVE",
"629 627 OFFCURVE",
"663 631 CURVE",
"664 643 OFFCURVE",
"666 655 OFFCURVE",
"668 667 CURVE",
"415 667 LINE",
"413 655 OFFCURVE",
"411 643 OFFCURVE",
"410 631 CURVE",
"442 627 OFFCURVE",
"479 619 OFFCURVE",
"506 604 CURVE",
"506 191 LINE",
"191 667 LINE"
);
},
{
closed = 1;
nodes = (
"506 -42 LINE SMOOTH",
"506 -78 OFFCURVE",
"498 -107 OFFCURVE",
"467 -107 CURVE SMOOTH",
"442 -107 OFFCURVE",
"430 -90 OFFCURVE",
"430 -71 CURVE SMOOTH",
"430 -58 OFFCURVE",
"436 -45 OFFCURVE",
"444 -38 CURVE",
"437 -25 OFFCURVE",
"422 -19 OFFCURVE",
"405 -19 CURVE SMOOTH",
"377 -19 OFFCURVE",
"358 -44 OFFCURVE",
"358 -73 CURVE SMOOTH",
"358 -127 OFFCURVE",
"404 -150 OFFCURVE",
"459 -150 CURVE SMOOTH",
"557 -150 OFFCURVE",
"571 -72 OFFCURVE",
"571 28 CURVE",
"506 41 LINE"
);
}
);
width = 681;
},
{
layerId = "0EBA3A65-8808-4583-9AA2-2A9BC4F414AB";
paths = (
{
closed = 1;
nodes = (
"444 667 LINE",
"439 626 LINE",
"471 620 OFFCURVE",
"488 613 OFFCURVE",
"508 596 CURVE",
"508 183 LINE",
"232 667 LINE",
"35 667 LINE",
"31 628 LINE",
"57 619 OFFCURVE",
"77 609 OFFCURVE",
"92 596 CURVE",
"92 71 LINE",
"74 53 OFFCURVE",
"61 46 OFFCURVE",
"35 41 CURVE",
"31 0 LINE",
"247 0 LINE",
"254 39 LINE",
"220 46 OFFCURVE",
"194 57 OFFCURVE",
"179 71 CURVE",
"179 460 LINE",
"443 0 LINE",
"482 0 LINE",
"486 -37 OFFCURVE",
"491 -62 OFFCURVE",
"491 -108 CURVE SMOOTH",
"491 -151 OFFCURVE",
"467 -169 OFFCURVE",
"445 -169 CURVE SMOOTH",
"421 -169 OFFCURVE",
"411 -152 OFFCURVE",
"411 -133 CURVE SMOOTH",
"411 -120 OFFCURVE",
"416 -106 OFFCURVE",
"425 -97 CURVE",
"414 -80 OFFCURVE",
"396 -72 OFFCURVE",
"379 -72 CURVE SMOOTH",
"342 -72 OFFCURVE",
"316 -97 OFFCURVE",
"316 -134 CURVE SMOOTH",
"316 -190 OFFCURVE",
"377 -218 OFFCURVE",
"440 -218 CURVE SMOOTH",
"491 -218 OFFCURVE",
"545 -200 OFFCURVE",
"569 -161 CURVE SMOOTH",
"590 -126 OFFCURVE",
"595 -80 OFFCURVE",
"595 -33 CURVE SMOOTH",
"595 596 LINE",
"611 610 OFFCURVE",
"631 620 OFFCURVE",
"656 628 CURVE",
"662 667 LINE"
);
}
);
width = 679;
}
);
unicode = 014A;
},
{
glyphname = Thorn;
lastChange = "2019-08-19 16:07:20 +0000";
layers = (
{
layerId = UUID0;
paths = (
{
closed = 1;
nodes = (
"235 155 LINE",
"268 155 LINE SMOOTH",
"426 155 OFFCURVE",
"530 196 OFFCURVE",
"530 341 CURVE SMOOTH",
"530 457 OFFCURVE",
"464 524 OFFCURVE",
"311 524 CURVE SMOOTH",
"235 524 LINE",
"235 476 LINE",
"252 479 OFFCURVE",
"274 482 OFFCURVE",
"311 482 CURVE SMOOTH",
"392 482 OFFCURVE",
"440 437 OFFCURVE",
"440 343 CURVE SMOOTH",
"440 242 OFFCURVE",
"373 200 OFFCURVE",
"268 200 CURVE SMOOTH",
"235 200 LINE"
);
},
{
closed = 1;
nodes = (
"327 0 LINE",
"332 37 LINE",
"299 41 OFFCURVE",
"264 47 OFFCURVE",
"235 64 CURVE",
"235 604 LINE",
"264 620 OFFCURVE",
"294 627 OFFCURVE",
"326 631 CURVE",
"328 643 OFFCURVE",
"330 655 OFFCURVE",
"331 667 CURVE",
"54 667 LINE",
"53 655 OFFCURVE",
"51 643 OFFCURVE",
"49 631 CURVE",
"83 627 OFFCURVE",
"118 619 OFFCURVE",
"147 604 CURVE",
"147 64 LINE",
"118 47 OFFCURVE",
"87 41 OFFCURVE",
"55 37 CURVE",
"49 0 LINE"
);
}
);
width = 574;
},
{
background = {
paths = (
{
closed = 1;
nodes = (
"323 39 LINE",
"288 46 OFFCURVE",
"262 57 OFFCURVE",
"248 71 CURVE",
"248 153 LINE",
"262 152 OFFCURVE",
"292 150 OFFCURVE",
"312 150 CURVE SMOOTH",
"489 150 OFFCURVE",
"587 221 OFFCURVE",
"587 351 CURVE SMOOTH",
"587 475 OFFCURVE",
"500 537 OFFCURVE",
"326 537 CURVE SMOOTH",
"244 537 LINE",
"244 596 LINE",
"264 613 OFFCURVE",
"281 620 OFFCURVE",
"313 626 CURVE",
"319 667 LINE",
"44 667 LINE",
"40 628 LINE",
"69 618 OFFCURVE",
"88 608 OFFCURVE",
"101 596 CURVE",
"101 71 LINE",
"83 53 OFFCURVE",
"69 46 OFFCURVE",
"44 41 CURVE",
"40 0 LINE",
"316 0 LINE"
);
},
{
closed = 1;
nodes = (
"432 259 OFFCURVE",
"391 213 OFFCURVE",
"313 213 CURVE SMOOTH",
"248 213 LINE",
"248 472 LINE",
"267 475 OFFCURVE",
"285 476 OFFCURVE",
"313 476 CURVE SMOOTH",
"388 476 OFFCURVE",
"432 430 OFFCURVE",
"432 349 CURVE SMOOTH"
);
}
);
};
layerId = "0EBA3A65-8808-4583-9AA2-2A9BC4F414AB";
paths = (
{
closed = 1;
nodes = (
"247 150 LINE",
"312 150 LINE",
"489 150 OFFCURVE",
"587 221 OFFCURVE",
"587 351 CURVE SMOOTH",
"587 475 OFFCURVE",
"500 537 OFFCURVE",
"326 537 CURVE SMOOTH",
"244 537 LINE",
"248 472 LINE",
"267 475 OFFCURVE",
"285 476 OFFCURVE",
"313 476 CURVE SMOOTH",
"388 476 OFFCURVE",
"432 430 OFFCURVE",
"432 349 CURVE SMOOTH",
"432 259 OFFCURVE",
"391 213 OFFCURVE",
"313 213 CURVE SMOOTH",
"248 213 LINE"
);
},
{
closed = 1;
nodes = (
"53 622 OFFCURVE",
"87 610 OFFCURVE",
"101 596 CURVE",
"101 71 LINE",
"82 55 OFFCURVE",
"61 46 OFFCURVE",
"29 41 CURVE",
"25 0 LINE",
"316 0 LINE",
"323 41 LINE",
"289 48 OFFCURVE",
"263 57 OFFCURVE",
"248 71 CURVE",
"248 596 LINE",
"268 613 OFFCURVE",
"285 620 OFFCURVE",
"317 626 CURVE",
"323 667 LINE",
"30 667 LINE",
"25 626 LINE"
);
}
);
width = 617;
}
);
unicode = 00DE;
},
{
glyphname = a;
lastChange = "2019-08-19 16:07:20 +0000";
layers = (
{
anchors = (
{
name = ogonek;
position = "{461, 0}";
},
{
name = top;
position = "{228, 505}";
}
);
layerId = UUID0;
paths = (
{
closed = 1;
nodes = (
"436 40 OFFCURVE",
"407 52 OFFCURVE",
"395 61 CURVE",
"395 340 LINE SMOOTH",
"395 426 OFFCURVE",
"330 476 OFFCURVE",
"221 476 CURVE SMOOTH",
"118 476 OFFCURVE",
"53 432 OFFCURVE",
"53 364 CURVE SMOOTH",
"53 329 OFFCURVE",
"76 306 OFFCURVE",
"111 306 CURVE SMOOTH",
"148 306 OFFCURVE",
"168 323 OFFCURVE",
"168 354 CURVE",
"149 361 OFFCURVE",
"138 374 OFFCURVE",
"138 391 CURVE SMOOTH",
"138 419 OFFCURVE",
"168 436 OFFCURVE",
"221 436 CURVE SMOOTH",
"283 436 OFFCURVE",
"310 407 OFFCURVE",
"310 340 CURVE SMOOTH",
"310 259 LINE",
"228 253 LINE SMOOTH",
"106 245 OFFCURVE",
"41 194 OFFCURVE",
"41 107 CURVE SMOOTH",
"41 35 OFFCURVE",
"89 -7 OFFCURVE",
"171 -7 CURVE SMOOTH",
"225 -7 OFFCURVE",
"269 4 OFFCURVE",
"313 45 CURVE",
"323 0 LINE",
"461 0 LINE",
"465 34 LINE"
);
},
{
closed = 1;
nodes = (
"129 169 OFFCURVE",
"167 206 OFFCURVE",
"230 211 CURVE SMOOTH",
"310 218 LINE",
"310 92 LINE",
"267 51 OFFCURVE",
"234 34 OFFCURVE",
"196 34 CURVE SMOOTH",
"151 34 OFFCURVE",
"129 62 OFFCURVE",
"129 116 CURVE SMOOTH",
"129 116 LINE"
);
}
);
width = 488;
},
{
anchors = (
{
name = ogonek;
position = "{511, 0}";
},
{
name = top;
position = "{263, 515}";
}
);
layerId = "0EBA3A65-8808-4583-9AA2-2A9BC4F414AB";
paths = (
{
closed = 1;
nodes = (
"489 40 OFFCURVE",
"464 52 OFFCURVE",
"455 62 CURVE",
"455 334 LINE SMOOTH",
"455 438 OFFCURVE",
"382 492 OFFCURVE",
"240 492 CURVE SMOOTH",
"122 492 OFFCURVE",
"50 449 OFFCURVE",
"50 378 CURVE SMOOTH",
"50 336 OFFCURVE",
"83 305 OFFCURVE",
"127 305 CURVE SMOOTH",
"163 305 OFFCURVE",
"190 327 OFFCURVE",
"197 360 CURVE",
"183 371 OFFCURVE",
"175 386 OFFCURVE",
"175 402 CURVE SMOOTH",
"175 431 OFFCURVE",
"203 453 OFFCURVE",
"240 453 CURVE SMOOTH",
"295 453 OFFCURVE",
"314 422 OFFCURVE",
"314 329 CURVE SMOOTH",
"314 271 LINE",
"226 265 LINE SMOOTH",
"96 256 OFFCURVE",
"29 205 OFFCURVE",
"29 118 CURVE SMOOTH",
"29 37 OFFCURVE",
"80 -7 OFFCURVE",
"172 -7 CURVE SMOOTH",
"230 -7 OFFCURVE",
"277 13 OFFCURVE",
"321 57 CURVE",
"331 0 LINE",
"511 0 LINE",
"515 35 LINE"
);
},
{
closed = 1;
nodes = (
"161 186 OFFCURVE",
"191 212 OFFCURVE",
"264 218 CURVE SMOOTH",
"314 222 LINE",
"314 113 LINE",
"281 74 OFFCURVE",
"251 58 OFFCURVE",
"221 58 CURVE SMOOTH",
"183 58 OFFCURVE",
"161 84 OFFCURVE",
"161 129 CURVE SMOOTH",
"161 129 LINE"
);
}
);
width = 535;
}
);
unicode = 0061;
},
{
glyphname = b;
lastChange = "2019-08-19 16:07:20 +0000";
layers = (
{
layerId = UUID0;
paths = (
{
closed = 1;
nodes = (
"76 631 OFFCURVE",
"94 617 OFFCURVE",
"94 567 CURVE SMOOTH",
"94 0 LINE",
"142 0 LINE",
"146 16 OFFCURVE",
"152 27 OFFCURVE",
"162 42 CURVE",
"190 16 OFFCURVE",
"229 -7 OFFCURVE",
"278 -7 CURVE SMOOTH",
"422 -7 OFFCURVE",
"494 98 OFFCURVE",
"494 237 CURVE SMOOTH",
"494 376 OFFCURVE",
"440 476 OFFCURVE",
"298 476 CURVE SMOOTH",
"248 476 OFFCURVE",
"200 444 OFFCURVE",
"180 406 CURVE",
"180 687 LINE",
"160 697 LINE",
"119 685 OFFCURVE",
"72 670 OFFCURVE",
"27 663 CURVE",
"24 633 LINE"
);
},
{
closed = 1;
nodes = (
"403 144 OFFCURVE",
"390 35 OFFCURVE",
"283 35 CURVE SMOOTH",
"240 35 OFFCURVE",
"206 62 OFFCURVE",
"180 85 CURVE",
"180 205 LINE SMOOTH",
"180 315 OFFCURVE",
"192 433 OFFCURVE",
"300 433 CURVE SMOOTH",
"394 433 OFFCURVE",
"403 339 OFFCURVE",
"403 237 CURVE SMOOTH",
"403 237 LINE"
);
}
);
width = 547;
},
{
layerId = "0EBA3A65-8808-4583-9AA2-2A9BC4F414AB";
paths = (
{
closed = 1;
nodes = (
"298 492 OFFCURVE",
"253 469 OFFCURVE",
"224 425 CURVE",
"224 687 LINE",
"207 697 LINE",
"168 686 OFFCURVE",
"66 671 OFFCURVE",
"23 663 CURVE",
"21 624 LINE",
"66 622 OFFCURVE",
"83 608 OFFCURVE",
"83 558 CURVE SMOOTH",
"83 0 LINE",
"158 0 LINE",
"184 25 LINE",
"224 3 OFFCURVE",
"269 -7 OFFCURVE",
"318 -7 CURVE SMOOTH",
"458 -7 OFFCURVE",
"544 83 OFFCURVE",
"544 258 CURVE SMOOTH",
"544 411 OFFCURVE",
"478 492 OFFCURVE",
"360 492 CURVE SMOOTH",
"360 492 LINE"
);
},
{
closed = 1;
nodes = (
"372 432 OFFCURVE",
"398 376 OFFCURVE",
"398 256 CURVE SMOOTH",
"398 121 OFFCURVE",
"365 46 OFFCURVE",
"290 46 CURVE SMOOTH",
"263 46 OFFCURVE",
"238 55 OFFCURVE",
"224 65 CURVE",
"224 268 LINE SMOOTH",
"224 377 OFFCURVE",
"259 432 OFFCURVE",
"315 432 CURVE SMOOTH",
"315 432 LINE"
);
}
);
width = 591;
}
);
unicode = 0062;
},
{
glyphname = c;
lastChange = "2019-08-19 16:07:20 +0000";
layers = (
{
anchors = (
{
name = cedilla;
position = "{251, 0}";
},
{
name = top;
position = "{226, 505}";
}
);
layerId = UUID0;
paths = (
{
closed = 1;
nodes = (
"42 82 OFFCURVE",
"97 -7 OFFCURVE",
"253 -7 CURVE SMOOTH",
"348 -7 OFFCURVE",
"411 59 OFFCURVE",
"411 59 CURVE",
"385 89 LINE",
"385 89 OFFCURVE",
"333 42 OFFCURVE",
"258 42 CURVE SMOOTH",
"147 42 OFFCURVE",
"135 126 OFFCURVE",
"135 238 CURVE SMOOTH",
"135 344 OFFCURVE",
"153 440 OFFCURVE",
"257 440 CURVE SMOOTH",
"294 440 OFFCURVE",
"319 417 OFFCURVE",
"319 383 CURVE SMOOTH",
"319 372 OFFCURVE",
"314 360 OFFCURVE",
"306 347 CURVE",
"312 326 OFFCURVE",
"333 311 OFFCURVE",
"358 311 CURVE SMOOTH",
"387 311 OFFCURVE",
"411 339 OFFCURVE",
"411 370 CURVE SMOOTH",
"411 433 OFFCURVE",
"349 476 OFFCURVE",
"257 476 CURVE SMOOTH",
"117 476 OFFCURVE",
"44 395 OFFCURVE",
"42 238 CURVE",
"42 238 LINE"
);
}
);
width = 441;
},
{
anchors = (
{
name = cedilla;
position = "{271, 0}";
},
{
name = top;
position = "{286, 515}";
}
);
layerId = "0EBA3A65-8808-4583-9AA2-2A9BC4F414AB";
paths = (
{
closed = 1;
nodes = (
"350 -7 OFFCURVE",
"419 21 OFFCURVE",
"464 68 CURVE",
"428 104 LINE",
"390 69 OFFCURVE",
"348 51 OFFCURVE",
"306 51 CURVE SMOOTH",
"223 51 OFFCURVE",
"191 106 OFFCURVE",
"191 248 CURVE SMOOTH",
"191 377 OFFCURVE",
"218 443 OFFCURVE",
"271 443 CURVE SMOOTH",
"299 443 OFFCURVE",
"320 425 OFFCURVE",
"320 400 CURVE SMOOTH",
"320 386 OFFCURVE",
"316 372 OFFCURVE",
"308 360 CURVE",
"316 336 OFFCURVE",
"345 318 OFFCURVE",
"376 318 CURVE SMOOTH",
"420 318 OFFCURVE",
"454 348 OFFCURVE",
"454 387 CURVE SMOOTH",
"454 447 OFFCURVE",
"383 489 OFFCURVE",
"280 489 CURVE SMOOTH",
"126 489 OFFCURVE",
"44 401 OFFCURVE",
"44 236 CURVE SMOOTH",
"44 77 OFFCURVE",
"125 -7 OFFCURVE",
"281 -7 CURVE SMOOTH",
"281 -7 LINE"
);
}
);
width = 469;
}
);
unicode = 0063;
},
{
glyphname = d;
lastChange = "2019-08-19 16:07:20 +0000";
layers = (
{
layerId = UUID0;
paths = (
{
closed = 1;
nodes = (
"296 -7 OFFCURVE",
"338 15 OFFCURVE",
"366 59 CURVE",
"374 0 LINE",
"518 0 LINE",
"521 34 LINE",
"492 40 OFFCURVE",
"468 49 OFFCURVE",
"452 61 CURVE",
"452 687 LINE",
"432 697 LINE",
"391 685 OFFCURVE",
"344 670 OFFCURVE",
"299 662 CURVE",
"297 633 LINE",
"348 631 OFFCURVE",
"366 617 OFFCURVE",
"366 567 CURVE SMOOTH",
"366 459 LINE",
"339 470 OFFCURVE",
"313 476 OFFCURVE",
"281 476 CURVE SMOOTH",
"135 476 OFFCURVE",
"55 388 OFFCURVE",
"55 224 CURVE SMOOTH",
"55 71 OFFCURVE",
"117 -7 OFFCURVE",
"238 -7 CURVE SMOOTH",
"238 -7 LINE"
);
},
{
closed = 1;
nodes = (
"176 36 OFFCURVE",
"143 95 OFFCURVE",
"143 224 CURVE SMOOTH",
"143 357 OFFCURVE",
"193 434 OFFCURVE",
"278 434 CURVE SMOOTH",
"323 434 OFFCURVE",
"347 424 OFFCURVE",
"366 414 CURVE",
"366 224 LINE SMOOTH",
"366 98 OFFCURVE",
"324 36 OFFCURVE",
"247 36 CURVE SMOOTH",
"247 36 LINE"
);
}
);
width = 555;
},
{
layerId = "0EBA3A65-8808-4583-9AA2-2A9BC4F414AB";
paths = (
{
closed = 1;
nodes = (
"540 40 OFFCURVE",
"516 52 OFFCURVE",
"505 62 CURVE",
"505 687 LINE",
"488 697 LINE",
"448 686 OFFCURVE",
"341 671 OFFCURVE",
"297 663 CURVE",
"294 624 LINE",
"346 622 OFFCURVE",
"364 608 OFFCURVE",
"364 558 CURVE SMOOTH",
"364 468 LINE",
"335 483 OFFCURVE",
"308 492 OFFCURVE",
"265 492 CURVE SMOOTH",
"125 492 OFFCURVE",
"44 401 OFFCURVE",
"44 229 CURVE SMOOTH",
"44 73 OFFCURVE",
"110 -7 OFFCURVE",
"228 -7 CURVE SMOOTH",
"293 -7 OFFCURVE",
"339 17 OFFCURVE",
"368 65 CURVE",
"381 0 LINE",
"561 0 LINE",
"565 35 LINE"
);
},
{
closed = 1;
nodes = (
"364 114 OFFCURVE",
"332 53 OFFCURVE",
"273 53 CURVE SMOOTH",
"216 53 OFFCURVE",
"190 109 OFFCURVE",
"190 229 CURVE SMOOTH",
"190 364 OFFCURVE",
"224 438 OFFCURVE",
"299 438 CURVE SMOOTH",
"325 438 OFFCURVE",
"350 429 OFFCURVE",
"364 419 CURVE",
"364 234 LINE"
);
}
);
width = 597;
}
);
unicode = 0064;
},
{
glyphname = e;
lastChange = "2019-08-19 16:07:20 +0000";
layers = (
{
anchors = (
{
name = ogonek;
position = "{374, 20}";
},
{
name = top;
position = "{255, 505}";
}
);
layerId = UUID0;
paths = (
{
closed = 1;
nodes = (
"451 270 LINE",
"447 396 OFFCURVE",
"409 476 OFFCURVE",
"269 476 CURVE SMOOTH",
"130 476 OFFCURVE",
"60 383 OFFCURVE",
"60 238 CURVE SMOOTH",
"60 82 OFFCURVE",
"114 -7 OFFCURVE",
"271 -7 CURVE SMOOTH",
"365 -7 OFFCURVE",
"428 59 OFFCURVE",
"428 59 CURVE",
"403 89 LINE",
"403 89 OFFCURVE",
"350 42 OFFCURVE",
"275 42 CURVE SMOOTH",
"163 42 OFFCURVE",
"152 126 OFFCURVE",
"152 238 CURVE SMOOTH",
"152 243 LINE",
"430 243 LINE"
);
},
{
closed = 1;
nodes = (
"341 436 OFFCURVE",
"361 387 OFFCURVE",
"361 287 CURVE SMOOTH",
"361 287 OFFCURVE",
"231 281 OFFCURVE",
"152 280 CURVE",
"154 371 OFFCURVE",
"185 436 OFFCURVE",
"265 436 CURVE SMOOTH",
"265 436 LINE"
);
}
);
width = 488;
},
{
anchors = (
{
name = ogonek;
position = "{414, 25}";
},
{
name = top;
position = "{290, 515}";
}
);
layerId = "0EBA3A65-8808-4583-9AA2-2A9BC4F414AB";
paths = (
{
closed = 1;
nodes = (
"489 413 OFFCURVE",
"442 492 OFFCURVE",
"284 492 CURVE SMOOTH",
"125 492 OFFCURVE",
"43 393 OFFCURVE",
"43 238 CURVE SMOOTH",
"43 91 OFFCURVE",
"116 -7 OFFCURVE",
"276 -7 CURVE SMOOTH",
"381 -7 OFFCURVE",
"432 32 OFFCURVE",
"478 78 CURVE",
"438 117 LINE",
"400 78 OFFCURVE",
"348 62 OFFCURVE",
"300 62 CURVE SMOOTH",
"207 62 OFFCURVE",
"186 123 OFFCURVE",
"186 227 CURVE SMOOTH",
"186 243 LINE",
"468 243 LINE",
"496 285 LINE"
);
},
{
closed = 1;
nodes = (
"338 443 OFFCURVE",
"354 393 OFFCURVE",
"354 291 CURVE SMOOTH",
"354 291 OFFCURVE",
"258 285 OFFCURVE",
"186 283 CURVE",
"188 376 OFFCURVE",
"212 443 OFFCURVE",
"280 443 CURVE SMOOTH",
"280 443 LINE"
);
}
);
width = 531;
}
);
unicode = 0065;
},
{
glyphname = f;
lastChange = "2019-08-19 16:07:20 +0000";
layers = (
{
layerId = UUID0;
paths = (
{
closed = 1;
nodes = (
"219 40 OFFCURVE",
"189 49 OFFCURVE",
"172 62 CURVE",
"172 417 LINE",
"276 417 LINE",
"276 470 LINE",
"172 470 LINE",
"172 507 OFFCURVE",
"160 555 OFFCURVE",
"160 590 CURVE SMOOTH",
"160 633 OFFCURVE",
"175 672 OFFCURVE",
"225 672 CURVE SMOOTH",
"257 672 OFFCURVE",
"275 655 OFFCURVE",
"275 635 CURVE SMOOTH",
"275 623 OFFCURVE",
"269 610 OFFCURVE",
"257 598 CURVE",
"261 573 OFFCURVE",
"281 560 OFFCURVE",
"302 560 CURVE SMOOTH",
"327 560 OFFCURVE",
"354 579 OFFCURVE",
"354 622 CURVE SMOOTH",
"354 676 OFFCURVE",
"296 709 OFFCURVE",
"232 709 CURVE SMOOTH",
"124 709 OFFCURVE",
"87 625 OFFCURVE",
"87 524 CURVE SMOOTH",
"87 470 LINE",
"59 458 OFFCURVE",
"31 454 OFFCURVE",
"8 452 CURVE",
"13 417 LINE",
"87 417 LINE",
"87 62 LINE",
"67 46 OFFCURVE",
"51 41 OFFCURVE",
"21 36 CURVE",
"17 0 LINE",
"245 0 LINE",
"248 34 LINE"
);
}
);
width = 303;
},
{
layerId = "0EBA3A65-8808-4583-9AA2-2A9BC4F414AB";
paths = (
{
closed = 1;
nodes = (
"281 40 OFFCURVE",
"247 49 OFFCURVE",
"228 62 CURVE",
"228 415 LINE",
"332 415 LINE",
"332 478 LINE",
"228 478 LINE",
"228 511 OFFCURVE",
"208 555 OFFCURVE",
"208 588 CURVE SMOOTH",
"208 627 OFFCURVE",
"221 670 OFFCURVE",
"266 670 CURVE SMOOTH",
"294 670 OFFCURVE",
"308 655 OFFCURVE",
"308 631 CURVE SMOOTH",
"308 617 OFFCURVE",
"301 602 OFFCURVE",
"288 591 CURVE",
"294 564 OFFCURVE",
"320 548 OFFCURVE",
"347 548 CURVE SMOOTH",
"378 548 OFFCURVE",
"410 568 OFFCURVE",
"410 615 CURVE SMOOTH",
"410 684 OFFCURVE",
"326 709 OFFCURVE",
"272 709 CURVE SMOOTH",
"159 709 OFFCURVE",
"87 628 OFFCURVE",
"87 522 CURVE SMOOTH",
"87 478 LINE",
"62 467 OFFCURVE",
"27 459 OFFCURVE",
"3 455 CURVE",
"8 415 LINE",
"87 415 LINE",
"87 62 LINE",
"67 46 OFFCURVE",
"51 41 OFFCURVE",
"21 36 CURVE",
"17 0 LINE",
"311 0 LINE",
"314 34 LINE"
);
}
);
width = 326;
}
);
unicode = 0066;
},
{
glyphname = g;
lastChange = "2019-08-19 16:07:20 +0000";
layers = (
{
anchors = (
{
name = top;
position = "{257, 505}";
}
);
layerId = UUID0;
paths = (
{
closed = 1;
nodes = (
"119 475 OFFCURVE",
"58 417 OFFCURVE",
"58 308 CURVE SMOOTH",
"58 228 OFFCURVE",
"103 172 OFFCURVE",
"182 153 CURVE",
"100 95 LINE",
"100 67 OFFCURVE",
"108 44 OFFCURVE",
"122 28 CURVE",
"69 -1 OFFCURVE",
"45 -22 OFFCURVE",
"45 -93 CURVE SMOOTH",
"45 -168 OFFCURVE",
"113 -219 OFFCURVE",
"258 -219 CURVE SMOOTH",
"403 -219 OFFCURVE",
"470 -168 OFFCURVE",
"470 -80 CURVE SMOOTH",
"470 -2 OFFCURVE",
"422 67 OFFCURVE",
"291 67 CURVE SMOOTH",
"249 67 LINE SMOOTH",
"201 68 OFFCURVE",
"188 76 OFFCURVE",
"185 95 CURVE",
"227 147 LINE",
"241 147 LINE SMOOTH",
"355 147 OFFCURVE",
"425 210 OFFCURVE",
"425 308 CURVE SMOOTH",
"425 356 OFFCURVE",
"413 395 OFFCURVE",
"388 423 CURVE",
"434 439 OFFCURVE",
"458 470 OFFCURVE",
"458 510 CURVE SMOOTH",
"458 540 OFFCURVE",
"438 560 OFFCURVE",
"408 560 CURVE SMOOTH",
"379 560 OFFCURVE",
"361 546 OFFCURVE",
"361 526 CURVE",
"378 518 OFFCURVE",
"389 504 OFFCURVE",
"389 490 CURVE SMOOTH",
"389 471 OFFCURVE",
"376 458 OFFCURVE",
"353 451 CURVE",
"324 467 OFFCURVE",
"287 475 OFFCURVE",
"241 475 CURVE SMOOTH",
"241 475 LINE"
);
},
{
closed = 1;
nodes = (
"175 188 OFFCURVE",
"148 225 OFFCURVE",
"148 311 CURVE SMOOTH",
"148 398 OFFCURVE",
"176 435 OFFCURVE",
"241 435 CURVE SMOOTH",
"306 435 OFFCURVE",
"334 398 OFFCURVE",
"334 311 CURVE SMOOTH",
"334 225 OFFCURVE",
"307 188 OFFCURVE",
"241 188 CURVE SMOOTH",
"241 188 LINE"
);
},
{
closed = 1;
nodes = (
"337 -1 OFFCURVE",
"378 -23 OFFCURVE",
"378 -80 CURVE SMOOTH",
"378 -147 OFFCURVE",
"336 -178 OFFCURVE",
"258 -178 CURVE SMOOTH",
"180 -178 OFFCURVE",
"137 -146 OFFCURVE",
"137 -80 CURVE SMOOTH",
"137 -47 OFFCURVE",
"153 -20 OFFCURVE",
"182 -1 CURVE",
"267 -1 LINE"
);
}
);
width = 494;
},
{
anchors = (
{
name = top;
position = "{257, 515}";
}
);
layerId = "0EBA3A65-8808-4583-9AA2-2A9BC4F414AB";
paths = (
{
closed = 1;
nodes = (
"120 492 OFFCURVE",
"44 427 OFFCURVE",
"44 315 CURVE SMOOTH",
"44 236 OFFCURVE",
"92 178 OFFCURVE",
"173 156 CURVE",
"86 95 LINE",
"86 71 OFFCURVE",
"91 51 OFFCURVE",
"101 35 CURVE",
"47 -1 OFFCURVE",
"23 -41 OFFCURVE",
"23 -93 CURVE SMOOTH",
"23 -174 OFFCURVE",
"112 -219 OFFCURVE",
"269 -219 CURVE SMOOTH",
"421 -219 OFFCURVE",
"505 -165 OFFCURVE",
"505 -67 CURVE SMOOTH",
"505 32 OFFCURVE",
"434 84 OFFCURVE",
"302 84 CURVE SMOOTH",
"260 84 LINE SMOOTH",
"220 84 OFFCURVE",
"204 89 OFFCURVE",
"202 104 CURVE",
"236 147 LINE",
"252 147 LINE SMOOTH",
"378 147 OFFCURVE",
"459 212 OFFCURVE",
"459 315 CURVE SMOOTH",
"459 361 OFFCURVE",
"446 399 OFFCURVE",
"422 428 CURVE",
"457 445 OFFCURVE",
"483 482 OFFCURVE",
"483 515 CURVE SMOOTH",
"483 546 OFFCURVE",
"461 567 OFFCURVE",
"427 567 CURVE SMOOTH",
"396 567 OFFCURVE",
"371 550 OFFCURVE",
"371 529 CURVE",
"389 520 OFFCURVE",
"399 507 OFFCURVE",
"399 491 CURVE SMOOTH",
"399 478 OFFCURVE",
"394 467 OFFCURVE",
"385 459 CURVE",
"351 480 OFFCURVE",
"306 492 OFFCURVE",
"252 492 CURVE SMOOTH",
"252 492 LINE"
);
},
{
closed = 1;
nodes = (
"352 0 OFFCURVE",
"389 -26 OFFCURVE",
"389 -78 CURVE SMOOTH",
"389 -136 OFFCURVE",
"351 -163 OFFCURVE",
"269 -163 CURVE SMOOTH",
"189 -163 OFFCURVE",
"153 -137 OFFCURVE",
"153 -78 CURVE SMOOTH",
"153 -50 OFFCURVE",
"163 -24 OFFCURVE",
"181 -6 CURVE SMOOTH",
"187 0 LINE",
"278 0 LINE"
);
},
{
closed = 1;
nodes = (
"198 196 OFFCURVE",
"185 220 OFFCURVE",
"185 315 CURVE SMOOTH",
"185 405 OFFCURVE",
"205 442 OFFCURVE",
"252 442 CURVE SMOOTH",
"304 442 OFFCURVE",
"326 404 OFFCURVE",
"326 315 CURVE SMOOTH",
"326 225 OFFCURVE",
"308 196 OFFCURVE",
"252 196 CURVE SMOOTH",
"252 196 LINE"
);
}
);
width = 520;
}
);
unicode = 0067;
},
{
glyphname = h;
lastChange = "2019-08-19 16:07:20 +0000";
layers = (
{
anchors = (
{
name = top;
position = "{281, 722}";
}
);
layerId = UUID0;
paths = (
{
closed = 1;
nodes = (
"220 40 OFFCURVE",
"196 49 OFFCURVE",
"179 62 CURVE",
"179 344 LINE",
"200 394 OFFCURVE",
"246 428 OFFCURVE",
"292 428 CURVE SMOOTH",
"348 428 OFFCURVE",
"377 396 OFFCURVE",
"377 329 CURVE SMOOTH",
"377 62 LINE",
"358 47 OFFCURVE",
"336 38 OFFCURVE",
"311 34 CURVE",
"308 0 LINE",
"528 0 LINE",
"532 34 LINE",
"503 40 OFFCURVE",
"474 52 OFFCURVE",
"462 62 CURVE",
"462 338 LINE SMOOTH",
"462 425 OFFCURVE",
"405 476 OFFCURVE",
"308 476 CURVE SMOOTH",
"258 476 OFFCURVE",
"211 449 OFFCURVE",
"179 408 CURVE",
"179 687 LINE",
"160 697 LINE",
"119 685 OFFCURVE",
"72 670 OFFCURVE",
"27 663 CURVE",
"24 633 LINE",
"75 631 OFFCURVE",
"94 617 OFFCURVE",
"94 567 CURVE SMOOTH",
"94 62 LINE",
"74 46 OFFCURVE",
"58 41 OFFCURVE",
"28 37 CURVE",
"24 0 LINE",
"245 0 LINE",
"249 35 LINE"
);
}
);
width = 552;
},
{
anchors = (
{
name = top;
position = "{283, 715}";
}
);
layerId = "0EBA3A65-8808-4583-9AA2-2A9BC4F414AB";
paths = (
{
closed = 1;
nodes = (
"260 46 OFFCURVE",
"239 55 OFFCURVE",
"225 67 CURVE",
"225 371 LINE",
"245 404 OFFCURVE",
"279 425 OFFCURVE",
"313 425 CURVE SMOOTH",
"355 425 OFFCURVE",
"375 394 OFFCURVE",
"375 329 CURVE SMOOTH",
"375 66 LINE",
"362 52 OFFCURVE",
"345 43 OFFCURVE",
"326 39 CURVE",
"323 0 LINE",
"577 0 LINE",
"580 39 LINE",
"551 45 OFFCURVE",
"528 57 OFFCURVE",
"517 66 CURVE",
"517 338 LINE SMOOTH",
"517 435 OFFCURVE",
"457 492 OFFCURVE",
"367 492 CURVE SMOOTH",
"309 492 OFFCURVE",
"259 467 OFFCURVE",
"225 429 CURVE",
"225 688 LINE",
"207 698 LINE",
"169 687 OFFCURVE",
"66 672 OFFCURVE",
"24 664 CURVE",
"21 625 LINE",
"67 623 OFFCURVE",
"83 609 OFFCURVE",
"83 559 CURVE SMOOTH",
"83 67 LINE",
"67 52 OFFCURVE",
"55 47 OFFCURVE",
"31 42 CURVE",
"27 1 LINE",
"281 1 LINE",
"285 40 LINE"
);
}
);
width = 597;
}
);
unicode = 0068;
},
{
glyphname = i;
lastChange = "2019-08-19 16:07:20 +0000";
layers = (
{
anchors = (
{
name = ogonek;
position = "{255, 0}";
}
);
components = (
{
name = dotaccent;
transform = "{1, 0, 0, 1, 79, -9}";
}
);
layerId = UUID0;
paths = (
{
closed = 1;
nodes = (
"83 46 OFFCURVE",
"67 41 OFFCURVE",
"38 36 CURVE",
"34 0 LINE",
"255 0 LINE",
"259 34 LINE",
"230 40 OFFCURVE",
"206 49 OFFCURVE",
"189 61 CURVE",
"189 468 LINE",
"169 479 LINE",
"129 467 OFFCURVE",
"82 452 OFFCURVE",
"37 444 CURVE",
"34 415 LINE",
"85 413 OFFCURVE",
"104 399 OFFCURVE",
"104 349 CURVE SMOOTH",
"104 61 LINE"
);
}
);
width = 278;
},
{
anchors = (
{
name = ogonek;
position = "{225, 0}";
}
);
background = {
paths = (
{
closed = 1;
nodes = (
"219 550 OFFCURVE",
"245 576 OFFCURVE",
"245 620 CURVE SMOOTH",
"245 665 OFFCURVE",
"219 690 OFFCURVE",
"166 690 CURVE SMOOTH",
"112 690 OFFCURVE",
"86 665 OFFCURVE",
"86 620 CURVE SMOOTH",
"86 576 OFFCURVE",
"112 550 OFFCURVE",
"166 550 CURVE SMOOTH"
);
}
);
};
components = (
{
name = dotaccent;
transform = "{1, 0, 0, 1, 56, 12}";
}
);
layerId = "0EBA3A65-8808-4583-9AA2-2A9BC4F414AB";
paths = (
{
closed = 1;
nodes = (
"269 45 OFFCURVE",
"246 57 OFFCURVE",
"234 66 CURVE",
"234 483 LINE",
"217 492 LINE",
"179 481 OFFCURVE",
"76 466 OFFCURVE",
"34 458 CURVE",
"31 419 LINE",
"77 417 OFFCURVE",
"93 403 OFFCURVE",
"93 354 CURVE SMOOTH",
"93 66 LINE",
"77 51 OFFCURVE",
"65 46 OFFCURVE",
"41 41 CURVE",
"37 0 LINE",
"294 0 LINE",
"298 39 LINE"
);
}
);
width = 314;
}
);
unicode = 0069;
},
{
glyphname = j;
lastChange = "2019-08-19 16:07:20 +0000";
layers = (
{
anchors = (
{
name = top;
position = "{81, 505}";
}
);
components = (
{
name = dotlessj;
},
{
name = dotaccent;
transform = "{1, 0, 0, 1, 80, -9}";
}
);
layerId = UUID0;
width = 266;
},
{
layerId = "0EBA3A65-8808-4583-9AA2-2A9BC4F414AB";
paths = (
{
closed = 1;
nodes = (
"70 417 OFFCURVE",
"86 403 OFFCURVE",
"86 354 CURVE SMOOTH",
"86 62 LINE SMOOTH",
"86 -18 OFFCURVE",
"98 -41 OFFCURVE",
"98 -108 CURVE SMOOTH",
"98 -141 OFFCURVE",
"85 -168 OFFCURVE",
"66 -168 CURVE SMOOTH",
"51 -168 OFFCURVE",
"42 -153 OFFCURVE",
"42 -137 CURVE SMOOTH",
"42 -121 OFFCURVE",
"48 -106 OFFCURVE",
"57 -97 CURVE",
"46 -80 OFFCURVE",
"28 -72 OFFCURVE",
"11 -72 CURVE SMOOTH",
"-26 -72 OFFCURVE",
"-52 -97 OFFCURVE",
"-52 -134 CURVE SMOOTH",
"-52 -190 OFFCURVE",
"9 -218 OFFCURVE",
"72 -218 CURVE SMOOTH",
"123 -218 OFFCURVE",
"177 -200 OFFCURVE",
"201 -161 CURVE SMOOTH",
"222 -126 OFFCURVE",
"227 -80 OFFCURVE",
"227 -33 CURVE SMOOTH",
"227 483 LINE",
"210 492 LINE",
"172 481 OFFCURVE",
"69 466 OFFCURVE",
"27 458 CURVE",
"24 419 LINE"
);
},
{
closed = 1;
nodes = (
"212 550 OFFCURVE",
"238 576 OFFCURVE",
"238 620 CURVE SMOOTH",
"238 665 OFFCURVE",
"212 690 OFFCURVE",
"159 690 CURVE SMOOTH",
"105 690 OFFCURVE",
"79 665 OFFCURVE",
"79 620 CURVE SMOOTH",
"79 576 OFFCURVE",
"105 550 OFFCURVE",
"159 550 CURVE SMOOTH",
"159 550 LINE"
);
}
);
width = 302;
}
);
unicode = 006A;
},
{
glyphname = k;
lastChange = "2019-08-19 16:07:20 +0000";
layers = (
{
anchors = (
{
name = bottom;
position = "{274, 0}";
}
);
layerId = UUID0;
paths = (
{
closed = 1;
nodes = (
"489 40 OFFCURVE",
"456 50 OFFCURVE",
"433 63 CURVE",
"283 302 LINE",
"375 394 LINE SMOOTH",
"406 424 OFFCURVE",
"444 435 OFFCURVE",
"485 437 CURVE",
"482 467 LINE",
"349 467 LINE",
"346 454 OFFCURVE",
"339 435 OFFCURVE",
"316 411 CURVE SMOOTH",
"179 273 LINE",
"179 687 LINE",
"160 697 LINE",
"119 685 OFFCURVE",
"72 670 OFFCURVE",
"27 663 CURVE",
"24 633 LINE",
"75 631 OFFCURVE",
"94 617 OFFCURVE",
"94 567 CURVE SMOOTH",
"94 62 LINE",
"74 46 OFFCURVE",
"58 41 OFFCURVE",
"28 37 CURVE",
"24 0 LINE",
"245 0 LINE",
"249 35 LINE",
"220 40 OFFCURVE",
"196 49 OFFCURVE",
"179 62 CURVE",
"179 199 LINE",
"225 244 LINE",
"378 0 LINE",
"521 0 LINE",
"525 35 LINE"
);
}
);
width = 524;
},
{
anchors = (
{
name = bottom;
position = "{304, 0}";
}
);
layerId = "0EBA3A65-8808-4583-9AA2-2A9BC4F414AB";
paths = (
{
closed = 1;
nodes = (
"73 622 OFFCURVE",
"89 608 OFFCURVE",
"89 558 CURVE SMOOTH",
"89 66 LINE",
"74 51 OFFCURVE",
"61 46 OFFCURVE",
"37 41 CURVE",
"33 0 LINE",
"291 0 LINE",
"294 39 LINE",
"265 45 OFFCURVE",
"242 57 OFFCURVE",
"231 66 CURVE",
"231 165 LINE",
"285 219 LINE",
"387 58 LINE SMOOTH",
"399 38 OFFCURVE",
"404 23 OFFCURVE",
"405 0 CURVE",
"593 0 LINE",
"600 41 LINE",
"570 47 OFFCURVE",
"547 59 OFFCURVE",
"529 76 CURVE",
"378 312 LINE",
"473 406 LINE",
"501 438 OFFCURVE",
"541 444 OFFCURVE",
"561 445 CURVE",
"569 484 LINE",
"336 484 LINE",
"328 445 LINE",
"350 445 OFFCURVE",
"379 439 OFFCURVE",
"379 416 CURVE SMOOTH",
"379 410 OFFCURVE",
"376 404 OFFCURVE",
"371 398 CURVE",
"231 263 LINE",
"231 687 LINE",
"213 697 LINE",
"175 686 OFFCURVE",
"72 671 OFFCURVE",
"30 663 CURVE",
"27 624 LINE"
);
}
);
width = 592;
}
);
unicode = 006B;
},
{
glyphname = l;
lastChange = "2019-08-19 16:07:20 +0000";
layers = (
{
anchors = (
{
name = bottom;
position = "{135, 0}";
},
{
name = top;
position = "{135, 715}";
}
);
layerId = UUID0;
paths = (
{
closed = 1;
nodes = (
"219 40 OFFCURVE",
"195 49 OFFCURVE",
"178 62 CURVE",
"178 687 LINE",
"159 697 LINE",
"118 685 OFFCURVE",
"71 670 OFFCURVE",
"26 663 CURVE",
"23 633 LINE",
"75 631 OFFCURVE",
"93 617 OFFCURVE",
"93 567 CURVE SMOOTH",
"93 62 LINE",
"73 46 OFFCURVE",
"57 41 OFFCURVE",
"27 37 CURVE",
"23 0 LINE",
"244 0 LINE",
"248 35 LINE"
);
}
);
width = 271;
},
{
anchors = (
{
name = bottom;
position = "{160, 0}";
},
{
name = top;
position = "{150, 715}";
}
);
layerId = "0EBA3A65-8808-4583-9AA2-2A9BC4F414AB";
paths = (
{
closed = 1;
nodes = (
"259 45 OFFCURVE",
"236 57 OFFCURVE",
"225 66 CURVE",
"225 687 LINE",
"207 697 LINE",
"169 686 OFFCURVE",
"66 671 OFFCURVE",
"24 663 CURVE",
"21 624 LINE",
"67 622 OFFCURVE",
"83 608 OFFCURVE",
"83 558 CURVE SMOOTH",
"83 66 LINE",
"67 51 OFFCURVE",
"55 46 OFFCURVE",
"31 41 CURVE",
"27 0 LINE",
"285 0 LINE",
"288 39 LINE"
);
}
);
width = 308;
}
);
unicode = 006C;
},
{
glyphname = m;
lastChange = "2019-08-19 16:07:20 +0000";
layers = (
{
layerId = UUID0;
paths = (
{
closed = 1;
nodes = (
"240 40 OFFCURVE",
"216 49 OFFCURVE",
"200 62 CURVE",
"200 350 LINE",
"212 385 OFFCURVE",
"257 428 OFFCURVE",
"307 428 CURVE SMOOTH",
"359 428 OFFCURVE",
"386 398 OFFCURVE",
"386 329 CURVE SMOOTH",
"386 62 LINE",
"367 47 OFFCURVE",
"345 38 OFFCURVE",
"320 34 CURVE",
"317 0 LINE",
"537 0 LINE",
"541 34 LINE",
"512 40 OFFCURVE",
"483 52 OFFCURVE",
"471 62 CURVE",
"471 361 LINE",
"488 393 OFFCURVE",
"528 428 OFFCURVE",
"573 428 CURVE SMOOTH",
"626 428 OFFCURVE",
"652 398 OFFCURVE",
"652 329 CURVE SMOOTH",
"652 62 LINE",
"633 47 OFFCURVE",
"611 38 OFFCURVE",
"586 34 CURVE",
"584 0 LINE",
"803 0 LINE",
"807 34 LINE",
"778 40 OFFCURVE",
"750 52 OFFCURVE",
"737 62 CURVE",
"737 326 LINE SMOOTH",
"737 436 OFFCURVE",
"664 476 OFFCURVE",
"582 476 CURVE SMOOTH",
"526 476 OFFCURVE",
"483 445 OFFCURVE",
"449 414 CURVE",
"422 456 OFFCURVE",
"378 476 OFFCURVE",
"317 476 CURVE SMOOTH",
"248 476 OFFCURVE",
"202 423 OFFCURVE",
"195 415 CURVE",
"188 467 LINE",
"170 476 LINE",
"132 465 OFFCURVE",
"90 450 OFFCURVE",
"47 442 CURVE",
"44 413 LINE",
"96 411 OFFCURVE",
"114 397 OFFCURVE",
"114 347 CURVE SMOOTH",
"114 62 LINE",
"94 46 OFFCURVE",
"78 41 OFFCURVE",
"48 36 CURVE",
"44 0 LINE",
"265 0 LINE",
"269 34 LINE"
);
}
);
width = 832;
},
{
layerId = "0EBA3A65-8808-4583-9AA2-2A9BC4F414AB";
paths = (
{
closed = 1;
nodes = (
"555 45 OFFCURVE",
"535 54 OFFCURVE",
"520 66 CURVE",
"520 338 LINE SMOOTH",
"520 347 OFFCURVE",
"519 356 OFFCURVE",
"518 365 CURVE",
"536 401 OFFCURVE",
"572 425 OFFCURVE",
"608 425 CURVE SMOOTH",
"649 425 OFFCURVE",
"669 394 OFFCURVE",
"669 329 CURVE SMOOTH",
"669 66 LINE",
"655 52 OFFCURVE",
"638 43 OFFCURVE",
"620 39 CURVE",
"617 0 LINE",
"870 0 LINE",
"874 39 LINE",
"845 45 OFFCURVE",
"822 57 OFFCURVE",
"810 66 CURVE",
"810 338 LINE SMOOTH",
"810 435 OFFCURVE",
"750 492 OFFCURVE",
"660 492 CURVE SMOOTH",
"593 492 OFFCURVE",
"539 460 OFFCURVE",
"506 410 CURVE",
"483 462 OFFCURVE",
"434 492 OFFCURVE",
"370 492 CURVE SMOOTH",
"310 492 OFFCURVE",
"261 466 OFFCURVE",
"227 425 CURVE",
"219 483 LINE",
"201 492 LINE",
"163 481 OFFCURVE",
"73 466 OFFCURVE",
"30 458 CURVE",
"27 419 LINE",
"73 417 OFFCURVE",
"90 403 OFFCURVE",
"90 354 CURVE SMOOTH",
"90 66 LINE",
"73 51 OFFCURVE",
"62 46 OFFCURVE",
"37 41 CURVE",
"34 0 LINE",
"287 0 LINE",
"291 39 LINE",
"266 45 OFFCURVE",
"246 54 OFFCURVE",
"231 66 CURVE",
"231 370 LINE",
"250 403 OFFCURVE",
"284 425 OFFCURVE",
"318 425 CURVE SMOOTH",
"359 425 OFFCURVE",
"379 394 OFFCURVE",
"379 329 CURVE SMOOTH",
"379 66 LINE",
"365 52 OFFCURVE",
"348 43 OFFCURVE",
"330 39 CURVE",
"327 0 LINE",
"576 0 LINE",
"580 39 LINE"
);
}
);
width = 890;
}
);
unicode = 006D;
},
{
glyphname = n;
lastChange = "2019-08-19 16:07:20 +0000";
layers = (
{
anchors = (
{
name = bottom;
position = "{284, 0}";
},
{
name = top;
position = "{284, 505}";
}
);
layerId = UUID0;
paths = (
{
closed = 1;
nodes = (
"509 40 OFFCURVE",
"480 52 OFFCURVE",
"468 62 CURVE",
"468 338 LINE SMOOTH",
"468 425 OFFCURVE",
"411 476 OFFCURVE",
"314 476 CURVE SMOOTH",
"263 476 OFFCURVE",
"213 448 OFFCURVE",
"182 405 CURVE",
"173 467 LINE",
"155 476 LINE",
"117 465 OFFCURVE",
"76 450 OFFCURVE",
"33 442 CURVE",
"30 413 LINE",
"81 411 OFFCURVE",
"100 397 OFFCURVE",
"100 347 CURVE SMOOTH",
"100 62 LINE",
"80 46 OFFCURVE",
"63 41 OFFCURVE",
"34 36 CURVE",
"30 0 LINE",
"251 0 LINE",
"255 34 LINE",
"226 40 OFFCURVE",
"202 49 OFFCURVE",
"185 62 CURVE",
"185 344 LINE",
"206 394 OFFCURVE",
"252 428 OFFCURVE",
"297 428 CURVE SMOOTH",
"354 428 OFFCURVE",
"383 396 OFFCURVE",
"383 329 CURVE SMOOTH",
"383 62 LINE",
"364 47 OFFCURVE",
"342 38 OFFCURVE",
"317 34 CURVE",
"314 0 LINE",
"534 0 LINE",
"538 34 LINE"
);
}
);
width = 558;
},
{
anchors = (
{
name = bottom;
position = "{314, 0}";
},
{
name = top;
position = "{319, 515}";
}
);
layerId = "0EBA3A65-8808-4583-9AA2-2A9BC4F414AB";
paths = (
{
closed = 1;
nodes = (
"558 45 OFFCURVE",
"535 57 OFFCURVE",
"523 66 CURVE",
"523 338 LINE SMOOTH",
"523 435 OFFCURVE",
"463 492 OFFCURVE",
"374 492 CURVE SMOOTH",
"313 492 OFFCURVE",
"262 466 OFFCURVE",
"227 425 CURVE",
"219 483 LINE",
"201 492 LINE",
"163 481 OFFCURVE",
"73 466 OFFCURVE",
"30 458 CURVE",
"27 419 LINE",
"73 417 OFFCURVE",
"90 403 OFFCURVE",
"90 354 CURVE SMOOTH",
"90 66 LINE",
"73 51 OFFCURVE",
"62 46 OFFCURVE",
"37 41 CURVE",
"34 0 LINE",
"287 0 LINE",
"291 39 LINE",
"266 45 OFFCURVE",
"246 54 OFFCURVE",
"231 66 CURVE",
"231 370 LINE",
"250 403 OFFCURVE",
"286 425 OFFCURVE",
"320 425 CURVE SMOOTH",
"362 425 OFFCURVE",
"382 394 OFFCURVE",
"382 329 CURVE SMOOTH",
"382 66 LINE",
"369 52 OFFCURVE",
"352 43 OFFCURVE",
"333 39 CURVE",
"330 0 LINE",
"583 0 LINE",
"587 39 LINE"
);
}
);
width = 604;
}
);
unicode = 006E;
},
{
glyphname = o;
lastChange = "2019-08-19 16:35:00 +0000";
layers = (
{
anchors = (
{
name = top;
position = "{265, 505}";
}
);
layerId = UUID0;
paths = (
{
closed = 1;
nodes = (
"143 374 OFFCURVE",
"178 430 OFFCURVE",
"265 430 CURVE SMOOTH",
"352 430 OFFCURVE",
"389 374 OFFCURVE",
"389 235 CURVE SMOOTH",
"389 96 OFFCURVE",
"352 39 OFFCURVE",
"265 39 CURVE SMOOTH",
"178 39 OFFCURVE",
"143 96 OFFCURVE",
"143 235 CURVE SMOOTH",
"143 235 LINE"
);
},
{
closed = 1;
nodes = (
"53 78 OFFCURVE",
"125 -7 OFFCURVE",
"265 -7 CURVE SMOOTH",
"406 -7 OFFCURVE",
"477 78 OFFCURVE",
"477 235 CURVE SMOOTH",
"477 392 OFFCURVE",
"406 476 OFFCURVE",
"265 476 CURVE SMOOTH",
"125 476 OFFCURVE",
"53 392 OFFCURVE",
"53 235 CURVE SMOOTH",
"53 235 LINE"
);
}
);
width = 531;
},
{
anchors = (
{
name = top;
position = "{285, 515}";
}
);
layerId = "0EBA3A65-8808-4583-9AA2-2A9BC4F414AB";
paths = (
{
closed = 1;
nodes = (
"191 380 OFFCURVE",
"218 436 OFFCURVE",
"285 436 CURVE SMOOTH",
"351 436 OFFCURVE",
"378 380 OFFCURVE",
"378 243 CURVE SMOOTH",
"378 105 OFFCURVE",
"351 49 OFFCURVE",
"285 49 CURVE SMOOTH",
"218 49 OFFCURVE",
"191 105 OFFCURVE",
"191 243 CURVE SMOOTH",
"191 243 LINE"
);
},
{
closed = 1;
nodes = (
"44 81 OFFCURVE",
"125 -7 OFFCURVE",
"285 -7 CURVE SMOOTH",
"445 -7 OFFCURVE",
"525 81 OFFCURVE",
"525 243 CURVE SMOOTH",
"525 405 OFFCURVE",
"445 492 OFFCURVE",
"285 492 CURVE SMOOTH",
"125 492 OFFCURVE",
"44 405 OFFCURVE",
"44 243 CURVE SMOOTH",
"44 243 LINE"
);
}
);
width = 569;
}
);
unicode = 006F;
},
{
glyphname = p;
lastChange = "2019-08-19 16:07:20 +0000";
layers = (
{
layerId = UUID0;
paths = (
{
closed = 1;
nodes = (
"231 -171 OFFCURVE",
"208 -162 OFFCURVE",
"191 -149 CURVE",
"191 9 LINE",
"217 -2 OFFCURVE",
"243 -7 OFFCURVE",
"276 -7 CURVE SMOOTH",
"422 -7 OFFCURVE",
"502 81 OFFCURVE",
"502 244 CURVE SMOOTH",
"502 398 OFFCURVE",
"440 476 OFFCURVE",
"319 476 CURVE SMOOTH",
"259 476 OFFCURVE",
"215 452 OFFCURVE",
"188 406 CURVE",
"179 467 LINE",
"161 477 LINE",
"123 466 OFFCURVE",
"82 451 OFFCURVE",
"39 443 CURVE",
"36 414 LINE",
"87 412 OFFCURVE",
"105 398 OFFCURVE",
"105 348 CURVE SMOOTH",
"105 -149 LINE",
"85 -164 OFFCURVE",
"69 -170 OFFCURVE",
"40 -174 CURVE",
"36 -210 LINE",
"257 -210 LINE",
"260 -176 LINE"
);
},
{
closed = 1;
nodes = (
"381 433 OFFCURVE",
"414 374 OFFCURVE",
"414 244 CURVE SMOOTH",
"414 111 OFFCURVE",
"364 35 OFFCURVE",
"279 35 CURVE SMOOTH",
"234 35 OFFCURVE",
"209 45 OFFCURVE",
"191 55 CURVE",
"191 245 LINE SMOOTH",
"191 370 OFFCURVE",
"233 433 OFFCURVE",
"311 433 CURVE SMOOTH",
"311 433 LINE"
);
}
);
width = 556;
},
{
layerId = "0EBA3A65-8808-4583-9AA2-2A9BC4F414AB";
paths = (
{
closed = 1;
nodes = (
"72 417 OFFCURVE",
"88 403 OFFCURVE",
"88 354 CURVE SMOOTH",
"88 -145 LINE",
"72 -160 OFFCURVE",
"60 -165 OFFCURVE",
"36 -170 CURVE",
"32 -211 LINE",
"299 -211 LINE",
"303 -172 LINE",
"269 -166 OFFCURVE",
"243 -154 OFFCURVE",
"229 -145 CURVE",
"229 17 LINE",
"258 2 OFFCURVE",
"285 -7 OFFCURVE",
"329 -7 CURVE SMOOTH",
"469 -7 OFFCURVE",
"550 83 OFFCURVE",
"550 256 CURVE SMOOTH",
"550 412 OFFCURVE",
"483 492 OFFCURVE",
"365 492 CURVE SMOOTH",
"299 492 OFFCURVE",
"252 467 OFFCURVE",
"223 416 CURVE",
"213 483 LINE",
"195 492 LINE",
"157 481 OFFCURVE",
"71 466 OFFCURVE",
"29 458 CURVE",
"26 419 LINE"
);
},
{
closed = 1;
nodes = (
"377 432 OFFCURVE",
"403 376 OFFCURVE",
"403 256 CURVE SMOOTH",
"403 121 OFFCURVE",
"370 46 OFFCURVE",
"295 46 CURVE SMOOTH",
"268 46 OFFCURVE",
"242 56 OFFCURVE",
"229 66 CURVE",
"229 268 LINE SMOOTH",
"229 377 OFFCURVE",
"265 432 OFFCURVE",
"321 432 CURVE SMOOTH",
"321 432 LINE"
);
}
);
width = 597;
}
);
unicode = 0070;
},
{
glyphname = q;
lastChange = "2019-08-19 16:07:20 +0000";
layers = (
{
layerId = UUID0;
paths = (
{
closed = 1;
nodes = (
"489 -172 OFFCURVE",
"465 -163 OFFCURVE",
"448 -151 CURVE",
"448 467 LINE",
"395 467 LINE",
"379 429 LINE",
"350 455 OFFCURVE",
"313 476 OFFCURVE",
"267 476 CURVE SMOOTH",
"117 476 OFFCURVE",
"60 372 OFFCURVE",
"60 232 CURVE SMOOTH",
"60 94 OFFCURVE",
"110 -7 OFFCURVE",
"249 -7 CURVE SMOOTH",
"304 -7 OFFCURVE",
"339 21 OFFCURVE",
"363 59 CURVE",
"363 -151 LINE",
"342 -166 OFFCURVE",
"327 -171 OFFCURVE",
"297 -176 CURVE",
"293 -212 LINE",
"514 -212 LINE",
"518 -178 LINE"
);
},
{
closed = 1;
nodes = (
"150 321 OFFCURVE",
"154 434 OFFCURVE",
"265 434 CURVE SMOOTH",
"305 434 OFFCURVE",
"338 409 OFFCURVE",
"363 383 CURVE",
"363 240 LINE SMOOTH",
"363 134 OFFCURVE",
"344 35 OFFCURVE",
"249 35 CURVE SMOOTH",
"159 35 OFFCURVE",
"150 130 OFFCURVE",
"150 232 CURVE SMOOTH",
"150 232 LINE"
);
}
);
width = 547;
},
{
layerId = "0EBA3A65-8808-4583-9AA2-2A9BC4F414AB";
paths = (
{
closed = 1;
nodes = (
"293 -7 OFFCURVE",
"338 15 OFFCURVE",
"367 59 CURVE",
"367 -145 LINE",
"344 -160 OFFCURVE",
"328 -165 OFFCURVE",
"294 -170 CURVE",
"291 -211 LINE",
"558 -211 LINE",
"561 -172 LINE",
"537 -166 OFFCURVE",
"518 -154 OFFCURVE",
"508 -145 CURVE",
"508 484 LINE",
"434 484 LINE",
"400 452 LINE",
"359 480 OFFCURVE",
"318 492 OFFCURVE",
"271 492 CURVE SMOOTH",
"134 492 OFFCURVE",
"47 407 OFFCURVE",
"47 242 CURVE SMOOTH",
"47 80 OFFCURVE",
"113 -7 OFFCURVE",
"231 -7 CURVE SMOOTH",
"231 -7 LINE"
);
},
{
closed = 1;
nodes = (
"219 53 OFFCURVE",
"193 115 OFFCURVE",
"193 243 CURVE SMOOTH",
"193 371 OFFCURVE",
"228 441 OFFCURVE",
"298 441 CURVE SMOOTH",
"330 441 OFFCURVE",
"352 425 OFFCURVE",
"367 408 CURVE",
"367 234 LINE SMOOTH",
"367 114 OFFCURVE",
"335 53 OFFCURVE",
"276 53 CURVE SMOOTH",
"276 53 LINE"
);
}
);
width = 591;
}
);
unicode = 0071;
},
{
glyphname = r;
lastChange = "2019-08-19 16:07:20 +0000";
layers = (
{
anchors = (
{
name = bottom;
position = "{157, 0}";
},
{
name = top;
position = "{227, 505}";
}
);
layerId = UUID0;
paths = (
{
closed = 1;
nodes = (
"97 411 OFFCURVE",
"116 397 OFFCURVE",
"116 347 CURVE SMOOTH",
"116 62 LINE",
"95 46 OFFCURVE",
"80 41 OFFCURVE",
"50 36 CURVE",
"46 0 LINE",
"276 0 LINE",
"280 34 LINE",
"248 40 OFFCURVE",
"220 49 OFFCURVE",
"201 62 CURVE",
"201 294 LINE SMOOTH",
"201 357 OFFCURVE",
"250 421 OFFCURVE",
"286 421 CURVE SMOOTH",
"305 421 OFFCURVE",
"314 410 OFFCURVE",
"314 391 CURVE SMOOTH",
"314 382 OFFCURVE",
"309 368 OFFCURVE",
"304 363 CURVE",
"310 343 OFFCURVE",
"333 332 OFFCURVE",
"355 332 CURVE SMOOTH",
"389 332 OFFCURVE",
"408 364 OFFCURVE",
"408 395 CURVE SMOOTH",
"408 450 OFFCURVE",
"363 476 OFFCURVE",
"319 476 CURVE SMOOTH",
"270 476 OFFCURVE",
"227 439 OFFCURVE",
"199 397 CURVE",
"189 467 LINE",
"171 476 LINE",
"133 465 OFFCURVE",
"92 450 OFFCURVE",
"49 442 CURVE",
"46 413 LINE"
);
}
);
width = 414;
},
{
anchors = (
{
name = bottom;
position = "{157, 0}";
},
{
name = top;
position = "{257, 515}";
}
);
layerId = "0EBA3A65-8808-4583-9AA2-2A9BC4F414AB";
paths = (
{
closed = 1;
nodes = (
"266 45 OFFCURVE",
"246 54 OFFCURVE",
"231 66 CURVE",
"231 353 LINE",
"247 391 OFFCURVE",
"277 416 OFFCURVE",
"305 416 CURVE SMOOTH",
"327 416 OFFCURVE",
"349 402 OFFCURVE",
"349 380 CURVE SMOOTH",
"349 370 OFFCURVE",
"345 359 OFFCURVE",
"335 347 CURVE",
"347 330 OFFCURVE",
"365 322 OFFCURVE",
"384 322 CURVE SMOOTH",
"417 322 OFFCURVE",
"452 348 OFFCURVE",
"452 399 CURVE SMOOTH",
"452 453 OFFCURVE",
"406 491 OFFCURVE",
"356 491 CURVE SMOOTH",
"300 491 OFFCURVE",
"256 459 OFFCURVE",
"227 417 CURVE",
"219 483 LINE",
"201 492 LINE",
"163 481 OFFCURVE",
"73 466 OFFCURVE",
"30 458 CURVE",
"27 419 LINE",
"73 417 OFFCURVE",
"90 403 OFFCURVE",
"90 354 CURVE SMOOTH",
"90 66 LINE",
"73 51 OFFCURVE",
"62 46 OFFCURVE",
"37 41 CURVE",
"34 0 LINE",
"287 0 LINE",
"291 39 LINE"
);
}
);
width = 461;
}
);
unicode = 0072;
},
{
glyphname = s;
lastChange = "2019-08-19 16:07:20 +0000";
layers = (
{
anchors = (
{
name = bottom;
position = "{215, 0}";
},
{
name = cedilla;
position = "{226, 0}";
},
{
name = top;
position = "{215, 505}";
}
);
layerId = UUID0;
paths = (
{
closed = 1;
nodes = (
"256 435 OFFCURVE",
"291 416 OFFCURVE",
"291 388 CURVE SMOOTH",
"291 374 OFFCURVE",
"285 360 OFFCURVE",
"274 352 CURVE",
"287 333 OFFCURVE",
"303 325 OFFCURVE",
"328 325 CURVE SMOOTH",
"358 325 OFFCURVE",
"374 343 OFFCURVE",
"374 377 CURVE SMOOTH",
"374 431 OFFCURVE",
"305 475 OFFCURVE",
"219 475 CURVE SMOOTH",
"114 475 OFFCURVE",
"52 426 OFFCURVE",
"52 347 CURVE SMOOTH",
"52 174 OFFCURVE",
"301 225 OFFCURVE",
"301 116 CURVE SMOOTH",
"301 73 OFFCURVE",
"263 39 OFFCURVE",
"208 39 CURVE SMOOTH",
"177 39 OFFCURVE",
"150 43 OFFCURVE",
"131 49 CURVE",
"116 78 OFFCURVE",
"109 104 OFFCURVE",
"104 162 CURVE",
"51 155 LINE",
"51 32 LINE",
"81 13 OFFCURVE",
"152 -6 OFFCURVE",
"200 -6 CURVE SMOOTH",
"313 -6 OFFCURVE",
"379 46 OFFCURVE",
"379 136 CURVE SMOOTH",
"379 302 OFFCURVE",
"127 255 OFFCURVE",
"127 368 CURVE SMOOTH",
"127 409 OFFCURVE",
"160 435 OFFCURVE",
"213 435 CURVE SMOOTH",
"213 435 LINE"
);
}
);
width = 430;
},
{
anchors = (
{
name = bottom;
position = "{220, 0}";
},
{
name = cedilla;
position = "{236, 0}";
},
{
name = top;
position = "{240, 515}";
}
);
layerId = "0EBA3A65-8808-4583-9AA2-2A9BC4F414AB";
paths = (
{
closed = 1;
nodes = (
"274 448 OFFCURVE",
"299 429 OFFCURVE",
"299 400 CURVE SMOOTH",
"299 385 OFFCURVE",
"292 369 OFFCURVE",
"279 355 CURVE",
"294 334 OFFCURVE",
"319 322 OFFCURVE",
"347 322 CURVE SMOOTH",
"390 322 OFFCURVE",
"418 352 OFFCURVE",
"418 399 CURVE SMOOTH",
"418 451 OFFCURVE",
"336 493 OFFCURVE",
"236 493 CURVE SMOOTH",
"114 493 OFFCURVE",
"41 443 OFFCURVE",
"41 359 CURVE SMOOTH",
"41 281 OFFCURVE",
"87 234 OFFCURVE",
"196 198 CURVE SMOOTH",
"260 176 OFFCURVE",
"289 148 OFFCURVE",
"289 109 CURVE SMOOTH",
"289 71 OFFCURVE",
"259 42 OFFCURVE",
"219 42 CURVE SMOOTH",
"200 42 OFFCURVE",
"183 45 OFFCURVE",
"164 51 CURVE",
"154 68 OFFCURVE",
"144 127 OFFCURVE",
"143 170 CURVE",
"40 155 LINE",
"40 45 LINE",
"79 18 OFFCURVE",
"165 -8 OFFCURVE",
"217 -8 CURVE SMOOTH",
"347 -8 OFFCURVE",
"422 47 OFFCURVE",
"422 142 CURVE SMOOTH",
"422 212 OFFCURVE",
"379 259 OFFCURVE",
"282 294 CURVE SMOOTH",
"197 324 OFFCURVE",
"171 345 OFFCURVE",
"171 379 CURVE SMOOTH",
"171 421 OFFCURVE",
"197 448 OFFCURVE",
"236 448 CURVE SMOOTH",
"236 448 LINE"
);
}
);
width = 459;
}
);
unicode = 0073;
},
{
glyphname = t;
lastChange = "2019-08-19 16:07:20 +0000";
layers = (
{
anchors = (
{
name = bottom;
position = "{163, 0}";
}
);
layerId = UUID0;
paths = (
{
closed = 1;
nodes = (
"297 48 OFFCURVE",
"276 37 OFFCURVE",
"243 37 CURVE SMOOTH",
"194 37 OFFCURVE",
"190 63 OFFCURVE",
"190 106 CURVE SMOOTH",
"190 413 LINE",
"319 413 LINE",
"319 467 LINE",
"191 467 LINE",
"191 564 LINE",
"151 564 LINE",
"131 507 OFFCURVE",
"91 466 OFFCURVE",
"23 443 CURVE",
"23 413 LINE",
"104 413 LINE",
"104 113 LINE SMOOTH",
"104 28 OFFCURVE",
"127 -10 OFFCURVE",
"219 -10 CURVE SMOOTH",
"284 -10 OFFCURVE",
"318 16 OFFCURVE",
"333 27 CURVE",
"313 57 LINE"
);
}
);
width = 338;
},
{
anchors = (
{
name = bottom;
position = "{173, 0}";
}
);
layerId = "0EBA3A65-8808-4583-9AA2-2A9BC4F414AB";
paths = (
{
closed = 1;
nodes = (
"322 79 OFFCURVE",
"294 68 OFFCURVE",
"270 68 CURVE SMOOTH",
"243 68 OFFCURVE",
"222 82 OFFCURVE",
"222 121 CURVE SMOOTH",
"222 413 LINE",
"351 413 LINE",
"351 478 LINE",
"223 478 LINE",
"223 584 LINE",
"158 584 LINE",
"127 525 OFFCURVE",
"73 483 OFFCURVE",
"9 459 CURVE",
"9 413 LINE",
"80 413 LINE",
"80 113 LINE SMOOTH",
"80 29 OFFCURVE",
"136 -4 OFFCURVE",
"202 -4 CURVE SMOOTH",
"258 -4 OFFCURVE",
"320 20 OFFCURVE",
"362 58 CURVE",
"342 93 LINE"
);
}
);
width = 365;
}
);
unicode = 0074;
},
{
glyphname = u;
lastChange = "2019-08-19 16:07:20 +0000";
layers = (
{
anchors = (
{
name = ogonek;
position = "{522, 0}";
},
{
name = top;
position = "{274, 505}";
}
);
layerId = UUID0;
paths = (
{
closed = 1;
nodes = (
"352 413 OFFCURVE",
"371 399 OFFCURVE",
"371 349 CURVE SMOOTH",
"371 117 LINE",
"339 59 OFFCURVE",
"295 38 OFFCURVE",
"265 38 CURVE SMOOTH",
"203 38 OFFCURVE",
"179 81 OFFCURVE",
"179 143 CURVE SMOOTH",
"179 469 LINE",
"159 479 LINE",
"118 467 OFFCURVE",
"71 452 OFFCURVE",
"26 444 CURVE",
"24 415 LINE",
"75 413 OFFCURVE",
"93 399 OFFCURVE",
"93 349 CURVE SMOOTH",
"93 154 LINE SMOOTH",
"93 47 OFFCURVE",
"147 -7 OFFCURVE",
"254 -7 CURVE SMOOTH",
"299 -7 OFFCURVE",
"344 16 OFFCURVE",
"379 63 CURVE",
"389 0 LINE",
"522 0 LINE",
"525 35 LINE",
"497 40 OFFCURVE",
"468 52 OFFCURVE",
"456 62 CURVE",
"456 469 LINE",
"437 479 LINE",
"396 467 OFFCURVE",
"349 452 OFFCURVE",
"304 444 CURVE",
"301 415 LINE"
);
}
);
width = 552;
},
{
anchors = (
{
name = ogonek;
position = "{587, 0}";
},
{
name = top;
position = "{294, 515}";
}
);
layerId = "0EBA3A65-8808-4583-9AA2-2A9BC4F414AB";
paths = (
{
closed = 1;
nodes = (
"514 483 LINE",
"496 492 LINE",
"458 481 OFFCURVE",
"355 466 OFFCURVE",
"313 458 CURVE",
"310 419 LINE",
"356 417 OFFCURVE",
"373 403 OFFCURVE",
"373 354 CURVE SMOOTH",
"373 115 LINE",
"353 81 OFFCURVE",
"318 60 OFFCURVE",
"283 60 CURVE SMOOTH",
"242 60 OFFCURVE",
"221 91 OFFCURVE",
"221 156 CURVE SMOOTH",
"221 483 LINE",
"204 492 LINE",
"166 481 OFFCURVE",
"63 466 OFFCURVE",
"21 458 CURVE",
"18 419 LINE",
"63 417 OFFCURVE",
"80 403 OFFCURVE",
"80 354 CURVE SMOOTH",
"80 147 LINE SMOOTH",
"80 50 OFFCURVE",
"140 -7 OFFCURVE",
"230 -7 CURVE SMOOTH",
"292 -7 OFFCURVE",
"344 21 OFFCURVE",
"379 64 CURVE",
"389 0 LINE",
"580 0 LINE",
"583 35 LINE",
"555 40 OFFCURVE",
"526 52 OFFCURVE",
"514 62 CURVE",
"514 62 LINE"
);
}
);
width = 597;
}
);
unicode = 0075;
},
{
glyphname = v;
lastChange = "2019-08-19 16:07:20 +0000";
layers = (
{
layerId = UUID0;
paths = (
{
closed = 1;
nodes = (
"282 0 LINE",
"434 407 LINE SMOOTH",
"441 426 OFFCURVE",
"475 432 OFFCURVE",
"501 437 CURVE",
"504 467 LINE",
"314 467 LINE",
"311 437 LINE",
"333 433 OFFCURVE",
"353 428 OFFCURVE",
"371 415 CURVE",
"265 96 LINE",
"159 415 LINE",
"177 431 OFFCURVE",
"199 434 OFFCURVE",
"221 437 CURVE",
"224 467 LINE",
"1 467 LINE",
"-1 437 LINE",
"29 431 OFFCURVE",
"60 423 OFFCURVE",
"70 395 CURVE SMOOTH",
"215 0 LINE"
);
}
);
width = 504;
},
{
layerId = "0EBA3A65-8808-4583-9AA2-2A9BC4F414AB";
paths = (
{
closed = 1;
nodes = (
"478 425 LINE",
"488 438 OFFCURVE",
"508 448 OFFCURVE",
"530 449 CURVE",
"534 484 LINE",
"348 484 LINE",
"344 449 LINE",
"368 445 OFFCURVE",
"389 440 OFFCURVE",
"409 427 CURVE",
"299 151 LINE",
"200 430 LINE",
"217 443 OFFCURVE",
"236 448 OFFCURVE",
"257 449 CURVE",
"262 484 LINE",
"0 484 LINE",
"-2 449 LINE",
"22 445 OFFCURVE",
"50 435 OFFCURVE",
"60 407 CURVE SMOOTH",
"204 0 LINE",
"307 0 LINE"
);
}
);
width = 531;
}
);
unicode = 0076;
},
{
glyphname = w;
lastChange = "2019-08-19 16:07:20 +0000";
layers = (
{
anchors = (
{
name = top;
position = "{387, 505}";
}
);
layerId = UUID0;
paths = (
{
closed = 1;
nodes = (
"281 0 LINE",
"384 291 LINE",
"491 0 LINE",
"552 0 LINE",
"695 407 LINE SMOOTH",
"702 426 OFFCURVE",
"736 432 OFFCURVE",
"762 437 CURVE",
"765 467 LINE",
"576 467 LINE",
"573 437 LINE",
"595 433 OFFCURVE",
"615 428 OFFCURVE",
"632 415 CURVE",
"539 103 LINE",
"417 450 LINE",
"378 450 LINE",
"266 104 LINE",
"170 415 LINE",
"188 431 OFFCURVE",
"210 434 OFFCURVE",
"232 437 CURVE",
"235 467 LINE",
"12 467 LINE",
"10 437 LINE",
"40 431 OFFCURVE",
"71 423 OFFCURVE",
"81 395 CURVE SMOOTH",
"219 0 LINE"
);
}
);
width = 774;
},
{
anchors = (
{
name = top;
position = "{437, 515}";
}
);
layerId = "0EBA3A65-8808-4583-9AA2-2A9BC4F414AB";
paths = (
{
closed = 1;
nodes = (
"398 298 LINE",
"489 0 LINE",
"592 0 LINE",
"739 421 LINE",
"748 436 OFFCURVE",
"769 448 OFFCURVE",
"793 449 CURVE",
"797 484 LINE",
"611 484 LINE",
"607 449 LINE",
"631 445 OFFCURVE",
"651 440 OFFCURVE",
"671 427 CURVE",
"578 153 LINE",
"483 484 LINE",
"393 484 LINE",
"280 154 LINE",
"202 428 LINE",
"220 443 OFFCURVE",
"239 448 OFFCURVE",
"261 449 CURVE",
"266 484 LINE",
"4 484 LINE",
"2 449 LINE",
"22 445 OFFCURVE",
"46 438 OFFCURVE",
"59 418 CURVE",
"191 0 LINE",
"294 0 LINE"
);
}
);
width = 798;
}
);
unicode = 0077;
},
{
glyphname = x;
lastChange = "2019-08-19 16:07:20 +0000";
layers = (
{
layerId = UUID0;
paths = (
{
closed = 1;
nodes = (
"195 0 LINE",
"198 36 LINE",
"170 39 OFFCURVE",
"149 42 OFFCURVE",
"131 56 CURVE",
"230 188 LINE",
"330 53 LINE",
"314 42 OFFCURVE",
"293 39 OFFCURVE",
"267 36 CURVE",
"263 0 LINE",
"479 0 LINE",
"483 37 LINE",
"458 40 OFFCURVE",
"441 44 OFFCURVE",
"424 62 CURVE",
"285 250 LINE",
"402 405 LINE SMOOTH",
"418 426 OFFCURVE",
"445 433 OFFCURVE",
"476 437 CURVE",
"480 467 LINE",
"279 467 LINE",
"276 437 LINE",
"308 433 OFFCURVE",
"325 423 OFFCURVE",
"343 409 CURVE",
"255 292 LINE",
"163 416 LINE",
"179 428 OFFCURVE",
"196 435 OFFCURVE",
"224 437 CURVE",
"229 467 LINE",
"14 467 LINE",
"11 437 LINE",
"40 433 OFFCURVE",
"58 423 OFFCURVE",
"73 402 CURVE SMOOTH",
"200 229 LINE",
"73 62 LINE",
"56 43 OFFCURVE",
"32 39 OFFCURVE",
"0 36 CURVE",
"-3 0 LINE"
);
}
);
width = 483;
},
{
layerId = "0EBA3A65-8808-4583-9AA2-2A9BC4F414AB";
paths = (
{
closed = 1;
nodes = (
"305 46 OFFCURVE",
"292 41 OFFCURVE",
"276 41 CURVE",
"268 0 LINE",
"511 0 LINE",
"517 39 LINE",
"500 42 OFFCURVE",
"482 48 OFFCURVE",
"472 62 CURVE SMOOTH",
"325 268 LINE",
"455 427 LINE SMOOTH",
"465 439 OFFCURVE",
"483 442 OFFCURVE",
"502 443 CURVE",
"508 484 LINE",
"329 484 LINE",
"323 444 LINE",
"340 441 OFFCURVE",
"357 435 OFFCURVE",
"369 424 CURVE",
"287 322 LINE",
"211 429 LINE",
"221 437 OFFCURVE",
"234 440 OFFCURVE",
"250 442 CURVE",
"257 483 LINE",
"15 483 LINE",
"9 444 LINE",
"26 440 OFFCURVE",
"44 436 OFFCURVE",
"55 421 CURVE SMOOTH",
"195 223 LINE",
"51 55 LINE SMOOTH",
"42 45 OFFCURVE",
"27 42 OFFCURVE",
"12 41 CURVE",
"5 0 LINE",
"189 0 LINE",
"195 39 LINE",
"174 43 OFFCURVE",
"154 50 OFFCURVE",
"138 59 CURVE",
"233 170 LINE",
"315 54 LINE"
);
}
);
width = 525;
}
);
unicode = 0078;
},
{
glyphname = y;
lastChange = "2019-08-19 16:07:20 +0000";
layers = (
{
anchors = (
{
name = top;
position = "{248, 505}";
}
);
layerId = UUID0;
paths = (
{
closed = 1;
nodes = (
"169 431 OFFCURVE",
"188 435 OFFCURVE",
"210 437 CURVE",
"213 467 LINE",
"-5 467 LINE",
"-7 436 LINE",
"23 431 OFFCURVE",
"53 421 OFFCURVE",
"64 394 CURVE SMOOTH",
"228 -8 LINE",
"207 -73 LINE SMOOTH",
"186 -137 OFFCURVE",
"166 -164 OFFCURVE",
"137 -164 CURVE SMOOTH",
"117 -164 OFFCURVE",
"104 -149 OFFCURVE",
"104 -130 CURVE SMOOTH",
"104 -118 OFFCURVE",
"108 -106 OFFCURVE",
"116 -95 CURVE",
"105 -88 OFFCURVE",
"92 -84 OFFCURVE",
"81 -84 CURVE SMOOTH",
"54 -84 OFFCURVE",
"32 -104 OFFCURVE",
"32 -141 CURVE SMOOTH",
"32 -186 OFFCURVE",
"71 -218 OFFCURVE",
"123 -218 CURVE SMOOTH",
"186 -218 OFFCURVE",
"225 -182 OFFCURVE",
"259 -84 CURVE SMOOTH",
"429 407 LINE SMOOTH",
"436 426 OFFCURVE",
"475 433 OFFCURVE",
"502 437 CURVE",
"504 467 LINE",
"309 467 LINE",
"307 437 LINE",
"329 434 OFFCURVE",
"349 428 OFFCURVE",
"366 415 CURVE",
"267 110 LINE",
"151 415 LINE"
);
}
);
width = 504;
},
{
anchors = (
{
name = top;
position = "{303, 515}";
}
);
background = {
paths = (
{
closed = 1;
nodes = (
"204 -83 LINE",
"178 -147 OFFCURVE",
"161 -169 OFFCURVE",
"139 -169 CURVE SMOOTH",
"122 -169 OFFCURVE",
"112 -157 OFFCURVE",
"112 -138 CURVE SMOOTH",
"112 -126 OFFCURVE",
"116 -114 OFFCURVE",
"123 -108 CURVE",
"109 -92 OFFCURVE",
"91 -84 OFFCURVE",
"73 -84 CURVE SMOOTH",
"39 -84 OFFCURVE",
"15 -109 OFFCURVE",
"15 -150 CURVE SMOOTH",
"15 -199 OFFCURVE",
"54 -227 OFFCURVE",
"122 -227 CURVE SMOOTH",
"188 -227 OFFCURVE",
"227 -194 OFFCURVE",
"261 -110 CURVE"
);
}
);
};
layerId = "0EBA3A65-8808-4583-9AA2-2A9BC4F414AB";
paths = (
{
closed = 1;
nodes = (
"181 -140 OFFCURVE",
"164 -162 OFFCURVE",
"142 -162 CURVE SMOOTH",
"125 -162 OFFCURVE",
"115 -150 OFFCURVE",
"115 -131 CURVE SMOOTH",
"115 -119 OFFCURVE",
"119 -107 OFFCURVE",
"126 -101 CURVE",
"112 -85 OFFCURVE",
"94 -77 OFFCURVE",
"76 -77 CURVE SMOOTH",
"42 -77 OFFCURVE",
"18 -102 OFFCURVE",
"18 -143 CURVE SMOOTH",
"18 -192 OFFCURVE",
"57 -220 OFFCURVE",
"125 -220 CURVE SMOOTH",
"191 -220 OFFCURVE",
"230 -187 OFFCURVE",
"264 -103 CURVE SMOOTH",
"477 425 LINE SMOOTH",
"483 441 OFFCURVE",
"508 448 OFFCURVE",
"529 449 CURVE",
"533 484 LINE",
"347 484 LINE",
"343 449 LINE",
"372 444 OFFCURVE",
"391 438 OFFCURVE",
"408 427 CURVE",
"298 151 LINE",
"199 430 LINE",
"213 442 OFFCURVE",
"231 448 OFFCURVE",
"256 449 CURVE",
"261 484 LINE",
"-1 484 LINE",
"-3 449 LINE",
"30 443 OFFCURVE",
"51 429 OFFCURVE",
"59 407 CURVE SMOOTH",
"203 0 LINE",
"237 0 LINE",
"207 -76 LINE"
);
}
);
width = 531;
}
);
unicode = 0079;
},
{
glyphname = z;
lastChange = "2019-08-19 16:07:20 +0000";
layers = (
{
anchors = (
{
name = top;
position = "{224, 505}";
}
);
layerId = UUID0;
paths = (
{
closed = 1;
nodes = (
"403 139 LINE",
"395 140 OFFCURVE",
"388 141 OFFCURVE",
"380 141 CURVE SMOOTH",
"372 141 OFFCURVE",
"363 140 OFFCURVE",
"355 138 CURVE",
"346 104 OFFCURVE",
"332 69 OFFCURVE",
"315 46 CURVE",
"292 45 OFFCURVE",
"265 45 OFFCURVE",
"240 45 CURVE SMOOTH",
"179 45 OFFCURVE",
"159 45 OFFCURVE",
"144 46 CURVE",
"405 433 LINE",
"398 469 LINE",
"364 468 OFFCURVE",
"309 467 OFFCURVE",
"247 467 CURVE SMOOTH",
"188 467 OFFCURVE",
"100 469 OFFCURVE",
"74 469 CURVE",
"49 448 LINE",
"58 338 LINE",
"66 335 OFFCURVE",
"75 334 OFFCURVE",
"84 334 CURVE SMOOTH",
"93 334 OFFCURVE",
"103 336 OFFCURVE",
"111 339 CURVE",
"114 367 OFFCURVE",
"125 404 OFFCURVE",
"138 420 CURVE",
"157 423 OFFCURVE",
"198 425 OFFCURVE",
"228 425 CURVE SMOOTH",
"245 425 OFFCURVE",
"289 422 OFFCURVE",
"303 421 CURVE",
"44 38 LINE",
"52 -4 LINE",
"52 -4 OFFCURVE",
"127 0 OFFCURVE",
"235 0 CURVE SMOOTH",
"289 0 OFFCURVE",
"351 -1 OFFCURVE",
"377 -3 CURVE",
"396 21 LINE"
);
}
);
width = 455;
},
{
anchors = (
{
name = top;
position = "{264, 515}";
}
);
layerId = "0EBA3A65-8808-4583-9AA2-2A9BC4F414AB";
paths = (
{
closed = 1;
nodes = (
"434 157 OFFCURVE",
"416 160 OFFCURVE",
"401 160 CURVE SMOOTH",
"390 160 OFFCURVE",
"376 158 OFFCURVE",
"359 154 CURVE",
"350 113 OFFCURVE",
"338 77 OFFCURVE",
"325 56 CURVE",
"199 56 LINE",
"445 449 LINE",
"435 486 LINE",
"378 484 OFFCURVE",
"308 484 OFFCURVE",
"254 484 CURVE SMOOTH",
"182 484 OFFCURVE",
"92 485 OFFCURVE",
"75 486 CURVE",
"38 456 LINE",
"47 345 LINE",
"65 339 OFFCURVE",
"80 336 OFFCURVE",
"96 336 CURVE SMOOTH",
"107 336 OFFCURVE",
"121 337 OFFCURVE",
"139 340 CURVE",
"145 380 OFFCURVE",
"154 417 OFFCURVE",
"161 430 CURVE",
"277 430 LINE",
"38 42 LINE",
"42 -2 LINE",
"68 -1 OFFCURVE",
"176 0 OFFCURVE",
"223 0 CURVE SMOOTH",
"264 0 OFFCURVE",
"314 0 OFFCURVE",
"438 -1 CURVE",
"445 155 LINE"
);
}
);
width = 479;
}
);
unicode = 007A;
},
{
glyphname = ae;
lastChange = "2019-08-19 16:07:20 +0000";
layers = (
{
anchors = (
{
name = bottom;
position = "{381, 0}";
},
{
name = top;
position = "{381, 505}";
}
);
layerId = UUID0;
paths = (
{
closed = 1;
nodes = (
"128 476 OFFCURVE",
"63 432 OFFCURVE",
"63 364 CURVE SMOOTH",
"63 329 OFFCURVE",
"86 306 OFFCURVE",
"121 306 CURVE SMOOTH",
"158 306 OFFCURVE",
"178 323 OFFCURVE",
"178 354 CURVE",
"159 361 OFFCURVE",
"147 374 OFFCURVE",
"147 391 CURVE SMOOTH",
"147 419 OFFCURVE",
"178 436 OFFCURVE",
"231 436 CURVE SMOOTH",
"293 436 OFFCURVE",
"319 407 OFFCURVE",
"319 340 CURVE SMOOTH",
"319 259 LINE",
"238 253 LINE SMOOTH",
"116 245 OFFCURVE",
"51 194 OFFCURVE",
"51 107 CURVE SMOOTH",
"51 35 OFFCURVE",
"99 -7 OFFCURVE",
"181 -7 CURVE SMOOTH",
"264 -7 OFFCURVE",
"315 27 OFFCURVE",
"359 68 CURVE",
"391 19 OFFCURVE",
"446 -7 OFFCURVE",
"531 -7 CURVE SMOOTH",
"625 -7 OFFCURVE",
"688 59 OFFCURVE",
"688 59 CURVE",
"663 89 LINE",
"663 89 OFFCURVE",
"610 42 OFFCURVE",
"535 42 CURVE SMOOTH",
"423 42 OFFCURVE",
"412 126 OFFCURVE",
"412 238 CURVE SMOOTH",
"412 243 LINE",
"690 243 LINE",
"711 270 LINE",
"707 396 OFFCURVE",
"669 476 OFFCURVE",
"529 476 CURVE SMOOTH",
"464 476 OFFCURVE",
"414 456 OFFCURVE",
"379 419 CURVE",
"351 456 OFFCURVE",
"300 476 OFFCURVE",
"231 476 CURVE SMOOTH",
"231 476 LINE"
);
},
{
closed = 1;
nodes = (
"139 169 OFFCURVE",
"177 206 OFFCURVE",
"240 211 CURVE SMOOTH",
"319 218 LINE",
"319 92 LINE",
"276 51 OFFCURVE",
"244 34 OFFCURVE",
"206 34 CURVE SMOOTH",
"161 34 OFFCURVE",
"139 62 OFFCURVE",
"139 116 CURVE SMOOTH",
"139 116 LINE"
);
},
{
closed = 1;
nodes = (
"601 436 OFFCURVE",
"621 386 OFFCURVE",
"621 287 CURVE SMOOTH",
"621 287 OFFCURVE",
"491 281 OFFCURVE",
"412 280 CURVE",
"414 370 OFFCURVE",
"445 436 OFFCURVE",
"525 436 CURVE SMOOTH",
"525 436 LINE"
);
}
);
width = 752;
},
{
anchors = (
{
name = bottom;
position = "{381, 0}";
},
{
name = top;
position = "{401, 515}";
}
);
layerId = "0EBA3A65-8808-4583-9AA2-2A9BC4F414AB";
paths = (
{
closed = 1;
nodes = (
"761 413 OFFCURVE",
"714 492 OFFCURVE",
"556 492 CURVE SMOOTH",
"494 492 OFFCURVE",
"443 477 OFFCURVE",
"405 449 CURVE",
"369 477 OFFCURVE",
"314 492 OFFCURVE",
"240 492 CURVE SMOOTH",
"122 492 OFFCURVE",
"50 449 OFFCURVE",
"50 378 CURVE SMOOTH",
"50 336 OFFCURVE",
"83 305 OFFCURVE",
"127 305 CURVE SMOOTH",
"163 305 OFFCURVE",
"190 327 OFFCURVE",
"197 360 CURVE",
"183 371 OFFCURVE",
"175 386 OFFCURVE",
"175 402 CURVE SMOOTH",
"175 431 OFFCURVE",
"203 453 OFFCURVE",
"240 453 CURVE SMOOTH",
"295 453 OFFCURVE",
"314 422 OFFCURVE",
"314 329 CURVE SMOOTH",
"314 271 LINE",
"226 265 LINE SMOOTH",
"96 256 OFFCURVE",
"29 205 OFFCURVE",
"29 118 CURVE SMOOTH",
"29 37 OFFCURVE",
"80 -7 OFFCURVE",
"172 -7 CURVE SMOOTH",
"249 -7 OFFCURVE",
"321 32 OFFCURVE",
"358 77 CURVE",
"396 24 OFFCURVE",
"458 -7 OFFCURVE",
"548 -7 CURVE SMOOTH",
"653 -7 OFFCURVE",
"704 32 OFFCURVE",
"750 78 CURVE",
"710 117 LINE",
"672 78 OFFCURVE",
"620 62 OFFCURVE",
"572 62 CURVE SMOOTH",
"479 62 OFFCURVE",
"458 123 OFFCURVE",
"458 227 CURVE SMOOTH",
"458 243 LINE",
"740 243 LINE",
"768 285 LINE"
);
},
{
closed = 1;
nodes = (
"610 443 OFFCURVE",
"626 393 OFFCURVE",
"626 291 CURVE SMOOTH",
"626 291 OFFCURVE",
"530 285 OFFCURVE",
"458 283 CURVE",
"460 376 OFFCURVE",
"484 443 OFFCURVE",
"552 443 CURVE SMOOTH",
"552 443 LINE"
);
},
{
closed = 1;
nodes = (
"161 186 OFFCURVE",
"191 212 OFFCURVE",
"264 218 CURVE SMOOTH",
"314 222 LINE",
"314 113 LINE",
"281 74 OFFCURVE",
"251 58 OFFCURVE",
"221 58 CURVE SMOOTH",
"183 58 OFFCURVE",
"161 84 OFFCURVE",
"161 129 CURVE SMOOTH",
"161 129 LINE"
);
}
);
width = 794;
}
);
unicode = 00E6;
},
{
glyphname = hbar;
lastChange = "2019-08-19 16:07:20 +0000";
layers = (
{
anchors = (
{
name = bottom;
position = "{276, 0}";
},
{
name = top;
position = "{304, 0}";
}
);
components = (
{
name = macron;
transform = "{1, 0, 0, 1, 17, -45}";
},
{
name = h;
}
);
layerId = UUID0;
width = 552;
},
{
background = {
paths = (
{
closed = 1;
nodes = (
"12 517 LINE",
"83 517 LINE",
"83 67 LINE",
"67 52 OFFCURVE",
"55 47 OFFCURVE",
"31 42 CURVE",
"27 1 LINE",
"281 1 LINE",
"285 40 LINE",
"260 46 OFFCURVE",
"239 55 OFFCURVE",
"225 67 CURVE",
"225 371 LINE",
"245 404 OFFCURVE",
"279 425 OFFCURVE",
"313 425 CURVE SMOOTH",
"355 425 OFFCURVE",
"375 394 OFFCURVE",
"375 329 CURVE SMOOTH",
"375 66 LINE",
"362 52 OFFCURVE",
"345 43 OFFCURVE",
"326 39 CURVE",
"323 0 LINE",
"577 0 LINE",
"580 39 LINE",
"551 45 OFFCURVE",
"528 57 OFFCURVE",
"517 66 CURVE",
"517 338 LINE SMOOTH",
"517 435 OFFCURVE",
"457 492 OFFCURVE",
"367 492 CURVE SMOOTH",
"309 492 OFFCURVE",
"259 467 OFFCURVE",
"225 429 CURVE",
"225 517 LINE",
"313 517 LINE",
"313 580 LINE",
"225 580 LINE",
"225 688 LINE",
"207 698 LINE",
"169 687 OFFCURVE",
"66 672 OFFCURVE",
"24 664 CURVE",
"21 625 LINE",
"59 623 OFFCURVE",
"77 613 OFFCURVE",
"82 580 CURVE",
"12 580 LINE"
);
}
);
};
components = (
{
name = macron;
transform = "{1, 0, 0, 1, -28, -45}";
},
{
name = h;
}
);
layerId = "0EBA3A65-8808-4583-9AA2-2A9BC4F414AB";
width = 597;
}
);
unicode = 0127;
},
{
glyphname = dotlessi;
lastChange = "2019-08-19 16:07:20 +0000";
layers = (
{
anchors = (
{
name = top;
position = "{138, 505}";
}
);
layerId = UUID0;
paths = (
{
closed = 1;
nodes = (
"83 46 OFFCURVE",
"67 41 OFFCURVE",
"38 36 CURVE",
"34 0 LINE",
"255 0 LINE",
"259 34 LINE",
"230 40 OFFCURVE",
"206 49 OFFCURVE",
"189 61 CURVE",
"189 468 LINE",
"169 479 LINE",
"129 467 OFFCURVE",
"82 452 OFFCURVE",
"37 444 CURVE",
"34 415 LINE",
"85 413 OFFCURVE",
"104 399 OFFCURVE",
"104 349 CURVE SMOOTH",
"104 61 LINE"
);
}
);
width = 278;
},
{
anchors = (
{
name = top;
position = "{153, 515}";
}
);
layerId = "0EBA3A65-8808-4583-9AA2-2A9BC4F414AB";
paths = (
{
closed = 1;
nodes = (
"269 45 OFFCURVE",
"246 57 OFFCURVE",
"234 66 CURVE",
"234 483 LINE",
"217 492 LINE",
"179 481 OFFCURVE",
"76 466 OFFCURVE",
"34 458 CURVE",
"31 419 LINE",
"77 417 OFFCURVE",
"93 403 OFFCURVE",
"93 354 CURVE SMOOTH",
"93 66 LINE",
"77 51 OFFCURVE",
"65 46 OFFCURVE",
"41 41 CURVE",
"37 0 LINE",
"294 0 LINE",
"298 39 LINE"
);
}
);
width = 314;
}
);
unicode = 0131;
},
{
glyphname = ij;
lastChange = "2019-08-19 16:07:20 +0000";
layers = (
{
components = (
{
name = dotaccent;
transform = "{1, 0, 0, 1, 72, -9}";
},
{
name = dotaccent;
transform = "{1, 0, 0, 1, 348, -9}";
}
);
layerId = UUID0;
paths = (
{
closed = 1;
nodes = (
"354 413 OFFCURVE",
"373 399 OFFCURVE",
"373 349 CURVE SMOOTH",
"373 117 LINE",
"341 59 OFFCURVE",
"297 38 OFFCURVE",
"267 38 CURVE SMOOTH",
"205 38 OFFCURVE",
"181 81 OFFCURVE",
"181 143 CURVE SMOOTH",
"181 468 LINE",
"161 479 LINE",
"120 466 OFFCURVE",
"73 452 OFFCURVE",
"28 444 CURVE",
"26 415 LINE",
"77 413 OFFCURVE",
"95 398 OFFCURVE",
"95 349 CURVE SMOOTH",
"95 154 LINE SMOOTH",
"95 47 OFFCURVE",
"149 -7 OFFCURVE",
"256 -7 CURVE SMOOTH",
"300 -7 OFFCURVE",
"343 15 OFFCURVE",
"377 58 CURVE",
"380 12 OFFCURVE",
"384 -54 OFFCURVE",
"384 -108 CURVE SMOOTH",
"384 -144 OFFCURVE",
"376 -173 OFFCURVE",
"345 -173 CURVE SMOOTH",
"320 -173 OFFCURVE",
"308 -156 OFFCURVE",
"308 -137 CURVE SMOOTH",
"308 -124 OFFCURVE",
"314 -111 OFFCURVE",
"322 -104 CURVE",
"315 -91 OFFCURVE",
"300 -84 OFFCURVE",
"283 -84 CURVE SMOOTH",
"254 -84 OFFCURVE",
"236 -110 OFFCURVE",
"236 -139 CURVE SMOOTH",
"236 -196 OFFCURVE",
"286 -216 OFFCURVE",
"344 -216 CURVE SMOOTH",
"442 -216 OFFCURVE",
"458 -124 OFFCURVE",
"458 -33 CURVE SMOOTH",
"458 468 LINE",
"438 479 LINE",
"397 466 OFFCURVE",
"350 452 OFFCURVE",
"306 444 CURVE",
"303 415 LINE"
);
}
);
width = 544;
},
{
layerId = "0EBA3A65-8808-4583-9AA2-2A9BC4F414AB";
paths = (
{
closed = 1;
nodes = (
"219 550 OFFCURVE",
"245 576 OFFCURVE",
"245 620 CURVE SMOOTH",
"245 665 OFFCURVE",
"219 690 OFFCURVE",
"166 690 CURVE SMOOTH",
"112 690 OFFCURVE",
"86 665 OFFCURVE",
"86 620 CURVE SMOOTH",
"86 576 OFFCURVE",
"112 550 OFFCURVE",
"166 550 CURVE SMOOTH",
"166 550 LINE"
);
},
{
closed = 1;
nodes = (
"526 550 OFFCURVE",
"552 576 OFFCURVE",
"552 620 CURVE SMOOTH",
"552 665 OFFCURVE",
"526 690 OFFCURVE",
"473 690 CURVE SMOOTH",
"419 690 OFFCURVE",
"393 665 OFFCURVE",
"393 620 CURVE SMOOTH",
"393 576 OFFCURVE",
"419 550 OFFCURVE",
"473 550 CURVE SMOOTH",
"473 550 LINE"
);
},
{
closed = 1;
nodes = (
"402 -16 OFFCURVE",
"412 -41 OFFCURVE",
"412 -108 CURVE SMOOTH",
"412 -141 OFFCURVE",
"399 -168 OFFCURVE",
"380 -168 CURVE SMOOTH",
"365 -168 OFFCURVE",
"356 -153 OFFCURVE",
"356 -137 CURVE SMOOTH",
"356 -121 OFFCURVE",
"362 -106 OFFCURVE",
"371 -97 CURVE",
"360 -80 OFFCURVE",
"342 -72 OFFCURVE",
"325 -72 CURVE SMOOTH",
"288 -72 OFFCURVE",
"262 -97 OFFCURVE",
"262 -134 CURVE SMOOTH",
"262 -190 OFFCURVE",
"323 -218 OFFCURVE",
"386 -218 CURVE SMOOTH",
"437 -218 OFFCURVE",
"491 -200 OFFCURVE",
"515 -161 CURVE SMOOTH",
"536 -126 OFFCURVE",
"541 -80 OFFCURVE",
"541 -33 CURVE SMOOTH",
"541 483 LINE",
"523 492 LINE",
"485 481 OFFCURVE",
"382 466 OFFCURVE",
"340 458 CURVE",
"337 419 LINE",
"383 417 OFFCURVE",
"400 403 OFFCURVE",
"400 354 CURVE SMOOTH",
"400 115 LINE",
"380 81 OFFCURVE",
"345 60 OFFCURVE",
"306 60 CURVE SMOOTH",
"258 60 OFFCURVE",
"234 91 OFFCURVE",
"234 156 CURVE SMOOTH",
"234 483 LINE",
"217 492 LINE",
"179 481 OFFCURVE",
"76 466 OFFCURVE",
"34 458 CURVE",
"31 419 LINE",
"76 417 OFFCURVE",
"93 403 OFFCURVE",
"93 354 CURVE SMOOTH",
"93 147 LINE SMOOTH",
"93 50 OFFCURVE",
"155 -7 OFFCURVE",
"248 -7 CURVE SMOOTH",
"312 -7 OFFCURVE",
"366 21 OFFCURVE",
"402 64 CURVE",
"402 64 LINE"
);
}
);
width = 617;
}
);
unicode = 0133;
},
{
glyphname = kgreenlandic;
lastChange = "2019-08-19 16:07:20 +0000";
layers = (
{
anchors = (
{
name = top;
position = "{283, 0}";
}
);
layerId = UUID0;
paths = (
{
closed = 1;
nodes = (
"489 40 OFFCURVE",
"456 50 OFFCURVE",
"433 63 CURVE",
"283 302 LINE",
"375 394 LINE SMOOTH",
"406 424 OFFCURVE",
"444 435 OFFCURVE",
"485 437 CURVE",
"482 467 LINE",
"349 467 LINE",
"349 467 OFFCURVE",
"339 435 OFFCURVE",
"316 411 CURVE SMOOTH",
"180 274 LINE",
"180 468 LINE",
"160 479 LINE",
"120 466 OFFCURVE",
"72 452 OFFCURVE",
"28 444 CURVE",
"25 415 LINE",
"76 413 OFFCURVE",
"95 399 OFFCURVE",
"95 349 CURVE SMOOTH",
"95 61 LINE",
"74 46 OFFCURVE",
"58 41 OFFCURVE",
"29 36 CURVE",
"25 0 LINE",
"246 0 LINE",
"250 34 LINE",
"221 40 OFFCURVE",
"197 49 OFFCURVE",
"180 61 CURVE",
"180 200 LINE",
"225 244 LINE",
"378 0 LINE",
"521 0 LINE",
"525 35 LINE"
);
}
);
width = 531;
},
{
layerId = "0EBA3A65-8808-4583-9AA2-2A9BC4F414AB";
paths = (
{
closed = 1;
nodes = (
"76 418 OFFCURVE",
"92 404 OFFCURVE",
"92 354 CURVE SMOOTH",
"92 66 LINE",
"77 51 OFFCURVE",
"64 46 OFFCURVE",
"40 41 CURVE",
"36 0 LINE",
"294 0 LINE",
"297 39 LINE",
"268 45 OFFCURVE",
"245 57 OFFCURVE",
"234 66 CURVE",
"234 165 LINE",
"288 219 LINE",
"390 58 LINE SMOOTH",
"402 38 OFFCURVE",
"407 23 OFFCURVE",
"408 0 CURVE",
"596 0 LINE",
"603 41 LINE",
"573 47 OFFCURVE",
"550 59 OFFCURVE",
"532 76 CURVE",
"381 312 LINE",
"476 406 LINE",
"504 438 OFFCURVE",
"544 444 OFFCURVE",
"564 445 CURVE",
"572 484 LINE",
"339 484 LINE",
"331 445 LINE",
"353 445 OFFCURVE",
"382 439 OFFCURVE",
"382 416 CURVE SMOOTH",
"382 410 OFFCURVE",
"379 404 OFFCURVE",
"374 398 CURVE",
"234 263 LINE",
"234 483 LINE",
"216 493 LINE",
"178 482 OFFCURVE",
"75 467 OFFCURVE",
"33 459 CURVE",
"30 420 LINE"
);
}
);
width = 598;
}
);
unicode = 0138;
},
{
glyphname = oslash;
lastChange = "2019-08-19 16:07:20 +0000";
layers = (
{
anchors = (
{
name = bottom;
position = "{265, 0}";
},
{
name = top;
position = "{260, 505}";
}
);
layerId = UUID0;
paths = (
{
closed = 1;
nodes = (
"53 164 OFFCURVE",
"67 108 OFFCURVE",
"96 68 CURVE",
"43 3 LINE",
"49 -3 OFFCURVE",
"57 -11 OFFCURVE",
"65 -17 CURVE",
"71 -17 LINE",
"119 41 LINE",
"154 9 OFFCURVE",
"203 -7 OFFCURVE",
"265 -7 CURVE SMOOTH",
"406 -7 OFFCURVE",
"477 78 OFFCURVE",
"477 235 CURVE SMOOTH",
"477 311 OFFCURVE",
"460 371 OFFCURVE",
"426 411 CURVE",
"470 464 LINE",
"465 471 OFFCURVE",
"457 479 OFFCURVE",
"449 484 CURVE",
"441 484 LINE",
"401 436 LINE",
"367 462 OFFCURVE",
"321 476 OFFCURVE",
"265 476 CURVE SMOOTH",
"125 476 OFFCURVE",
"53 392 OFFCURVE",
"53 235 CURVE SMOOTH",
"53 235 LINE"
);
},
{
closed = 1;
nodes = (
"389 96 OFFCURVE",
"352 39 OFFCURVE",
"265 39 CURVE SMOOTH",
"216 39 OFFCURVE",
"184 57 OFFCURVE",
"165 96 CURVE",
"375 350 LINE",
"385 320 OFFCURVE",
"389 283 OFFCURVE",
"389 235 CURVE SMOOTH",
"389 235 LINE"
);
},
{
closed = 1;
nodes = (
"143 374 OFFCURVE",
"178 430 OFFCURVE",
"265 430 CURVE SMOOTH",
"308 430 OFFCURVE",
"339 416 OFFCURVE",
"359 385 CURVE",
"152 135 LINE",
"146 162 OFFCURVE",
"143 195 OFFCURVE",
"143 235 CURVE SMOOTH",
"143 235 LINE"
);
}
);
width = 531;
},
{
layerId = "0EBA3A65-8808-4583-9AA2-2A9BC4F414AB";
paths = (
{
closed = 1;
nodes = (
"44 164 OFFCURVE",
"63 102 OFFCURVE",
"101 60 CURVE",
"62 7 LINE",
"126 -41 LINE",
"167 14 LINE",
"200 0 OFFCURVE",
"239 -7 OFFCURVE",
"285 -7 CURVE SMOOTH",
"445 -7 OFFCURVE",
"525 81 OFFCURVE",
"525 243 CURVE SMOOTH",
"525 321 OFFCURVE",
"506 382 OFFCURVE",
"469 424 CURVE",
"509 478 LINE",
"448 530 LINE",
"404 470 LINE",
"371 485 OFFCURVE",
"331 492 OFFCURVE",
"285 492 CURVE SMOOTH",
"125 492 OFFCURVE",
"44 405 OFFCURVE",
"44 243 CURVE SMOOTH",
"44 243 LINE"
);
},
{
closed = 1;
nodes = (
"191 380 OFFCURVE",
"218 436 OFFCURVE",
"285 436 CURVE SMOOTH",
"314 436 OFFCURVE",
"336 424 OFFCURVE",
"351 399 CURVE",
"193 184 LINE",
"191 202 OFFCURVE",
"191 221 OFFCURVE",
"191 243 CURVE SMOOTH",
"191 243 LINE"
);
},
{
closed = 1;
nodes = (
"378 105 OFFCURVE",
"351 49 OFFCURVE",
"285 49 CURVE SMOOTH",
"255 49 OFFCURVE",
"233 60 OFFCURVE",
"218 84 CURVE",
"376 297 LINE",
"377 281 OFFCURVE",
"378 263 OFFCURVE",
"378 243 CURVE SMOOTH",
"378 243 LINE"
);
}
);
width = 569;
}
);
unicode = 00F8;
},
{
glyphname = oe;
lastChange = "2019-08-19 16:07:20 +0000";
layers = (
{
anchors = (
{
name = top;
position = "{413, 505}";
}
);
layerId = UUID0;
paths = (
{
closed = 1;
nodes = (
"124 476 OFFCURVE",
"53 392 OFFCURVE",
"53 235 CURVE SMOOTH",
"53 78 OFFCURVE",
"124 -7 OFFCURVE",
"265 -7 CURVE SMOOTH",
"338 -7 OFFCURVE",
"392 16 OFFCURVE",
"427 59 CURVE",
"460 16 OFFCURVE",
"514 -7 OFFCURVE",
"593 -7 CURVE SMOOTH",
"687 -7 OFFCURVE",
"751 59 OFFCURVE",
"751 59 CURVE",
"725 89 LINE",
"725 89 OFFCURVE",
"673 42 OFFCURVE",
"598 42 CURVE SMOOTH",
"486 42 OFFCURVE",
"474 126 OFFCURVE",
"474 238 CURVE SMOOTH",
"474 243 LINE",
"753 243 LINE",
"773 270 LINE",
"770 396 OFFCURVE",
"731 476 OFFCURVE",
"592 476 CURVE SMOOTH",
"519 476 OFFCURVE",
"465 451 OFFCURVE",
"430 406 CURVE",
"395 452 OFFCURVE",
"339 476 OFFCURVE",
"265 476 CURVE SMOOTH",
"265 476 LINE"
);
},
{
closed = 1;
nodes = (
"142 374 OFFCURVE",
"178 430 OFFCURVE",
"265 430 CURVE SMOOTH",
"352 430 OFFCURVE",
"388 374 OFFCURVE",
"388 235 CURVE SMOOTH",
"388 96 OFFCURVE",
"352 39 OFFCURVE",
"265 39 CURVE SMOOTH",
"178 39 OFFCURVE",
"142 96 OFFCURVE",
"142 235 CURVE SMOOTH",
"142 235 LINE"
);
},
{
closed = 1;
nodes = (
"663 436 OFFCURVE",
"684 386 OFFCURVE",
"684 287 CURVE SMOOTH",
"684 287 OFFCURVE",
"553 281 OFFCURVE",
"474 280 CURVE",
"476 370 OFFCURVE",
"507 436 OFFCURVE",
"588 436 CURVE SMOOTH",
"588 436 LINE"
);
}
);
width = 818;
},
{
anchors = (
{
name = top;
position = "{448, 515}";
}
);
layerId = "0EBA3A65-8808-4583-9AA2-2A9BC4F414AB";
paths = (
{
closed = 1;
nodes = (
"817 413 OFFCURVE",
"770 492 OFFCURVE",
"612 492 CURVE SMOOTH",
"540 492 OFFCURVE",
"484 471 OFFCURVE",
"445 433 CURVE",
"406 472 OFFCURVE",
"349 492 OFFCURVE",
"274 492 CURVE SMOOTH",
"114 492 OFFCURVE",
"33 405 OFFCURVE",
"33 243 CURVE SMOOTH",
"33 81 OFFCURVE",
"114 -7 OFFCURVE",
"274 -7 CURVE SMOOTH",
"347 -7 OFFCURVE",
"403 12 OFFCURVE",
"442 49 CURVE",
"479 13 OFFCURVE",
"532 -7 OFFCURVE",
"604 -7 CURVE SMOOTH",
"709 -7 OFFCURVE",
"760 32 OFFCURVE",
"806 78 CURVE",
"766 117 LINE",
"728 78 OFFCURVE",
"676 62 OFFCURVE",
"628 62 CURVE SMOOTH",
"535 62 OFFCURVE",
"514 123 OFFCURVE",
"514 227 CURVE SMOOTH",
"514 243 LINE",
"796 243 LINE",
"824 285 LINE"
);
},
{
closed = 1;
nodes = (
"180 380 OFFCURVE",
"207 436 OFFCURVE",
"274 436 CURVE SMOOTH",
"340 436 OFFCURVE",
"367 380 OFFCURVE",
"367 243 CURVE SMOOTH",
"367 105 OFFCURVE",
"340 49 OFFCURVE",
"274 49 CURVE SMOOTH",
"207 49 OFFCURVE",
"180 105 OFFCURVE",
"180 243 CURVE SMOOTH",
"180 243 LINE"
);
},
{
closed = 1;
nodes = (
"666 443 OFFCURVE",
"682 393 OFFCURVE",
"682 291 CURVE SMOOTH",
"682 291 OFFCURVE",
"586 285 OFFCURVE",
"514 283 CURVE",
"516 376 OFFCURVE",
"540 443 OFFCURVE",
"608 443 CURVE SMOOTH",
"608 443 LINE"
);
}
);
width = 857;
}
);
unicode = 0153;
},
{
glyphname = germandbls;
lastChange = "2019-08-19 16:07:20 +0000";
layers = (
{
layerId = UUID0;
paths = (
{
closed = 1;
nodes = (
"248 22 OFFCURVE",
"294 -5 OFFCURVE",
"382 -5 CURVE SMOOTH",
"480 -5 OFFCURVE",
"552 70 OFFCURVE",
"552 172 CURVE SMOOTH",
"552 270 OFFCURVE",
"475 344 OFFCURVE",
"353 371 CURVE",
"434 406 OFFCURVE",
"491 471 OFFCURVE",
"491 535 CURVE SMOOTH",
"491 642 OFFCURVE",
"411 686 OFFCURVE",
"305 686 CURVE SMOOTH",
"191 686 OFFCURVE",
"121 629 OFFCURVE",
"121 515 CURVE SMOOTH",
"121 62 LINE",
"102 46 OFFCURVE",
"86 41 OFFCURVE",
"55 36 CURVE",
"51 0 LINE",
"206 0 LINE",
"206 470 LINE SMOOTH",
"206 562 OFFCURVE",
"213 647 OFFCURVE",
"306 647 CURVE SMOOTH",
"372 647 OFFCURVE",
"403 604 OFFCURVE",
"403 538 CURVE SMOOTH",
"403 474 OFFCURVE",
"342 402 OFFCURVE",
"278 391 CURVE",
"278 338 LINE",
"408 319 OFFCURVE",
"464 268 OFFCURVE",
"464 171 CURVE SMOOTH",
"464 90 OFFCURVE",
"434 38 OFFCURVE",
"384 38 CURVE SMOOTH",
"351 38 OFFCURVE",
"332 57 OFFCURVE",
"332 87 CURVE SMOOTH",
"332 98 OFFCURVE",
"335 110 OFFCURVE",
"341 124 CURVE",
"328 131 OFFCURVE",
"315 134 OFFCURVE",
"303 134 CURVE SMOOTH",
"272 134 OFFCURVE",
"248 111 OFFCURVE",
"248 76 CURVE SMOOTH",
"248 76 LINE"
);
}
);
width = 605;
},
{
layerId = "0EBA3A65-8808-4583-9AA2-2A9BC4F414AB";
paths = (
{
closed = 1;
nodes = (
"545 -5 OFFCURVE",
"636 70 OFFCURVE",
"636 172 CURVE SMOOTH",
"636 270 OFFCURVE",
"540 344 OFFCURVE",
"388 371 CURVE",
"484 406 OFFCURVE",
"551 471 OFFCURVE",
"551 535 CURVE SMOOTH",
"551 642 OFFCURVE",
"453 686 OFFCURVE",
"320 686 CURVE SMOOTH",
"176 686 OFFCURVE",
"84 629 OFFCURVE",
"84 515 CURVE SMOOTH",
"84 62 LINE",
"65 46 OFFCURVE",
"49 41 OFFCURVE",
"18 36 CURVE",
"14 0 LINE",
"224 0 LINE",
"224 470 LINE SMOOTH",
"224 553 OFFCURVE",
"228 632 OFFCURVE",
"316 632 CURVE SMOOTH",
"375 632 OFFCURVE",
"403 595 OFFCURVE",
"403 538 CURVE SMOOTH",
"403 478 OFFCURVE",
"347 412 OFFCURVE",
"293 401 CURVE",
"293 328 LINE",
"432 311 OFFCURVE",
"489 264 OFFCURVE",
"489 171 CURVE SMOOTH",
"489 90 OFFCURVE",
"466 48 OFFCURVE",
"423 48 CURVE SMOOTH",
"397 48 OFFCURVE",
"373 65 OFFCURVE",
"373 96 CURVE SMOOTH",
"373 110 OFFCURVE",
"376 124 OFFCURVE",
"386 134 CURVE",
"370 147 OFFCURVE",
"353 154 OFFCURVE",
"335 154 CURVE SMOOTH",
"300 154 OFFCURVE",
"268 130 OFFCURVE",
"268 87 CURVE SMOOTH",
"268 24 OFFCURVE",
"326 -5 OFFCURVE",
"431 -5 CURVE SMOOTH",
"431 -5 LINE"
);
}
);
width = 677;
}
);
unicode = 00DF;
},
{
glyphname = longs;
lastChange = "2019-08-19 16:07:20 +0000";
layers = (
{
anchors = (
{
name = top;
position = "{156, 156}";
}
);
layerId = UUID0;
paths = (
{
closed = 1;
nodes = (
"77 46 OFFCURVE",
"62 41 OFFCURVE",
"32 36 CURVE",
"28 0 LINE",
"183 0 LINE",
"183 470 LINE SMOOTH",
"183 507 OFFCURVE",
"171 554 OFFCURVE",
"171 586 CURVE SMOOTH",
"171 627 OFFCURVE",
"185 665 OFFCURVE",
"234 665 CURVE SMOOTH",
"265 665 OFFCURVE",
"283 647 OFFCURVE",
"283 627 CURVE SMOOTH",
"283 615 OFFCURVE",
"277 603 OFFCURVE",
"265 591 CURVE",
"269 565 OFFCURVE",
"289 552 OFFCURVE",
"310 552 CURVE SMOOTH",
"335 552 OFFCURVE",
"362 572 OFFCURVE",
"362 614 CURVE SMOOTH",
"362 670 OFFCURVE",
"304 709 OFFCURVE",
"241 709 CURVE SMOOTH",
"134 709 OFFCURVE",
"98 625 OFFCURVE",
"98 524 CURVE SMOOTH",
"98 62 LINE"
);
}
);
width = 279;
},
{
anchors = (
{
name = top;
position = "{156, 156}";
}
);
layerId = "0EBA3A65-8808-4583-9AA2-2A9BC4F414AB";
paths = (
{
closed = 1;
nodes = (
"225 478 LINE SMOOTH",
"225 511 OFFCURVE",
"205 555 OFFCURVE",
"205 588 CURVE SMOOTH",
"205 627 OFFCURVE",
"218 670 OFFCURVE",
"263 670 CURVE SMOOTH",
"291 670 OFFCURVE",
"305 655 OFFCURVE",
"305 631 CURVE SMOOTH",
"305 617 OFFCURVE",
"298 602 OFFCURVE",
"285 591 CURVE",
"291 564 OFFCURVE",
"317 548 OFFCURVE",
"344 548 CURVE SMOOTH",
"375 548 OFFCURVE",
"407 568 OFFCURVE",
"407 615 CURVE SMOOTH",
"407 684 OFFCURVE",
"323 709 OFFCURVE",
"269 709 CURVE SMOOTH",
"156 709 OFFCURVE",
"84 628 OFFCURVE",
"84 522 CURVE SMOOTH",
"84 62 LINE",
"64 46 OFFCURVE",
"48 41 OFFCURVE",
"18 36 CURVE",
"14 0 LINE",
"225 0 LINE"
);
}
);
width = 321;
}
);
unicode = 017F;
},
{
glyphname = eng;
lastChange = "2019-08-19 16:07:20 +0000";
layers = (
{
layerId = UUID0;
paths = (
{
closed = 1;
nodes = (
"226 40 OFFCURVE",
"202 49 OFFCURVE",
"185 62 CURVE",
"185 344 LINE",
"206 394 OFFCURVE",
"252 428 OFFCURVE",
"297 428 CURVE SMOOTH",
"354 428 OFFCURVE",
"383 396 OFFCURVE",
"383 329 CURVE SMOOTH",
"383 139 LINE SMOOTH",
"383 50 OFFCURVE",
"395 28 OFFCURVE",
"395 -42 CURVE SMOOTH",
"395 -78 OFFCURVE",
"387 -107 OFFCURVE",
"357 -107 CURVE SMOOTH",
"334 -107 OFFCURVE",
"323 -90 OFFCURVE",
"323 -71 CURVE SMOOTH",
"323 -58 OFFCURVE",
"328 -45 OFFCURVE",
"335 -38 CURVE",
"329 -25 OFFCURVE",
"315 -19 OFFCURVE",
"298 -19 CURVE SMOOTH",
"270 -19 OFFCURVE",
"251 -44 OFFCURVE",
"251 -73 CURVE SMOOTH",
"251 -130 OFFCURVE",
"301 -150 OFFCURVE",
"354 -150 CURVE SMOOTH",
"452 -150 OFFCURVE",
"468 -58 OFFCURVE",
"468 33 CURVE SMOOTH",
"468 338 LINE SMOOTH",
"468 425 OFFCURVE",
"411 476 OFFCURVE",
"314 476 CURVE SMOOTH",
"263 476 OFFCURVE",
"213 448 OFFCURVE",
"182 405 CURVE",
"173 467 LINE",
"155 476 LINE",
"117 465 OFFCURVE",
"76 450 OFFCURVE",
"33 442 CURVE",
"30 413 LINE",
"81 411 OFFCURVE",
"100 397 OFFCURVE",
"100 347 CURVE SMOOTH",
"100 62 LINE",
"80 46 OFFCURVE",
"63 41 OFFCURVE",
"34 36 CURVE",
"30 0 LINE",
"251 0 LINE",
"255 34 LINE"
);
}
);
width = 551;
},
{
layerId = "0EBA3A65-8808-4583-9AA2-2A9BC4F414AB";
paths = (
{
closed = 1;
nodes = (
"379 48 OFFCURVE",
"406 21 OFFCURVE",
"406 -54 CURVE SMOOTH",
"406 -97 OFFCURVE",
"388 -115 OFFCURVE",
"370 -115 CURVE SMOOTH",
"346 -115 OFFCURVE",
"336 -98 OFFCURVE",
"336 -79 CURVE SMOOTH",
"336 -66 OFFCURVE",
"341 -52 OFFCURVE",
"350 -43 CURVE",
"339 -26 OFFCURVE",
"321 -18 OFFCURVE",
"304 -18 CURVE SMOOTH",
"267 -18 OFFCURVE",
"241 -43 OFFCURVE",
"241 -80 CURVE SMOOTH",
"241 -136 OFFCURVE",
"302 -164 OFFCURVE",
"365 -164 CURVE SMOOTH",
"416 -164 OFFCURVE",
"470 -146 OFFCURVE",
"494 -107 CURVE SMOOTH",
"515 -72 OFFCURVE",
"520 -26 OFFCURVE",
"520 21 CURVE SMOOTH",
"520 338 LINE SMOOTH",
"520 435 OFFCURVE",
"460 492 OFFCURVE",
"371 492 CURVE SMOOTH",
"310 492 OFFCURVE",
"259 466 OFFCURVE",
"224 425 CURVE",
"216 483 LINE",
"198 492 LINE",
"160 481 OFFCURVE",
"70 466 OFFCURVE",
"27 458 CURVE",
"24 419 LINE",
"70 417 OFFCURVE",
"87 403 OFFCURVE",
"87 354 CURVE SMOOTH",
"87 66 LINE",
"70 51 OFFCURVE",
"59 46 OFFCURVE",
"34 41 CURVE",
"31 0 LINE",
"284 0 LINE",
"288 39 LINE",
"263 45 OFFCURVE",
"243 54 OFFCURVE",
"228 66 CURVE",
"228 370 LINE",
"247 403 OFFCURVE",
"283 425 OFFCURVE",
"317 425 CURVE SMOOTH",
"359 425 OFFCURVE",
"379 394 OFFCURVE",
"379 329 CURVE SMOOTH",
"379 140 LINE"
);
}
);
width = 599;
}
);
unicode = 014B;
},
{
glyphname = eth;
lastChange = "2019-08-19 16:07:20 +0000";
layers = (
{
layerId = UUID0;
paths = (
{
closed = 1;
nodes = (
"381 97 OFFCURVE",
"346 39 OFFCURVE",
"262 39 CURVE SMOOTH",
"179 39 OFFCURVE",
"144 100 OFFCURVE",
"144 225 CURVE SMOOTH",
"144 357 OFFCURVE",
"192 434 OFFCURVE",
"273 434 CURVE SMOOTH",
"326 434 OFFCURVE",
"349 421 OFFCURVE",
"370 408 CURVE",
"377 371 OFFCURVE",
"381 328 OFFCURVE",
"381 235 CURVE SMOOTH",
"381 235 LINE"
);
},
{
closed = 1;
nodes = (
"430 631 LINE",
"410 676 LINE",
"296 630 LINE",
"259 654 OFFCURVE",
"207 675 OFFCURVE",
"155 694 CURVE",
"138 651 LINE",
"172 637 OFFCURVE",
"207 622 OFFCURVE",
"233 605 CURVE",
"114 557 LINE",
"131 517 LINE",
"278 573 LINE",
"313 543 OFFCURVE",
"338 508 OFFCURVE",
"355 461 CURVE",
"331 471 OFFCURVE",
"306 476 OFFCURVE",
"276 476 CURVE SMOOTH",
"134 476 OFFCURVE",
"56 388 OFFCURVE",
"56 225 CURVE SMOOTH",
"56 78 OFFCURVE",
"125 -7 OFFCURVE",
"262 -7 CURVE SMOOTH",
"399 -7 OFFCURVE",
"469 78 OFFCURVE",
"469 235 CURVE SMOOTH",
"469 277 LINE SMOOTH",
"469 434 OFFCURVE",
"429 530 OFFCURVE",
"344 599 CURVE",
"344 599 LINE"
);
}
);
width = 530;
},
{
layerId = "0EBA3A65-8808-4583-9AA2-2A9BC4F414AB";
paths = (
{
closed = 1;
nodes = (
"285 556 LINE",
"309 532 OFFCURVE",
"327 504 OFFCURVE",
"340 470 CURVE",
"324 474 OFFCURVE",
"307 476 OFFCURVE",
"289 476 CURVE SMOOTH",
"122 476 OFFCURVE",
"35 388 OFFCURVE",
"35 225 CURVE SMOOTH",
"35 75 OFFCURVE",
"125 -7 OFFCURVE",
"275 -7 CURVE SMOOTH",
"425 -7 OFFCURVE",
"516 75 OFFCURVE",
"516 235 CURVE SMOOTH",
"516 267 LINE SMOOTH",
"516 411 OFFCURVE",
"465 517 OFFCURVE",
"378 591 CURVE",
"448 617 LINE",
"423 678 LINE",
"316 635 LINE",
"267 663 OFFCURVE",
"211 685 OFFCURVE",
"150 700 CURVE",
"126 651 LINE",
"166 635 OFFCURVE",
"200 619 OFFCURVE",
"229 600 CURVE",
"127 559 LINE",
"149 505 LINE"
);
},
{
closed = 1;
nodes = (
"369 239 LINE SMOOTH",
"369 112 OFFCURVE",
"344 49 OFFCURVE",
"275 49 CURVE SMOOTH",
"206 49 OFFCURVE",
"182 118 OFFCURVE",
"182 228 CURVE SMOOTH",
"182 349 OFFCURVE",
"221 420 OFFCURVE",
"286 420 CURVE SMOOTH",
"320 420 OFFCURVE",
"342 414 OFFCURVE",
"358 407 CURVE",
"365 370 OFFCURVE",
"369 327 OFFCURVE",
"369 278 CURVE",
"369 278 LINE"
);
}
);
width = 572;
}
);
unicode = 00F0;
},
{
glyphname = thorn;
lastChange = "2019-08-19 16:07:20 +0000";
layers = (
{
layerId = UUID0;
paths = (
{
closed = 1;
nodes = (
"219 -171 OFFCURVE",
"195 -162 OFFCURVE",
"179 -149 CURVE",
"179 9 LINE",
"205 -2 OFFCURVE",
"231 -7 OFFCURVE",
"264 -7 CURVE SMOOTH",
"410 -7 OFFCURVE",
"490 81 OFFCURVE",
"490 244 CURVE SMOOTH",
"490 398 OFFCURVE",
"428 476 OFFCURVE",
"307 476 CURVE SMOOTH",
"249 476 OFFCURVE",
"207 454 OFFCURVE",
"179 410 CURVE",
"179 687 LINE",
"159 697 LINE",
"118 685 OFFCURVE",
"71 670 OFFCURVE",
"26 662 CURVE",
"24 633 LINE",
"75 631 OFFCURVE",
"93 617 OFFCURVE",
"93 567 CURVE SMOOTH",
"93 -149 LINE",
"73 -164 OFFCURVE",
"57 -170 OFFCURVE",
"27 -174 CURVE",
"24 -210 LINE",
"245 -210 LINE",
"248 -176 LINE"
);
},
{
closed = 1;
nodes = (
"369 433 OFFCURVE",
"402 374 OFFCURVE",
"402 244 CURVE SMOOTH",
"402 111 OFFCURVE",
"352 35 OFFCURVE",
"267 35 CURVE SMOOTH",
"222 35 OFFCURVE",
"198 44 OFFCURVE",
"179 54 CURVE",
"179 245 LINE SMOOTH",
"179 370 OFFCURVE",
"221 433 OFFCURVE",
"298 433 CURVE SMOOTH",
"298 433 LINE"
);
}
);
width = 547;
},
{
layerId = "0EBA3A65-8808-4583-9AA2-2A9BC4F414AB";
paths = (
{
closed = 1;
nodes = (
"83 -145 LINE",
"67 -160 OFFCURVE",
"55 -165 OFFCURVE",
"31 -170 CURVE",
"27 -211 LINE",
"294 -211 LINE",
"298 -172 LINE",
"264 -166 OFFCURVE",
"238 -154 OFFCURVE",
"224 -145 CURVE",
"224 8 LINE",
"253 -2 OFFCURVE",
"284 -7 OFFCURVE",
"318 -7 CURVE SMOOTH",
"458 -7 OFFCURVE",
"544 83 OFFCURVE",
"544 258 CURVE SMOOTH",
"544 411 OFFCURVE",
"478 492 OFFCURVE",
"360 492 CURVE SMOOTH",
"298 492 OFFCURVE",
"253 469 OFFCURVE",
"224 425 CURVE",
"224 687 LINE",
"207 697 LINE",
"168 686 OFFCURVE",
"66 671 OFFCURVE",
"23 663 CURVE",
"21 624 LINE",
"66 622 OFFCURVE",
"83 608 OFFCURVE",
"83 558 CURVE",
"83 558 LINE"
);
},
{
closed = 1;
nodes = (
"372 432 OFFCURVE",
"398 376 OFFCURVE",
"398 256 CURVE SMOOTH",
"398 121 OFFCURVE",
"365 46 OFFCURVE",
"290 46 CURVE SMOOTH",
"263 46 OFFCURVE",
"238 55 OFFCURVE",
"224 65 CURVE",
"224 268 LINE SMOOTH",
"224 377 OFFCURVE",
"259 432 OFFCURVE",
"315 432 CURVE SMOOTH",
"315 432 LINE"
);
}
);
width = 591;
}
);
unicode = 00FE;
},
{
glyphname = ampersand;
lastChange = "2019-08-19 16:07:20 +0000";
layers = (
{
layerId = UUID0;
paths = (
{
closed = 1;
nodes = (
"44 69 OFFCURVE",
"141 -8 OFFCURVE",
"313 -8 CURVE SMOOTH",
"471 -8 OFFCURVE",
"581 78 OFFCURVE",
"581 237 CURVE SMOOTH",
"581 288 OFFCURVE",
"571 339 OFFCURVE",
"552 385 CURVE",
"644 387 OFFCURVE",
"691 421 OFFCURVE",
"691 481 CURVE SMOOTH",
"691 514 OFFCURVE",
"671 537 OFFCURVE",
"641 537 CURVE SMOOTH",
"625 537 OFFCURVE",
"610 530 OFFCURVE",
"598 518 CURVE",
"610 507 OFFCURVE",
"617 492 OFFCURVE",
"617 476 CURVE SMOOTH",
"617 440 OFFCURVE",
"585 426 OFFCURVE",
"514 426 CURVE SMOOTH",
"404 426 OFFCURVE",
"355 394 OFFCURVE",
"355 335 CURVE SMOOTH",
"355 300 OFFCURVE",
"376 275 OFFCURVE",
"405 275 CURVE SMOOTH",
"422 275 OFFCURVE",
"437 282 OFFCURVE",
"449 294 CURVE",
"437 304 OFFCURVE",
"429 319 OFFCURVE",
"429 335 CURVE SMOOTH",
"429 366 OFFCURVE",
"451 381 OFFCURVE",
"504 384 CURVE",
"518 342 OFFCURVE",
"527 297 OFFCURVE",
"527 251 CURVE SMOOTH",
"527 106 OFFCURVE",
"425 42 OFFCURVE",
"312 42 CURVE SMOOTH",
"208 42 OFFCURVE",
"136 92 OFFCURVE",
"136 200 CURVE SMOOTH",
"136 291 OFFCURVE",
"199 352 OFFCURVE",
"296 364 CURVE",
"296 412 LINE",
"209 414 OFFCURVE",
"183 472 OFFCURVE",
"183 517 CURVE SMOOTH",
"183 588 OFFCURVE",
"219 631 OFFCURVE",
"284 631 CURVE SMOOTH",
"334 631 OFFCURVE",
"376 611 OFFCURVE",
"376 553 CURVE SMOOTH",
"376 537 OFFCURVE",
"369 523 OFFCURVE",
"362 512 CURVE",
"373 496 OFFCURVE",
"392 486 OFFCURVE",
"410 486 CURVE SMOOTH",
"439 486 OFFCURVE",
"463 511 OFFCURVE",
"463 552 CURVE SMOOTH",
"463 627 OFFCURVE",
"385 670 OFFCURVE",
"284 670 CURVE SMOOTH",
"184 670 OFFCURVE",
"97 625 OFFCURVE",
"97 518 CURVE SMOOTH",
"97 452 OFFCURVE",
"131 409 OFFCURVE",
"182 386 CURVE",
"94 356 OFFCURVE",
"44 295 OFFCURVE",
"44 196 CURVE SMOOTH",
"44 196 LINE"
);
}
);
width = 687;
},
{
layerId = "0EBA3A65-8808-4583-9AA2-2A9BC4F414AB";
paths = (
{
closed = 1;
nodes = (
"32 64 OFFCURVE",
"168 -6 OFFCURVE",
"316 -6 CURVE SMOOTH",
"523 -6 OFFCURVE",
"620 123 OFFCURVE",
"620 275 CURVE SMOOTH",
"620 313 OFFCURVE",
"614 351 OFFCURVE",
"602 390 CURVE",
"685 402 OFFCURVE",
"726 433 OFFCURVE",
"726 488 CURVE SMOOTH",
"726 524 OFFCURVE",
"698 549 OFFCURVE",
"656 549 CURVE SMOOTH",
"632 549 OFFCURVE",
"609 542 OFFCURVE",
"593 530 CURVE",
"605 519 OFFCURVE",
"612 504 OFFCURVE",
"612 488 CURVE SMOOTH",
"612 456 OFFCURVE",
"586 443 OFFCURVE",
"521 443 CURVE SMOOTH",
"397 443 OFFCURVE",
"346 401 OFFCURVE",
"346 339 CURVE SMOOTH",
"346 298 OFFCURVE",
"375 269 OFFCURVE",
"416 269 CURVE SMOOTH",
"440 269 OFFCURVE",
"461 276 OFFCURVE",
"478 288 CURVE",
"468 300 OFFCURVE",
"463 317 OFFCURVE",
"463 332 CURVE SMOOTH",
"463 355 OFFCURVE",
"474 376 OFFCURVE",
"500 378 CURVE",
"513 340 OFFCURVE",
"520 300 OFFCURVE",
"520 261 CURVE SMOOTH",
"520 148 OFFCURVE",
"461 47 OFFCURVE",
"325 47 CURVE SMOOTH",
"248 47 OFFCURVE",
"179 94 OFFCURVE",
"179 200 CURVE SMOOTH",
"179 279 OFFCURVE",
"233 332 OFFCURVE",
"312 344 CURVE",
"312 427 LINE",
"249 429 OFFCURVE",
"229 478 OFFCURVE",
"229 528 CURVE SMOOTH",
"229 583 OFFCURVE",
"255 623 OFFCURVE",
"307 623 CURVE SMOOTH",
"349 623 OFFCURVE",
"378 598 OFFCURVE",
"378 559 CURVE SMOOTH",
"378 543 OFFCURVE",
"373 524 OFFCURVE",
"362 504 CURVE",
"380 487 OFFCURVE",
"400 480 OFFCURVE",
"420 480 CURVE SMOOTH",
"469 480 OFFCURVE",
"503 523 OFFCURVE",
"503 567 CURVE SMOOTH",
"503 659 OFFCURVE",
"376 687 OFFCURVE",
"302 687 CURVE SMOOTH",
"189 687 OFFCURVE",
"81 633 OFFCURVE",
"81 518 CURVE SMOOTH",
"81 452 OFFCURVE",
"115 409 OFFCURVE",
"166 386 CURVE",
"78 356 OFFCURVE",
"32 295 OFFCURVE",
"32 196 CURVE SMOOTH",
"32 196 LINE"
);
}
);
width = 740;
}
);
unicode = 0026;
},
{
glyphname = grave;
lastChange = "2019-08-19 16:07:20 +0000";
layers = (
{
anchors = (
{
name = _top;
position = "{157, 523}";
}
);
layerId = UUID0;
paths = (
{
closed = 1;
nodes = (
"125 664 LINE SMOOTH",
"116 676 OFFCURVE",
"107 681 OFFCURVE",
"93 681 CURVE SMOOTH",
"74 681 OFFCURVE",
"57 664 OFFCURVE",
"57 646 CURVE SMOOTH",
"57 630 OFFCURVE",
"67 620 OFFCURVE",
"82 607 CURVE SMOOTH",
"184 524 LINE",
"208 548 LINE"
);
}
);
width = 285;
},
{
anchors = (
{
name = _top;
position = "{165, 523}";
}
);
layerId = "0EBA3A65-8808-4583-9AA2-2A9BC4F414AB";
paths = (
{
closed = 1;
nodes = (
"224 557 LINE",
"144 676 LINE SMOOTH",
"127 701 OFFCURVE",
"105 710 OFFCURVE",
"87 710 CURVE SMOOTH",
"59 710 OFFCURVE",
"40 691 OFFCURVE",
"40 663 CURVE",
"41 645 OFFCURVE",
"50 623 OFFCURVE",
"73 607 CURVE SMOOTH",
"190 524 LINE"
);
}
);
width = 285;
}
);
unicode = 0060;
},
{
glyphname = acute;
lastChange = "2019-08-19 16:07:20 +0000";
layers = (
{
anchors = (
{
name = _top;
position = "{102, 523}";
}
);
layerId = UUID0;
paths = (
{
closed = 1;
nodes = (
"193 607 LINE SMOOTH",
"208 620 OFFCURVE",
"218 630 OFFCURVE",
"218 646 CURVE SMOOTH",
"218 664 OFFCURVE",
"201 681 OFFCURVE",
"182 681 CURVE SMOOTH",
"168 681 OFFCURVE",
"159 676 OFFCURVE",
"150 664 CURVE SMOOTH",
"67 548 LINE",
"89 524 LINE"
);
}
);
width = 285;
},
{
anchors = (
{
name = _top;
position = "{103, 523}";
}
);
layerId = "0EBA3A65-8808-4583-9AA2-2A9BC4F414AB";
paths = (
{
closed = 1;
nodes = (
"214 630 OFFCURVE",
"223 652 OFFCURVE",
"223 670 CURVE SMOOTH",
"223 698 OFFCURVE",
"205 717 OFFCURVE",
"177 717 CURVE SMOOTH",
"158 717 OFFCURVE",
"136 708 OFFCURVE",
"120 683 CURVE SMOOTH",
"40 564 LINE",
"74 531 LINE",
"191 614 LINE"
);
}
);
width = 285;
}
);
unicode = 00B4;
},
{
glyphname = circumflex;
lastChange = "2019-08-19 16:07:20 +0000";
layers = (
{
anchors = (
{
name = _top;
position = "{142, 523}";
}
);
layerId = UUID0;
paths = (
{
closed = 1;
nodes = (
"174 655 LINE SMOOTH",
"165 666 OFFCURVE",
"155 671 OFFCURVE",
"143 671 CURVE SMOOTH",
"131 671 OFFCURVE",
"121 665 OFFCURVE",
"112 655 CURVE SMOOTH",
"19 548 LINE",
"41 524 LINE",
"142 601 LINE",
"243 524 LINE",
"266 548 LINE"
);
}
);
width = 285;
},
{
anchors = (
{
name = _top;
position = "{190, 531}";
}
);
layerId = "0EBA3A65-8808-4583-9AA2-2A9BC4F414AB";
paths = (
{
closed = 1;
nodes = (
"338 568 LINE",
"243 675 LINE SMOOTH",
"226 694 OFFCURVE",
"214 702 OFFCURVE",
"193 702 CURVE SMOOTH",
"169 702 OFFCURVE",
"152 694 OFFCURVE",
"135 675 CURVE SMOOTH",
"40 568 LINE",
"69 531 LINE",
"189 614 LINE",
"309 531 LINE"
);
}
);
width = 285;
}
);
unicode = 02C6;
},
{
glyphname = caron;
lastChange = "2019-08-19 16:07:20 +0000";
layers = (
{
anchors = (
{
name = _top;
position = "{143, 523}";
}
);
layerId = UUID0;
paths = (
{
closed = 1;
nodes = (
"143 594 LINE",
"42 671 LINE",
"20 646 LINE",
"112 540 LINE SMOOTH",
"121 530 OFFCURVE",
"131 524 OFFCURVE",
"143 524 CURVE SMOOTH",
"155 524 OFFCURVE",
"165 529 OFFCURVE",
"174 540 CURVE SMOOTH",
"267 646 LINE",
"245 671 LINE"
);
}
);
width = 285;
},
{
anchors = (
{
name = _top;
position = "{191, 531}";
}
);
layerId = "0EBA3A65-8808-4583-9AA2-2A9BC4F414AB";
paths = (
{
closed = 1;
nodes = (
"69 702 LINE",
"40 665 LINE",
"135 558 LINE SMOOTH",
"152 539 OFFCURVE",
"169 531 OFFCURVE",
"191 531 CURVE SMOOTH",
"208 531 OFFCURVE",
"229 542 OFFCURVE",
"243 558 CURVE SMOOTH",
"338 665 LINE",
"309 702 LINE",
"189 619 LINE"
);
}
);
width = 285;
}
);
unicode = 02C7;
},
{
glyphname = tilde;
lastChange = "2019-08-19 16:07:20 +0000";
layers = (
{
anchors = (
{
name = _top;
position = "{166, 523}";
}
);
layerId = UUID0;
paths = (
{
closed = 1;
nodes = (
"61 570 OFFCURVE",
"81 586 OFFCURVE",
"107 586 CURVE SMOOTH",
"148 586 OFFCURVE",
"176 551 OFFCURVE",
"225 551 CURVE SMOOTH",
"275 551 OFFCURVE",
"311 604 OFFCURVE",
"323 631 CURVE",
"313 639 OFFCURVE",
"304 645 OFFCURVE",
"290 650 CURVE",
"271 631 OFFCURVE",
"252 613 OFFCURVE",
"224 613 CURVE SMOOTH",
"185 613 OFFCURVE",
"154 648 OFFCURVE",
"110 648 CURVE SMOOTH",
"55 648 OFFCURVE",
"21 597 OFFCURVE",
"10 570 CURVE",
"19 562 OFFCURVE",
"28 555 OFFCURVE",
"42 551 CURVE",
"42 551 LINE"
);
}
);
width = 285;
},
{
anchors = (
{
name = _top;
position = "{203, 531}";
}
);
background = {
paths = (
{
closed = 1;
nodes = (
"224 639 OFFCURVE",
"182 679 OFFCURVE",
"142 679 CURVE SMOOTH",
"96 679 OFFCURVE",
"58 641 OFFCURVE",
"32 585 CURVE",
"46 570 OFFCURVE",
"71 558 OFFCURVE",
"85 553 CURVE",
"103 577 OFFCURVE",
"123 591 OFFCURVE",
"143 591 CURVE SMOOTH",
"183 591 OFFCURVE",
"226 552 OFFCURVE",
"266 552 CURVE SMOOTH",
"312 552 OFFCURVE",
"349 591 OFFCURVE",
"375 647 CURVE",
"361 661 OFFCURVE",
"336 673 OFFCURVE",
"322 678 CURVE",
"305 655 OFFCURVE",
"284 639 OFFCURVE",
"264 639 CURVE SMOOTH"
);
}
);
};
layerId = "0EBA3A65-8808-4583-9AA2-2A9BC4F414AB";
paths = (
{
closed = 1;
nodes = (
"227 639 OFFCURVE",
"185 679 OFFCURVE",
"144 679 CURVE SMOOTH",
"97 679 OFFCURVE",
"58 641 OFFCURVE",
"32 585 CURVE",
"45 570 OFFCURVE",
"67 558 OFFCURVE",
"80 553 CURVE",
"98 577 OFFCURVE",
"119 591 OFFCURVE",
"139 591 CURVE SMOOTH",
"180 591 OFFCURVE",
"223 552 OFFCURVE",
"264 552 CURVE SMOOTH",
"311 552 OFFCURVE",
"349 591 OFFCURVE",
"375 647 CURVE",
"362 661 OFFCURVE",
"340 673 OFFCURVE",
"327 678 CURVE",
"310 655 OFFCURVE",
"288 639 OFFCURVE",
"268 639 CURVE SMOOTH",
"268 639 LINE"
);
}
);
width = 285;
}
);
unicode = 02DC;
},
{
glyphname = dieresis;
lastChange = "2019-08-19 16:07:20 +0000";
layers = (
{
anchors = (
{
name = _top;
position = "{142, 523}";
}
);
layerId = UUID0;
paths = (
{
closed = 1;
nodes = (
"90 552 OFFCURVE",
"106 571 OFFCURVE",
"106 605 CURVE SMOOTH",
"106 638 OFFCURVE",
"90 657 OFFCURVE",
"59 657 CURVE SMOOTH",
"26 657 OFFCURVE",
"12 638 OFFCURVE",
"12 605 CURVE SMOOTH",
"12 571 OFFCURVE",
"26 552 OFFCURVE",
"59 552 CURVE SMOOTH",
"59 552 LINE"
);
},
{
closed = 1;
nodes = (
"257 552 OFFCURVE",
"273 571 OFFCURVE",
"273 605 CURVE SMOOTH",
"273 638 OFFCURVE",
"257 657 OFFCURVE",
"225 657 CURVE SMOOTH",
"193 657 OFFCURVE",
"179 638 OFFCURVE",
"179 605 CURVE SMOOTH",
"179 571 OFFCURVE",
"193 552 OFFCURVE",
"225 552 CURVE SMOOTH",
"225 552 LINE"
);
}
);
width = 285;
},
{
anchors = (
{
name = _top;
position = "{188, 523}";
}
);
layerId = "0EBA3A65-8808-4583-9AA2-2A9BC4F414AB";
paths = (
{
closed = 1;
nodes = (
"148 541 OFFCURVE",
"171 561 OFFCURVE",
"171 598 CURVE SMOOTH",
"171 633 OFFCURVE",
"148 653 OFFCURVE",
"105 653 CURVE SMOOTH",
"59 653 OFFCURVE",
"40 633 OFFCURVE",
"40 598 CURVE SMOOTH",
"40 561 OFFCURVE",
"59 541 OFFCURVE",
"105 541 CURVE SMOOTH",
"105 541 LINE"
);
},
{
closed = 1;
nodes = (
"312 541 OFFCURVE",
"335 561 OFFCURVE",
"335 598 CURVE SMOOTH",
"335 633 OFFCURVE",
"312 653 OFFCURVE",
"268 653 CURVE SMOOTH",
"223 653 OFFCURVE",
"203 633 OFFCURVE",
"203 598 CURVE SMOOTH",
"203 561 OFFCURVE",
"223 541 OFFCURVE",
"268 541 CURVE SMOOTH",
"268 541 LINE"
);
}
);
width = 285;
}
);
unicode = 00A8;
},
{
glyphname = macron;
lastChange = "2019-08-19 16:07:20 +0000";
layers = (
{
anchors = (
{
name = _top;
position = "{142, 523}";
}
);
layerId = UUID0;
paths = (
{
closed = 1;
nodes = (
"281 570 LINE",
"281 614 LINE",
"3 614 LINE",
"3 570 LINE"
);
}
);
width = 285;
},
{
anchors = (
{
name = _top;
position = "{197, 523}";
}
);
layerId = "0EBA3A65-8808-4583-9AA2-2A9BC4F414AB";
paths = (
{
closed = 1;
nodes = (
"351 558 LINE",
"351 626 LINE",
"40 626 LINE",
"40 558 LINE"
);
}
);
width = 285;
}
);
unicode = 00AF;
},
{
glyphname = breve;
lastChange = "2019-08-19 16:07:20 +0000";
layers = (
{
anchors = (
{
name = _top;
position = "{138, 523}";
}
);
layerId = UUID0;
paths = (
{
closed = 1;
nodes = (
"205 536 OFFCURVE",
"252 583 OFFCURVE",
"255 655 CURVE",
"244 659 OFFCURVE",
"233 661 OFFCURVE",
"217 661 CURVE",
"214 619 OFFCURVE",
"184 590 OFFCURVE",
"138 590 CURVE SMOOTH",
"93 590 OFFCURVE",
"63 619 OFFCURVE",
"60 661 CURVE",
"44 661 OFFCURVE",
"33 658 OFFCURVE",
"21 654 CURVE",
"25 583 OFFCURVE",
"71 536 OFFCURVE",
"138 536 CURVE SMOOTH",
"138 536 LINE"
);
}
);
width = 285;
},
{
anchors = (
{
name = _top;
position = "{173, 523}";
}
);
layerId = "0EBA3A65-8808-4583-9AA2-2A9BC4F414AB";
paths = (
{
closed = 1;
nodes = (
"253 527 OFFCURVE",
"308 581 OFFCURVE",
"315 664 CURVE",
"297 671 OFFCURVE",
"284 674 OFFCURVE",
"256 674 CURVE",
"249 630 OFFCURVE",
"220 605 OFFCURVE",
"173 605 CURVE SMOOTH",
"126 605 OFFCURVE",
"97 630 OFFCURVE",
"90 674 CURVE",
"60 674 OFFCURVE",
"48 672 OFFCURVE",
"30 663 CURVE",
"37 580 OFFCURVE",
"93 527 OFFCURVE",
"173 527 CURVE SMOOTH",
"173 527 LINE"
);
}
);
width = 285;
}
);
unicode = 02D8;
},
{
glyphname = ring;
lastChange = "2019-08-19 16:07:20 +0000";
layers = (
{
anchors = (
{
name = _top;
position = "{143, 523}";
}
);
layerId = UUID0;
paths = (
{
closed = 1;
nodes = (
"194 523 OFFCURVE",
"229 558 OFFCURVE",
"229 605 CURVE SMOOTH",
"229 653 OFFCURVE",
"194 688 OFFCURVE",
"143 688 CURVE SMOOTH",
"91 688 OFFCURVE",
"58 653 OFFCURVE",
"58 605 CURVE SMOOTH",
"58 558 OFFCURVE",
"91 523 OFFCURVE",
"143 523 CURVE SMOOTH",
"143 523 LINE"
);
},
{
closed = 1;
nodes = (
"118 562 OFFCURVE",
"100 582 OFFCURVE",
"100 605 CURVE SMOOTH",
"100 629 OFFCURVE",
"118 650 OFFCURVE",
"143 650 CURVE SMOOTH",
"167 650 OFFCURVE",
"188 629 OFFCURVE",
"188 605 CURVE SMOOTH",
"188 582 OFFCURVE",
"167 562 OFFCURVE",
"143 562 CURVE SMOOTH",
"143 562 LINE"
);
}
);
width = 285;
},
{
anchors = (
{
name = _top;
position = "{152, 531}";
}
);
layerId = "0EBA3A65-8808-4583-9AA2-2A9BC4F414AB";
paths = (
{
closed = 1;
nodes = (
"40 575 OFFCURVE",
"83 530 OFFCURVE",
"152 530 CURVE SMOOTH",
"221 530 OFFCURVE",
"265 575 OFFCURVE",
"265 632 CURVE SMOOTH",
"265 689 OFFCURVE",
"221 735 OFFCURVE",
"152 735 CURVE SMOOTH",
"83 735 OFFCURVE",
"40 689 OFFCURVE",
"40 632 CURVE SMOOTH",
"40 632 LINE"
);
},
{
closed = 1;
nodes = (
"112 663 OFFCURVE",
"123 688 OFFCURVE",
"152 688 CURVE SMOOTH",
"181 688 OFFCURVE",
"193 663 OFFCURVE",
"193 632 CURVE SMOOTH",
"193 601 OFFCURVE",
"181 577 OFFCURVE",
"152 577 CURVE SMOOTH",
"123 577 OFFCURVE",
"112 601 OFFCURVE",
"112 632 CURVE SMOOTH",
"112 632 LINE"
);
}
);
width = 285;
}
);
unicode = 02DA;
},
{
glyphname = hungarumlaut;
lastChange = "2019-08-19 16:07:20 +0000";
layers = (
{
anchors = (
{
name = _top;
position = "{148, 523}";
}
);
layerId = UUID0;
paths = (
{
closed = 1;
nodes = (
"179 609 LINE SMOOTH",
"191 621 OFFCURVE",
"199 634 OFFCURVE",
"199 647 CURVE SMOOTH",
"199 665 OFFCURVE",
"183 681 OFFCURVE",
"164 681 CURVE SMOOTH",
"148 681 OFFCURVE",
"137 675 OFFCURVE",
"129 660 CURVE SMOOTH",
"69 548 LINE",
"91 524 LINE"
);
},
{
closed = 1;
nodes = (
"289 603 LINE SMOOTH",
"306 615 OFFCURVE",
"315 626 OFFCURVE",
"315 642 CURVE SMOOTH",
"315 659 OFFCURVE",
"299 678 OFFCURVE",
"281 678 CURVE SMOOTH",
"267 678 OFFCURVE",
"258 673 OFFCURVE",
"248 662 CURVE",
"170 548 LINE",
"192 524 LINE"
);
}
);
width = 285;
},
{
anchors = (
{
name = _top;
position = "{173, 523}";
}
);
background = {
paths = (
{
closed = 1;
nodes = (
"191 614 LINE SMOOTH",
"214 630 OFFCURVE",
"223 652 OFFCURVE",
"223 670 CURVE SMOOTH",
"223 698 OFFCURVE",
"205 717 OFFCURVE",
"177 717 CURVE SMOOTH",
"158 717 OFFCURVE",
"136 708 OFFCURVE",
"120 683 CURVE SMOOTH",
"40 564 LINE",
"74 531 LINE"
);
}
);
};
layerId = "0EBA3A65-8808-4583-9AA2-2A9BC4F414AB";
paths = (
{
closed = 1;
nodes = (
"209 635 OFFCURVE",
"218 657 OFFCURVE",
"218 675 CURVE SMOOTH",
"218 703 OFFCURVE",
"200 722 OFFCURVE",
"172 722 CURVE SMOOTH",
"153 722 OFFCURVE",
"131 713 OFFCURVE",
"115 688 CURVE SMOOTH",
"40 564 LINE",
"74 531 LINE",
"186 619 LINE"
);
},
{
closed = 1;
nodes = (
"368 630 OFFCURVE",
"377 652 OFFCURVE",
"377 670 CURVE SMOOTH",
"377 698 OFFCURVE",
"359 717 OFFCURVE",
"331 717 CURVE SMOOTH",
"312 717 OFFCURVE",
"290 708 OFFCURVE",
"274 683 CURVE SMOOTH",
"194 564 LINE",
"228 531 LINE",
"345 614 LINE"
);
}
);
width = 285;
}
);
unicode = 02DD;
},
{
glyphname = dotaccent;
lastChange = "2019-08-19 16:07:20 +0000";
layers = (
{
anchors = (
{
name = _top;
position = "{62, 523}";
}
);
layerId = UUID0;
paths = (
{
closed = 1;
nodes = (
"97 549 OFFCURVE",
"115 570 OFFCURVE",
"115 607 CURVE SMOOTH",
"115 644 OFFCURVE",
"97 665 OFFCURVE",
"62 665 CURVE SMOOTH",
"26 665 OFFCURVE",
"10 644 OFFCURVE",
"10 607 CURVE SMOOTH",
"10 570 OFFCURVE",
"26 549 OFFCURVE",
"62 549 CURVE SMOOTH",
"62 549 LINE"
);
}
);
width = 285;
},
{
anchors = (
{
name = _top;
position = "{111, 523}";
}
);
background = {
paths = (
{
closed = 1;
nodes = (
"145 541 OFFCURVE",
"163 562 OFFCURVE",
"163 599 CURVE SMOOTH",
"163 636 OFFCURVE",
"145 657 OFFCURVE",
"110 657 CURVE SMOOTH",
"74 657 OFFCURVE",
"58 636 OFFCURVE",
"58 599 CURVE SMOOTH",
"58 562 OFFCURVE",
"74 541 OFFCURVE",
"110 541 CURVE SMOOTH"
);
},
{
closed = 1;
nodes = (
"157 538 OFFCURVE",
"182 560 OFFCURVE",
"182 600 CURVE SMOOTH",
"182 639 OFFCURVE",
"157 661 OFFCURVE",
"110 661 CURVE SMOOTH",
"61 661 OFFCURVE",
"40 639 OFFCURVE",
"40 600 CURVE SMOOTH",
"40 560 OFFCURVE",
"61 538 OFFCURVE",
"110 538 CURVE SMOOTH"
);
}
);
};
layerId = "0EBA3A65-8808-4583-9AA2-2A9BC4F414AB";
paths = (
{
closed = 1;
nodes = (
"163 538 OFFCURVE",
"189 564 OFFCURVE",
"189 608 CURVE SMOOTH",
"189 653 OFFCURVE",
"163 678 OFFCURVE",
"110 678 CURVE SMOOTH",
"56 678 OFFCURVE",
"30 653 OFFCURVE",
"30 608 CURVE SMOOTH",
"30 564 OFFCURVE",
"56 538 OFFCURVE",
"110 538 CURVE SMOOTH",
"110 538 LINE"
);
}
);
width = 285;
}
);
unicode = 02D9;
},
{
glyphname = cedilla;
lastChange = "2019-08-19 16:07:20 +0000";
layers = (
{
anchors = (
{
name = _cedilla;
position = "{160, 0}";
}
);
layerId = UUID0;
paths = (
{
closed = 1;
nodes = (
"125 -76 LINE",
"154 -80 OFFCURVE",
"180 -91 OFFCURVE",
"180 -121 CURVE SMOOTH",
"180 -154 OFFCURVE",
"167 -171 OFFCURVE",
"137 -171 CURVE SMOOTH",
"113 -171 OFFCURVE",
"92 -152 OFFCURVE",
"92 -124 CURVE SMOOTH",
"92 -117 OFFCURVE",
"94 -110 OFFCURVE",
"96 -103 CURVE",
"89 -100 OFFCURVE",
"84 -99 OFFCURVE",
"78 -99 CURVE SMOOTH",
"57 -99 OFFCURVE",
"45 -118 OFFCURVE",
"45 -138 CURVE SMOOTH",
"45 -168 OFFCURVE",
"71 -204 OFFCURVE",
"136 -204 CURVE SMOOTH",
"191 -204 OFFCURVE",
"231 -169 OFFCURVE",
"231 -125 CURVE SMOOTH",
"231 -74 OFFCURVE",
"201 -55 OFFCURVE",
"155 -46 CURVE",
"173 4 LINE",
"147 9 LINE",
"107 -56 LINE"
);
}
);
width = 285;
},
{
anchors = (
{
name = _cedilla;
position = "{157, 0}";
}
);
layerId = "0EBA3A65-8808-4583-9AA2-2A9BC4F414AB";
paths = (
{
closed = 1;
nodes = (
"109 -73 LINE",
"141 -76 OFFCURVE",
"168 -90 OFFCURVE",
"168 -124 CURVE SMOOTH",
"168 -153 OFFCURVE",
"154 -168 OFFCURVE",
"132 -168 CURVE SMOOTH",
"111 -168 OFFCURVE",
"100 -146 OFFCURVE",
"100 -125 CURVE SMOOTH",
"100 -114 OFFCURVE",
"103 -103 OFFCURVE",
"109 -96 CURVE",
"95 -89 OFFCURVE",
"87 -87 OFFCURVE",
"78 -87 CURVE SMOOTH",
"48 -87 OFFCURVE",
"31 -108 OFFCURVE",
"31 -130 CURVE SMOOTH",
"31 -166 OFFCURVE",
"61 -210 OFFCURVE",
"135 -210 CURVE SMOOTH",
"197 -210 OFFCURVE",
"242 -170 OFFCURVE",
"242 -118 CURVE SMOOTH",
"242 -71 OFFCURVE",
"215 -51 OFFCURVE",
"173 -39 CURVE",
"181 7 LINE",
"142 16 LINE",
"88 -49 LINE"
);
}
);
width = 285;
}
);
unicode = 00B8;
},
{
glyphname = ogonek;
lastChange = "2019-08-19 16:07:20 +0000";
layers = (
{
anchors = (
{
name = _ogonek;
position = "{227, 0}";
}
);
layerId = UUID0;
paths = (
{
closed = 1;
nodes = (
"128 -34 OFFCURVE",
"70 -72 OFFCURVE",
"70 -129 CURVE SMOOTH",
"70 -177 OFFCURVE",
"111 -204 OFFCURVE",
"157 -204 CURVE SMOOTH",
"188 -204 OFFCURVE",
"222 -191 OFFCURVE",
"246 -165 CURVE",
"229 -144 LINE",
"209 -155 OFFCURVE",
"193 -159 OFFCURVE",
"180 -159 CURVE SMOOTH",
"151 -159 OFFCURVE",
"138 -138 OFFCURVE",
"138 -111 CURVE SMOOTH",
"138 -72 OFFCURVE",
"167 -19 OFFCURVE",
"227 0 CURVE",
"155 10 LINE"
);
}
);
width = 285;
},
{
anchors = (
{
name = _ogonek;
position = "{238, 0}";
}
);
layerId = "0EBA3A65-8808-4583-9AA2-2A9BC4F414AB";
paths = (
{
closed = 1;
nodes = (
"104 -32 OFFCURVE",
"61 -73 OFFCURVE",
"61 -121 CURVE SMOOTH",
"61 -174 OFFCURVE",
"106 -204 OFFCURVE",
"155 -204 CURVE SMOOTH",
"194 -204 OFFCURVE",
"234 -188 OFFCURVE",
"260 -157 CURVE",
"234 -122 LINE",
"220 -134 OFFCURVE",
"200 -145 OFFCURVE",
"184 -145 CURVE SMOOTH",
"168 -145 OFFCURVE",
"156 -134 OFFCURVE",
"156 -104 CURVE SMOOTH",
"156 -67 OFFCURVE",
"183 -18 OFFCURVE",
"238 0 CURVE",
"131 8 LINE"
);
}
);
width = 285;
}
);
unicode = 02DB;
},
{
glyphname = comma;
lastChange = "2019-08-19 16:07:20 +0000";
layers = (
{
layerId = UUID0;
paths = (
{
closed = 1;
nodes = (
"56 13 OFFCURVE",
"61 14 OFFCURVE",
"63 14 CURVE SMOOTH",
"77 14 OFFCURVE",
"83 0 OFFCURVE",
"83 -18 CURVE SMOOTH",
"83 -46 OFFCURVE",
"67 -83 OFFCURVE",
"39 -106 CURVE",
"63 -135 LINE",
"125 -96 OFFCURVE",
"164 -41 OFFCURVE",
"164 26 CURVE SMOOTH",
"164 70 OFFCURVE",
"139 99 OFFCURVE",
"101 99 CURVE SMOOTH",
"65 99 OFFCURVE",
"40 77 OFFCURVE",
"40 48 CURVE SMOOTH",
"40 32 OFFCURVE",
"44 19 OFFCURVE",
"51 11 CURVE",
"51 11 LINE"
);
}
);
width = 205;
},
{
layerId = "0EBA3A65-8808-4583-9AA2-2A9BC4F414AB";
paths = (
{
closed = 1;
nodes = (
"64 26 OFFCURVE",
"71 28 OFFCURVE",
"77 28 CURVE SMOOTH",
"92 28 OFFCURVE",
"103 18 OFFCURVE",
"103 -2 CURVE SMOOTH",
"103 -33 OFFCURVE",
"76 -74 OFFCURVE",
"34 -105 CURVE",
"62 -140 LINE",
"144 -93 OFFCURVE",
"187 -28 OFFCURVE",
"187 53 CURVE SMOOTH",
"187 105 OFFCURVE",
"161 140 OFFCURVE",
"104 140 CURVE SMOOTH",
"62 140 OFFCURVE",
"35 107 OFFCURVE",
"35 77 CURVE SMOOTH",
"35 55 OFFCURVE",
"42 37 OFFCURVE",
"57 23 CURVE",
"57 23 LINE"
);
}
);
width = 232;
}
);
unicode = 002C;
},
{
glyphname = semicolon;
lastChange = "2019-08-19 16:07:20 +0000";
layers = (
{
layerId = UUID0;
paths = (
{
closed = 1;
nodes = (
"85 13 OFFCURVE",
"90 14 OFFCURVE",
"92 14 CURVE SMOOTH",
"106 14 OFFCURVE",
"112 0 OFFCURVE",
"112 -18 CURVE SMOOTH",
"112 -46 OFFCURVE",
"96 -83 OFFCURVE",
"68 -106 CURVE",
"92 -135 LINE",
"154 -96 OFFCURVE",
"193 -41 OFFCURVE",
"193 26 CURVE SMOOTH",
"193 70 OFFCURVE",
"168 99 OFFCURVE",
"130 99 CURVE SMOOTH",
"94 99 OFFCURVE",
"69 77 OFFCURVE",
"69 48 CURVE SMOOTH",
"69 32 OFFCURVE",
"73 19 OFFCURVE",
"80 11 CURVE",
"80 11 LINE"
);
},
{
closed = 1;
nodes = (
"95 443 OFFCURVE",
"78 421 OFFCURVE",
"78 385 CURVE SMOOTH",
"78 350 OFFCURVE",
"95 327 OFFCURVE",
"131 327 CURVE SMOOTH",
"167 327 OFFCURVE",
"184 349 OFFCURVE",
"184 385 CURVE SMOOTH",
"184 420 OFFCURVE",
"167 443 OFFCURVE",
"131 443 CURVE SMOOTH",
"131 443 LINE"
);
}
);
width = 264;
},
{
layerId = "0EBA3A65-8808-4583-9AA2-2A9BC4F414AB";
paths = (
{
closed = 1;
nodes = (
"101 461 OFFCURVE",
"79 432 OFFCURVE",
"79 384 CURVE SMOOTH",
"79 339 OFFCURVE",
"101 308 OFFCURVE",
"149 308 CURVE SMOOTH",
"197 308 OFFCURVE",
"219 337 OFFCURVE",
"219 384 CURVE SMOOTH",
"219 431 OFFCURVE",
"197 461 OFFCURVE",
"149 461 CURVE SMOOTH",
"149 461 LINE"
);
},
{
closed = 1;
nodes = (
"92 26 OFFCURVE",
"99 28 OFFCURVE",
"105 28 CURVE SMOOTH",
"120 28 OFFCURVE",
"131 18 OFFCURVE",
"131 -2 CURVE SMOOTH",
"131 -33 OFFCURVE",
"104 -74 OFFCURVE",
"62 -105 CURVE",
"90 -140 LINE",
"172 -93 OFFCURVE",
"215 -28 OFFCURVE",
"215 53 CURVE SMOOTH",
"215 105 OFFCURVE",
"189 140 OFFCURVE",
"132 140 CURVE SMOOTH",
"90 140 OFFCURVE",
"63 107 OFFCURVE",
"63 77 CURVE SMOOTH",
"63 55 OFFCURVE",
"70 37 OFFCURVE",
"85 23 CURVE",
"85 23 LINE"
);
}
);
width = 280;
}
);
unicode = 003B;
},
{
glyphname = colon;
lastChange = "2019-08-19 16:07:20 +0000";
layers = (
{
layerId = UUID0;
paths = (
{
closed = 1;
nodes = (
"95 109 OFFCURVE",
"78 87 OFFCURVE",
"78 51 CURVE SMOOTH",
"78 16 OFFCURVE",
"95 -7 OFFCURVE",
"131 -7 CURVE SMOOTH",
"167 -7 OFFCURVE",
"184 15 OFFCURVE",
"184 51 CURVE SMOOTH",
"184 86 OFFCURVE",
"167 109 OFFCURVE",
"131 109 CURVE SMOOTH",
"131 109 LINE"
);
},
{
closed = 1;
nodes = (
"95 443 OFFCURVE",
"78 421 OFFCURVE",
"78 385 CURVE SMOOTH",
"78 350 OFFCURVE",
"95 327 OFFCURVE",
"131 327 CURVE SMOOTH",
"167 327 OFFCURVE",
"184 349 OFFCURVE",
"184 385 CURVE SMOOTH",
"184 420 OFFCURVE",
"167 443 OFFCURVE",
"131 443 CURVE SMOOTH",
"131 443 LINE"
);
}
);
width = 264;
},
{
layerId = "0EBA3A65-8808-4583-9AA2-2A9BC4F414AB";
paths = (
{
closed = 1;
nodes = (
"101 146 OFFCURVE",
"79 117 OFFCURVE",
"79 69 CURVE SMOOTH",
"79 24 OFFCURVE",
"101 -7 OFFCURVE",
"149 -7 CURVE SMOOTH",
"197 -7 OFFCURVE",
"219 22 OFFCURVE",
"219 69 CURVE SMOOTH",
"219 116 OFFCURVE",
"197 146 OFFCURVE",
"149 146 CURVE SMOOTH",
"149 146 LINE"
);
},
{
closed = 1;
nodes = (
"101 461 OFFCURVE",
"79 432 OFFCURVE",
"79 384 CURVE SMOOTH",
"79 339 OFFCURVE",
"101 308 OFFCURVE",
"149 308 CURVE SMOOTH",
"197 308 OFFCURVE",
"219 337 OFFCURVE",
"219 384 CURVE SMOOTH",
"219 431 OFFCURVE",
"197 461 OFFCURVE",
"149 461 CURVE SMOOTH",
"149 461 LINE"
);
}
);
width = 280;
}
);
unicode = 003A;
},
{
glyphname = period;
lastChange = "2019-08-19 16:07:20 +0000";
layers = (
{
layerId = UUID0;
paths = (
{
closed = 1;
nodes = (
"66 109 OFFCURVE",
"49 87 OFFCURVE",
"49 51 CURVE SMOOTH",
"49 16 OFFCURVE",
"66 -7 OFFCURVE",
"102 -7 CURVE SMOOTH",
"138 -7 OFFCURVE",
"155 15 OFFCURVE",
"155 51 CURVE SMOOTH",
"155 86 OFFCURVE",
"138 109 OFFCURVE",
"102 109 CURVE SMOOTH",
"102 109 LINE"
);
}
);
width = 205;
},
{
layerId = "0EBA3A65-8808-4583-9AA2-2A9BC4F414AB";
paths = (
{
closed = 1;
nodes = (
"69 149 OFFCURVE",
"47 120 OFFCURVE",
"47 72 CURVE SMOOTH",
"47 27 OFFCURVE",
"69 -4 OFFCURVE",
"117 -4 CURVE SMOOTH",
"165 -4 OFFCURVE",
"187 25 OFFCURVE",
"187 72 CURVE SMOOTH",
"187 119 OFFCURVE",
"165 149 OFFCURVE",
"117 149 CURVE SMOOTH",
"117 149 LINE"
);
}
);
width = 232;
}
);
unicode = 002E;
},
{
glyphname = ellipsis;
lastChange = "2019-08-19 16:07:20 +0000";
layers = (
{
layerId = UUID0;
paths = (
{
closed = 1;
nodes = (
"134 109 OFFCURVE",
"117 87 OFFCURVE",
"117 51 CURVE SMOOTH",
"117 16 OFFCURVE",
"134 -7 OFFCURVE",
"170 -7 CURVE SMOOTH",
"206 -7 OFFCURVE",
"223 15 OFFCURVE",
"223 51 CURVE SMOOTH",
"223 86 OFFCURVE",
"206 109 OFFCURVE",
"170 109 CURVE SMOOTH",
"170 109 LINE"
);
},
{
closed = 1;
nodes = (
"374 109 OFFCURVE",
"357 87 OFFCURVE",
"357 51 CURVE SMOOTH",
"357 16 OFFCURVE",
"374 -7 OFFCURVE",
"410 -7 CURVE SMOOTH",
"446 -7 OFFCURVE",
"463 15 OFFCURVE",
"463 51 CURVE SMOOTH",
"463 86 OFFCURVE",
"446 109 OFFCURVE",
"410 109 CURVE SMOOTH",
"410 109 LINE"
);
},
{
closed = 1;
nodes = (
"612 109 OFFCURVE",
"595 87 OFFCURVE",
"595 51 CURVE SMOOTH",
"595 16 OFFCURVE",
"612 -7 OFFCURVE",
"648 -7 CURVE SMOOTH",
"684 -7 OFFCURVE",
"701 15 OFFCURVE",
"701 51 CURVE SMOOTH",
"701 86 OFFCURVE",
"684 109 OFFCURVE",
"648 109 CURVE SMOOTH",
"648 109 LINE"
);
}
);
width = 752;
},
{
layerId = "0EBA3A65-8808-4583-9AA2-2A9BC4F414AB";
paths = (
{
closed = 1;
nodes = (
"107 149 OFFCURVE",
"85 120 OFFCURVE",
"85 72 CURVE SMOOTH",
"85 27 OFFCURVE",
"107 -4 OFFCURVE",
"155 -4 CURVE SMOOTH",
"203 -4 OFFCURVE",
"225 25 OFFCURVE",
"225 72 CURVE SMOOTH",
"225 119 OFFCURVE",
"203 149 OFFCURVE",
"155 149 CURVE SMOOTH",
"155 149 LINE"
);
},
{
closed = 1;
nodes = (
"339 149 OFFCURVE",
"317 120 OFFCURVE",
"317 72 CURVE SMOOTH",
"317 27 OFFCURVE",
"339 -4 OFFCURVE",
"387 -4 CURVE SMOOTH",
"435 -4 OFFCURVE",
"457 25 OFFCURVE",
"457 72 CURVE SMOOTH",
"457 119 OFFCURVE",
"435 149 OFFCURVE",
"387 149 CURVE SMOOTH",
"387 149 LINE"
);
},
{
closed = 1;
nodes = (
"571 149 OFFCURVE",
"549 120 OFFCURVE",
"549 72 CURVE SMOOTH",
"549 27 OFFCURVE",
"571 -4 OFFCURVE",
"619 -4 CURVE SMOOTH",
"667 -4 OFFCURVE",
"689 25 OFFCURVE",
"689 72 CURVE SMOOTH",
"689 119 OFFCURVE",
"667 149 OFFCURVE",
"619 149 CURVE SMOOTH",
"619 149 LINE"
);
}
);
width = 772;
}
);
unicode = 2026;
},
{
glyphname = hyphen;
lastChange = "2019-08-19 16:07:20 +0000";
layers = (
{
layerId = UUID0;
paths = (
{
closed = 1;
nodes = (
"281 231 LINE",
"281 285 LINE",
"52 285 LINE",
"52 231 LINE"
);
}
);
width = 332;
},
{
layerId = "0EBA3A65-8808-4583-9AA2-2A9BC4F414AB";
paths = (
{
closed = 1;
nodes = (
"284 219 LINE",
"284 314 LINE",
"53 314 LINE",
"53 219 LINE"
);
}
);
width = 337;
}
);
unicode = 002D;
},
{
glyphname = exclam;
lastChange = "2019-08-19 16:07:20 +0000";
layers = (
{
layerId = UUID0;
paths = (
{
closed = 1;
nodes = (
"160 339 OFFCURVE",
"198 521 OFFCURVE",
"198 588 CURVE SMOOTH",
"198 632 OFFCURVE",
"186 663 OFFCURVE",
"143 663 CURVE SMOOTH",
"104 663 OFFCURVE",
"83 646 OFFCURVE",
"83 646 CURVE",
"98 581 OFFCURVE",
"101 492 OFFCURVE",
"101 405 CURVE SMOOTH",
"101 330 OFFCURVE",
"99 257 OFFCURVE",
"99 203 CURVE",
"151 212 LINE"
);
},
{
closed = 1;
nodes = (
"90 109 OFFCURVE",
"73 87 OFFCURVE",
"73 51 CURVE SMOOTH",
"73 16 OFFCURVE",
"90 -7 OFFCURVE",
"126 -7 CURVE SMOOTH",
"162 -7 OFFCURVE",
"179 15 OFFCURVE",
"179 51 CURVE SMOOTH",
"179 86 OFFCURVE",
"162 109 OFFCURVE",
"126 109 CURVE SMOOTH",
"126 109 LINE"
);
}
);
width = 286;
},
{
layerId = "0EBA3A65-8808-4583-9AA2-2A9BC4F414AB";
paths = (
{
closed = 1;
nodes = (
"211 352 OFFCURVE",
"255 536 OFFCURVE",
"255 605 CURVE SMOOTH",
"255 655 OFFCURVE",
"235 690 OFFCURVE",
"163 690 CURVE SMOOTH",
"126 690 OFFCURVE",
"102 670 OFFCURVE",
"95 655 CURVE",
"113 593 OFFCURVE",
"122 497 OFFCURVE",
"122 405 CURVE SMOOTH",
"122 333 OFFCURVE",
"117 257 OFFCURVE",
"115 206 CURVE",
"200 222 LINE"
);
},
{
closed = 1;
nodes = (
"101 131 OFFCURVE",
"75 105 OFFCURVE",
"75 61 CURVE SMOOTH",
"75 16 OFFCURVE",
"101 -9 OFFCURVE",
"154 -9 CURVE SMOOTH",
"208 -9 OFFCURVE",
"234 16 OFFCURVE",
"234 61 CURVE SMOOTH",
"234 105 OFFCURVE",
"208 131 OFFCURVE",
"154 131 CURVE SMOOTH",
"154 131 LINE"
);
}
);
width = 335;
}
);
unicode = 0021;
},
{
glyphname = exclamdown;
lastChange = "2019-08-19 16:07:20 +0000";
layers = (
{
layerId = UUID0;
paths = (
{
closed = 1;
nodes = (
"102 127 OFFCURVE",
"64 -54 OFFCURVE",
"64 -122 CURVE SMOOTH",
"64 -166 OFFCURVE",
"76 -197 OFFCURVE",
"120 -197 CURVE SMOOTH",
"158 -197 OFFCURVE",
"179 -180 OFFCURVE",
"179 -180 CURVE",
"164 -116 OFFCURVE",
"160 -26 OFFCURVE",
"160 61 CURVE SMOOTH",
"160 136 OFFCURVE",
"163 209 OFFCURVE",
"163 263 CURVE",
"111 254 LINE"
);
},
{
closed = 1;
nodes = (
"98 487 OFFCURVE",
"81 465 OFFCURVE",
"81 429 CURVE SMOOTH",
"81 394 OFFCURVE",
"98 371 OFFCURVE",
"134 371 CURVE SMOOTH",
"170 371 OFFCURVE",
"187 393 OFFCURVE",
"187 429 CURVE SMOOTH",
"187 464 OFFCURVE",
"170 487 OFFCURVE",
"134 487 CURVE SMOOTH",
"134 487 LINE"
);
}
);
width = 286;
},
{
layerId = "0EBA3A65-8808-4583-9AA2-2A9BC4F414AB";
paths = (
{
closed = 1;
nodes = (
"124 131 OFFCURVE",
"80 -53 OFFCURVE",
"80 -122 CURVE SMOOTH",
"80 -172 OFFCURVE",
"100 -207 OFFCURVE",
"172 -207 CURVE SMOOTH",
"209 -207 OFFCURVE",
"233 -187 OFFCURVE",
"240 -172 CURVE",
"222 -110 OFFCURVE",
"213 -14 OFFCURVE",
"213 78 CURVE SMOOTH",
"213 150 OFFCURVE",
"218 226 OFFCURVE",
"220 277 CURVE",
"135 261 LINE"
);
},
{
closed = 1;
nodes = (
"234 352 OFFCURVE",
"260 378 OFFCURVE",
"260 422 CURVE SMOOTH",
"260 467 OFFCURVE",
"234 492 OFFCURVE",
"181 492 CURVE SMOOTH",
"127 492 OFFCURVE",
"101 467 OFFCURVE",
"101 422 CURVE SMOOTH",
"101 378 OFFCURVE",
"127 352 OFFCURVE",
"181 352 CURVE SMOOTH",
"181 352 LINE"
);
}
);
width = 335;
}
);
unicode = 00A1;
},
{
glyphname = question;
lastChange = "2019-08-19 16:07:20 +0000";
layers = (
{
layerId = UUID0;
paths = (
{
closed = 1;
nodes = (
"94 232 OFFCURVE",
"111 203 OFFCURVE",
"143 203 CURVE SMOOTH",
"160 203 OFFCURVE",
"177 211 OFFCURVE",
"187 219 CURVE",
"183 235 OFFCURVE",
"181 250 OFFCURVE",
"181 263 CURVE SMOOTH",
"181 354 OFFCURVE",
"342 390 OFFCURVE",
"342 529 CURVE SMOOTH",
"342 622 OFFCURVE",
"270 656 OFFCURVE",
"177 656 CURVE SMOOTH",
"105 656 OFFCURVE",
"24 625 OFFCURVE",
"24 554 CURVE SMOOTH",
"24 519 OFFCURVE",
"39 497 OFFCURVE",
"74 497 CURVE SMOOTH",
"95 497 OFFCURVE",
"109 507 OFFCURVE",
"122 526 CURVE",
"114 540 OFFCURVE",
"111 552 OFFCURVE",
"111 562 CURVE SMOOTH",
"111 600 OFFCURVE",
"144 614 OFFCURVE",
"181 614 CURVE SMOOTH",
"226 614 OFFCURVE",
"263 586 OFFCURVE",
"263 541 CURVE SMOOTH",
"263 412 OFFCURVE",
"94 398 OFFCURVE",
"94 265 CURVE SMOOTH",
"94 265 LINE"
);
},
{
closed = 1;
nodes = (
"117 109 OFFCURVE",
"100 87 OFFCURVE",
"100 51 CURVE SMOOTH",
"100 16 OFFCURVE",
"117 -7 OFFCURVE",
"153 -7 CURVE SMOOTH",
"189 -7 OFFCURVE",
"206 15 OFFCURVE",
"206 51 CURVE SMOOTH",
"206 86 OFFCURVE",
"189 109 OFFCURVE",
"153 109 CURVE SMOOTH",
"153 109 LINE"
);
}
);
width = 422;
},
{
layerId = "0EBA3A65-8808-4583-9AA2-2A9BC4F414AB";
paths = (
{
closed = 1;
nodes = (
"125 217 OFFCURVE",
"162 191 OFFCURVE",
"203 191 CURVE SMOOTH",
"225 191 OFFCURVE",
"248 200 OFFCURVE",
"268 216 CURVE",
"258 237 OFFCURVE",
"252 257 OFFCURVE",
"252 273 CURVE SMOOTH",
"252 365 OFFCURVE",
"405 401 OFFCURVE",
"405 540 CURVE SMOOTH",
"405 633 OFFCURVE",
"333 677 OFFCURVE",
"220 677 CURVE SMOOTH",
"124 677 OFFCURVE",
"33 636 OFFCURVE",
"33 565 CURVE SMOOTH",
"33 514 OFFCURVE",
"74 488 OFFCURVE",
"114 488 CURVE SMOOTH",
"145 488 OFFCURVE",
"176 504 OFFCURVE",
"188 534 CURVE",
"164 553 OFFCURVE",
"158 569 OFFCURVE",
"158 587 CURVE SMOOTH",
"158 615 OFFCURVE",
"183 631 OFFCURVE",
"209 631 CURVE SMOOTH",
"239 631 OFFCURVE",
"271 610 OFFCURVE",
"271 560 CURVE SMOOTH",
"271 405 OFFCURVE",
"125 404 OFFCURVE",
"125 275 CURVE SMOOTH",
"125 275 LINE"
);
},
{
closed = 1;
nodes = (
"254 -11 OFFCURVE",
"280 15 OFFCURVE",
"280 59 CURVE SMOOTH",
"280 104 OFFCURVE",
"254 129 OFFCURVE",
"201 129 CURVE SMOOTH",
"147 129 OFFCURVE",
"121 104 OFFCURVE",
"121 59 CURVE SMOOTH",
"121 15 OFFCURVE",
"147 -11 OFFCURVE",
"201 -11 CURVE SMOOTH",
"201 -11 LINE"
);
}
);
width = 452;
}
);
unicode = 003F;
},
{
glyphname = questiondown;
lastChange = "2019-08-19 16:07:20 +0000";
layers = (
{
layerId = UUID0;
paths = (
{
closed = 1;
nodes = (
"291 233 OFFCURVE",
"274 263 OFFCURVE",
"242 263 CURVE SMOOTH",
"225 263 OFFCURVE",
"208 254 OFFCURVE",
"198 246 CURVE",
"202 230 OFFCURVE",
"204 215 OFFCURVE",
"204 203 CURVE SMOOTH",
"204 111 OFFCURVE",
"43 75 OFFCURVE",
"43 -64 CURVE SMOOTH",
"43 -157 OFFCURVE",
"115 -191 OFFCURVE",
"208 -191 CURVE SMOOTH",
"280 -191 OFFCURVE",
"360 -160 OFFCURVE",
"360 -89 CURVE SMOOTH",
"360 -54 OFFCURVE",
"346 -31 OFFCURVE",
"311 -31 CURVE SMOOTH",
"290 -31 OFFCURVE",
"276 -42 OFFCURVE",
"263 -61 CURVE",
"271 -74 OFFCURVE",
"274 -87 OFFCURVE",
"274 -97 CURVE SMOOTH",
"274 -134 OFFCURVE",
"241 -148 OFFCURVE",
"204 -148 CURVE SMOOTH",
"159 -148 OFFCURVE",
"122 -121 OFFCURVE",
"122 -76 CURVE SMOOTH",
"122 53 OFFCURVE",
"291 67 OFFCURVE",
"291 201 CURVE SMOOTH",
"291 201 LINE"
);
},
{
closed = 1;
nodes = (
"198 487 OFFCURVE",
"181 465 OFFCURVE",
"181 429 CURVE SMOOTH",
"181 394 OFFCURVE",
"198 371 OFFCURVE",
"234 371 CURVE SMOOTH",
"270 371 OFFCURVE",
"287 393 OFFCURVE",
"287 429 CURVE SMOOTH",
"287 464 OFFCURVE",
"270 487 OFFCURVE",
"234 487 CURVE SMOOTH",
"234 487 LINE"
);
}
);
width = 422;
},
{
layerId = "0EBA3A65-8808-4583-9AA2-2A9BC4F414AB";
paths = (
{
closed = 1;
nodes = (
"313 259 OFFCURVE",
"276 285 OFFCURVE",
"235 285 CURVE SMOOTH",
"213 285 OFFCURVE",
"190 276 OFFCURVE",
"170 260 CURVE",
"180 239 OFFCURVE",
"186 219 OFFCURVE",
"186 203 CURVE SMOOTH",
"186 111 OFFCURVE",
"33 75 OFFCURVE",
"33 -64 CURVE SMOOTH",
"33 -157 OFFCURVE",
"105 -201 OFFCURVE",
"218 -201 CURVE SMOOTH",
"314 -201 OFFCURVE",
"405 -160 OFFCURVE",
"405 -89 CURVE SMOOTH",
"405 -38 OFFCURVE",
"364 -12 OFFCURVE",
"324 -12 CURVE SMOOTH",
"293 -12 OFFCURVE",
"262 -28 OFFCURVE",
"250 -58 CURVE",
"274 -77 OFFCURVE",
"280 -93 OFFCURVE",
"280 -111 CURVE SMOOTH",
"280 -139 OFFCURVE",
"255 -155 OFFCURVE",
"229 -155 CURVE SMOOTH",
"199 -155 OFFCURVE",
"167 -134 OFFCURVE",
"167 -84 CURVE SMOOTH",
"167 71 OFFCURVE",
"313 72 OFFCURVE",
"313 201 CURVE SMOOTH",
"313 201 LINE"
);
},
{
closed = 1;
nodes = (
"184 487 OFFCURVE",
"158 461 OFFCURVE",
"158 417 CURVE SMOOTH",
"158 372 OFFCURVE",
"184 347 OFFCURVE",
"237 347 CURVE SMOOTH",
"291 347 OFFCURVE",
"317 372 OFFCURVE",
"317 417 CURVE SMOOTH",
"317 461 OFFCURVE",
"291 487 OFFCURVE",
"237 487 CURVE SMOOTH",
"237 487 LINE"
);
}
);
width = 452;
}
);
unicode = 00BF;
},
{
glyphname = quoteleft;
lastChange = "2019-08-19 16:07:20 +0000";
layers = (
{
layerId = UUID0;
paths = (
{
closed = 1;
nodes = (
"145 467 OFFCURVE",
"170 489 OFFCURVE",
"170 521 CURVE SMOOTH",
"170 536 OFFCURVE",
"166 550 OFFCURVE",
"159 558 CURVE",
"153 554 OFFCURVE",
"148 553 OFFCURVE",
"144 553 CURVE SMOOTH",
"131 553 OFFCURVE",
"122 565 OFFCURVE",
"122 587 CURVE SMOOTH",
"122 609 OFFCURVE",
"130 630 OFFCURVE",
"150 649 CURVE",
"126 674 LINE",
"71 639 OFFCURVE",
"46 596 OFFCURVE",
"46 544 CURVE SMOOTH",
"46 498 OFFCURVE",
"71 467 OFFCURVE",
"109 467 CURVE SMOOTH",
"109 467 LINE"
);
}
);
width = 221;
},
{
layerId = "0EBA3A65-8808-4583-9AA2-2A9BC4F414AB";
paths = (
{
closed = 1;
nodes = (
"82 660 OFFCURVE",
"43 601 OFFCURVE",
"43 530 CURVE SMOOTH",
"43 478 OFFCURVE",
"69 443 OFFCURVE",
"126 443 CURVE SMOOTH",
"168 443 OFFCURVE",
"195 476 OFFCURVE",
"195 506 CURVE SMOOTH",
"195 528 OFFCURVE",
"188 546 OFFCURVE",
"173 560 CURVE",
"166 557 OFFCURVE",
"159 555 OFFCURVE",
"153 555 CURVE SMOOTH",
"138 555 OFFCURVE",
"127 565 OFFCURVE",
"127 585 CURVE SMOOTH",
"127 611 OFFCURVE",
"150 642 OFFCURVE",
"188 669 CURVE",
"155 705 LINE"
);
}
);
width = 235;
}
);
unicode = 2018;
},
{
glyphname = quoteright;
lastChange = "2019-08-19 16:07:20 +0000";
layers = (
{
layerId = UUID0;
paths = (
{
closed = 1;
nodes = (
"76 674 OFFCURVE",
"51 652 OFFCURVE",
"51 620 CURVE SMOOTH",
"51 605 OFFCURVE",
"55 591 OFFCURVE",
"62 583 CURVE",
"68 587 OFFCURVE",
"73 588 OFFCURVE",
"77 588 CURVE SMOOTH",
"90 588 OFFCURVE",
"100 576 OFFCURVE",
"100 554 CURVE SMOOTH",
"100 532 OFFCURVE",
"91 511 OFFCURVE",
"71 492 CURVE",
"95 467 LINE",
"150 502 OFFCURVE",
"175 545 OFFCURVE",
"175 597 CURVE SMOOTH",
"175 644 OFFCURVE",
"150 674 OFFCURVE",
"112 674 CURVE SMOOTH",
"112 674 LINE"
);
}
);
width = 221;
},
{
layerId = "0EBA3A65-8808-4583-9AA2-2A9BC4F414AB";
paths = (
{
closed = 1;
nodes = (
"156 488 OFFCURVE",
"195 547 OFFCURVE",
"195 618 CURVE SMOOTH",
"195 670 OFFCURVE",
"169 705 OFFCURVE",
"112 705 CURVE SMOOTH",
"70 705 OFFCURVE",
"43 672 OFFCURVE",
"43 642 CURVE SMOOTH",
"43 620 OFFCURVE",
"50 602 OFFCURVE",
"65 588 CURVE",
"72 591 OFFCURVE",
"79 593 OFFCURVE",
"85 593 CURVE SMOOTH",
"100 593 OFFCURVE",
"111 583 OFFCURVE",
"111 563 CURVE SMOOTH",
"111 537 OFFCURVE",
"88 506 OFFCURVE",
"50 479 CURVE",
"83 443 LINE"
);
}
);
width = 235;
}
);
unicode = 2019;
},
{
glyphname = quotedblleft;
lastChange = "2019-08-19 16:07:20 +0000";
layers = (
{
layerId = UUID0;
paths = (
{
closed = 1;
nodes = (
"145 467 OFFCURVE",
"170 489 OFFCURVE",
"170 521 CURVE SMOOTH",
"170 536 OFFCURVE",
"166 550 OFFCURVE",
"159 558 CURVE",
"153 554 OFFCURVE",
"148 553 OFFCURVE",
"144 553 CURVE SMOOTH",
"131 553 OFFCURVE",
"122 565 OFFCURVE",
"122 587 CURVE SMOOTH",
"122 609 OFFCURVE",
"130 630 OFFCURVE",
"150 649 CURVE",
"126 674 LINE",
"71 639 OFFCURVE",
"46 596 OFFCURVE",
"46 544 CURVE SMOOTH",
"46 498 OFFCURVE",
"71 467 OFFCURVE",
"109 467 CURVE SMOOTH",
"109 467 LINE"
);
},
{
closed = 1;
nodes = (
"309 467 OFFCURVE",
"334 489 OFFCURVE",
"334 521 CURVE SMOOTH",
"334 536 OFFCURVE",
"330 550 OFFCURVE",
"323 558 CURVE",
"317 554 OFFCURVE",
"312 553 OFFCURVE",
"308 553 CURVE SMOOTH",
"295 553 OFFCURVE",
"286 565 OFFCURVE",
"286 587 CURVE SMOOTH",
"286 609 OFFCURVE",
"294 630 OFFCURVE",
"314 649 CURVE",
"290 674 LINE",
"235 639 OFFCURVE",
"210 596 OFFCURVE",
"210 544 CURVE SMOOTH",
"210 498 OFFCURVE",
"235 467 OFFCURVE",
"273 467 CURVE SMOOTH",
"273 467 LINE"
);
}
);
width = 375;
},
{
layerId = "0EBA3A65-8808-4583-9AA2-2A9BC4F414AB";
paths = (
{
closed = 1;
nodes = (
"82 660 OFFCURVE",
"43 601 OFFCURVE",
"43 530 CURVE SMOOTH",
"43 478 OFFCURVE",
"69 443 OFFCURVE",
"126 443 CURVE SMOOTH",
"168 443 OFFCURVE",
"195 476 OFFCURVE",
"195 506 CURVE SMOOTH",
"195 528 OFFCURVE",
"188 546 OFFCURVE",
"173 560 CURVE",
"166 557 OFFCURVE",
"159 555 OFFCURVE",
"153 555 CURVE SMOOTH",
"138 555 OFFCURVE",
"127 565 OFFCURVE",
"127 585 CURVE SMOOTH",
"127 611 OFFCURVE",
"150 642 OFFCURVE",
"188 669 CURVE",
"155 705 LINE"
);
},
{
closed = 1;
nodes = (
"260 660 OFFCURVE",
"221 601 OFFCURVE",
"221 530 CURVE SMOOTH",
"221 478 OFFCURVE",
"247 443 OFFCURVE",
"304 443 CURVE SMOOTH",
"346 443 OFFCURVE",
"373 476 OFFCURVE",
"373 506 CURVE SMOOTH",
"373 528 OFFCURVE",
"366 546 OFFCURVE",
"351 560 CURVE",
"344 557 OFFCURVE",
"337 555 OFFCURVE",
"331 555 CURVE SMOOTH",
"316 555 OFFCURVE",
"305 565 OFFCURVE",
"305 585 CURVE SMOOTH",
"305 611 OFFCURVE",
"328 642 OFFCURVE",
"366 669 CURVE",
"333 705 LINE"
);
}
);
width = 398;
}
);
unicode = 201C;
},
{
glyphname = quotedblright;
lastChange = "2019-08-19 16:07:20 +0000";
layers = (
{
layerId = UUID0;
paths = (
{
closed = 1;
nodes = (
"67 674 OFFCURVE",
"42 652 OFFCURVE",
"42 620 CURVE SMOOTH",
"42 605 OFFCURVE",
"46 591 OFFCURVE",
"53 583 CURVE",
"59 587 OFFCURVE",
"64 588 OFFCURVE",
"68 588 CURVE SMOOTH",
"81 588 OFFCURVE",
"91 576 OFFCURVE",
"91 554 CURVE SMOOTH",
"91 532 OFFCURVE",
"82 511 OFFCURVE",
"62 492 CURVE",
"86 467 LINE",
"141 502 OFFCURVE",
"166 545 OFFCURVE",
"166 597 CURVE SMOOTH",
"166 644 OFFCURVE",
"141 674 OFFCURVE",
"103 674 CURVE SMOOTH",
"103 674 LINE"
);
},
{
closed = 1;
nodes = (
"230 674 OFFCURVE",
"205 652 OFFCURVE",
"205 620 CURVE SMOOTH",
"205 605 OFFCURVE",
"209 591 OFFCURVE",
"216 583 CURVE",
"222 587 OFFCURVE",
"227 588 OFFCURVE",
"231 588 CURVE SMOOTH",
"244 588 OFFCURVE",
"254 576 OFFCURVE",
"254 554 CURVE SMOOTH",
"254 532 OFFCURVE",
"245 511 OFFCURVE",
"225 492 CURVE",
"249 467 LINE",
"304 502 OFFCURVE",
"329 545 OFFCURVE",
"329 597 CURVE SMOOTH",
"329 644 OFFCURVE",
"304 674 OFFCURVE",
"266 674 CURVE SMOOTH",
"266 674 LINE"
);
}
);
width = 375;
},
{
layerId = "0EBA3A65-8808-4583-9AA2-2A9BC4F414AB";
paths = (
{
closed = 1;
nodes = (
"314 488 OFFCURVE",
"353 547 OFFCURVE",
"353 618 CURVE SMOOTH",
"353 670 OFFCURVE",
"327 705 OFFCURVE",
"270 705 CURVE SMOOTH",
"228 705 OFFCURVE",
"201 672 OFFCURVE",
"201 642 CURVE SMOOTH",
"201 620 OFFCURVE",
"208 602 OFFCURVE",
"223 588 CURVE",
"230 591 OFFCURVE",
"237 593 OFFCURVE",
"243 593 CURVE SMOOTH",
"258 593 OFFCURVE",
"269 583 OFFCURVE",
"269 563 CURVE SMOOTH",
"269 537 OFFCURVE",
"246 506 OFFCURVE",
"208 479 CURVE",
"241 443 LINE"
);
},
{
closed = 1;
nodes = (
"136 488 OFFCURVE",
"175 547 OFFCURVE",
"175 618 CURVE SMOOTH",
"175 670 OFFCURVE",
"149 705 OFFCURVE",
"92 705 CURVE SMOOTH",
"50 705 OFFCURVE",
"23 672 OFFCURVE",
"23 642 CURVE SMOOTH",
"23 620 OFFCURVE",
"30 602 OFFCURVE",
"45 588 CURVE",
"52 591 OFFCURVE",
"59 593 OFFCURVE",
"65 593 CURVE SMOOTH",
"80 593 OFFCURVE",
"91 583 OFFCURVE",
"91 563 CURVE SMOOTH",
"91 537 OFFCURVE",
"68 506 OFFCURVE",
"30 479 CURVE",
"63 443 LINE"
);
}
);
width = 398;
}
);
unicode = 201D;
},
{
glyphname = quotesinglbase;
lastChange = "2019-08-19 16:07:20 +0000";
layers = (
{
layerId = UUID0;
paths = (
{
closed = 1;
nodes = (
"56 13 OFFCURVE",
"61 14 OFFCURVE",
"63 14 CURVE SMOOTH",
"77 14 OFFCURVE",
"83 0 OFFCURVE",
"83 -18 CURVE SMOOTH",
"83 -46 OFFCURVE",
"67 -83 OFFCURVE",
"39 -106 CURVE",
"63 -135 LINE",
"125 -96 OFFCURVE",
"164 -41 OFFCURVE",
"164 26 CURVE SMOOTH",
"164 70 OFFCURVE",
"139 99 OFFCURVE",
"101 99 CURVE SMOOTH",
"65 99 OFFCURVE",
"40 77 OFFCURVE",
"40 48 CURVE SMOOTH",
"40 32 OFFCURVE",
"44 19 OFFCURVE",
"51 11 CURVE",
"51 11 LINE"
);
}
);
width = 205;
},
{
layerId = "0EBA3A65-8808-4583-9AA2-2A9BC4F414AB";
paths = (
{
closed = 1;
nodes = (
"154 -90 OFFCURVE",
"193 -31 OFFCURVE",
"193 40 CURVE SMOOTH",
"193 92 OFFCURVE",
"167 127 OFFCURVE",
"110 127 CURVE SMOOTH",
"68 127 OFFCURVE",
"41 94 OFFCURVE",
"41 64 CURVE SMOOTH",
"41 42 OFFCURVE",
"48 24 OFFCURVE",
"63 10 CURVE",
"70 13 OFFCURVE",
"77 15 OFFCURVE",
"83 15 CURVE SMOOTH",
"98 15 OFFCURVE",
"109 5 OFFCURVE",
"109 -15 CURVE SMOOTH",
"109 -41 OFFCURVE",
"86 -72 OFFCURVE",
"48 -99 CURVE",
"81 -135 LINE"
);
}
);
width = 232;
}
);
unicode = 201A;
},
{
glyphname = quotedblbase;
lastChange = "2019-08-19 16:07:20 +0000";
layers = (
{
layerId = UUID0;
paths = (
{
closed = 1;
nodes = (
"41 13 OFFCURVE",
"46 14 OFFCURVE",
"48 14 CURVE SMOOTH",
"62 14 OFFCURVE",
"68 0 OFFCURVE",
"68 -18 CURVE SMOOTH",
"68 -46 OFFCURVE",
"52 -83 OFFCURVE",
"24 -106 CURVE",
"48 -135 LINE",
"110 -96 OFFCURVE",
"149 -41 OFFCURVE",
"149 26 CURVE SMOOTH",
"149 70 OFFCURVE",
"124 99 OFFCURVE",
"86 99 CURVE SMOOTH",
"50 99 OFFCURVE",
"25 77 OFFCURVE",
"25 48 CURVE SMOOTH",
"25 32 OFFCURVE",
"29 19 OFFCURVE",
"36 11 CURVE",
"36 11 LINE"
);
},
{
closed = 1;
nodes = (
"211 13 OFFCURVE",
"216 14 OFFCURVE",
"218 14 CURVE SMOOTH",
"232 14 OFFCURVE",
"238 0 OFFCURVE",
"238 -18 CURVE SMOOTH",
"238 -46 OFFCURVE",
"222 -83 OFFCURVE",
"194 -106 CURVE",
"218 -135 LINE",
"280 -96 OFFCURVE",
"319 -41 OFFCURVE",
"319 26 CURVE SMOOTH",
"319 70 OFFCURVE",
"294 99 OFFCURVE",
"256 99 CURVE SMOOTH",
"220 99 OFFCURVE",
"195 77 OFFCURVE",
"195 48 CURVE SMOOTH",
"195 32 OFFCURVE",
"199 19 OFFCURVE",
"206 11 CURVE",
"206 11 LINE"
);
}
);
width = 360;
},
{
layerId = "0EBA3A65-8808-4583-9AA2-2A9BC4F414AB";
paths = (
{
closed = 1;
nodes = (
"320 -90 OFFCURVE",
"359 -31 OFFCURVE",
"359 40 CURVE SMOOTH",
"359 92 OFFCURVE",
"333 127 OFFCURVE",
"276 127 CURVE SMOOTH",
"234 127 OFFCURVE",
"207 94 OFFCURVE",
"207 64 CURVE SMOOTH",
"207 42 OFFCURVE",
"214 24 OFFCURVE",
"229 10 CURVE",
"236 13 OFFCURVE",
"243 15 OFFCURVE",
"249 15 CURVE SMOOTH",
"264 15 OFFCURVE",
"275 5 OFFCURVE",
"275 -15 CURVE SMOOTH",
"275 -41 OFFCURVE",
"252 -72 OFFCURVE",
"214 -99 CURVE",
"247 -135 LINE"
);
},
{
closed = 1;
nodes = (
"142 -90 OFFCURVE",
"181 -31 OFFCURVE",
"181 40 CURVE SMOOTH",
"181 92 OFFCURVE",
"155 127 OFFCURVE",
"98 127 CURVE SMOOTH",
"56 127 OFFCURVE",
"29 94 OFFCURVE",
"29 64 CURVE SMOOTH",
"29 42 OFFCURVE",
"36 24 OFFCURVE",
"51 10 CURVE",
"58 13 OFFCURVE",
"65 15 OFFCURVE",
"71 15 CURVE SMOOTH",
"86 15 OFFCURVE",
"97 5 OFFCURVE",
"97 -15 CURVE SMOOTH",
"97 -41 OFFCURVE",
"74 -72 OFFCURVE",
"36 -99 CURVE",
"69 -135 LINE"
);
}
);
width = 395;
}
);
unicode = 201E;
},
{
glyphname = guilsinglleft;
lastChange = "2019-08-19 16:07:20 +0000";
layers = (
{
layerId = UUID0;
paths = (
{
closed = 1;
nodes = (
"242 68 LINE",
"142 241 LINE",
"242 415 LINE",
"203 439 LINE",
"43 241 LINE",
"203 43 LINE"
);
}
);
width = 303;
},
{
layerId = "0EBA3A65-8808-4583-9AA2-2A9BC4F414AB";
paths = (
{
closed = 1;
nodes = (
"269 426 LINE",
"238 450 LINE",
"48 258 LINE",
"48 222 LINE",
"238 31 LINE",
"269 55 LINE",
"172 240 LINE"
);
}
);
width = 321;
}
);
unicode = 2039;
},
{
glyphname = guilsinglright;
lastChange = "2019-08-19 16:07:20 +0000";
layers = (
{
layerId = UUID0;
paths = (
{
closed = 1;
nodes = (
"100 439 LINE",
"61 415 LINE",
"160 241 LINE",
"61 68 LINE",
"100 43 LINE",
"260 241 LINE"
);
}
);
width = 303;
},
{
layerId = "0EBA3A65-8808-4583-9AA2-2A9BC4F414AB";
paths = (
{
closed = 1;
nodes = (
"99 31 LINE",
"289 222 LINE",
"289 258 LINE",
"99 450 LINE",
"68 426 LINE",
"165 240 LINE",
"68 55 LINE"
);
}
);
width = 321;
}
);
unicode = 203A;
},
{
glyphname = guillemotleft;
lastChange = "2019-08-19 16:07:20 +0000";
layers = (
{
layerId = UUID0;
paths = (
{
closed = 1;
nodes = (
"237 68 LINE",
"137 241 LINE",
"237 415 LINE",
"198 439 LINE",
"38 241 LINE",
"198 43 LINE"
);
},
{
closed = 1;
nodes = (
"424 68 LINE",
"324 241 LINE",
"424 415 LINE",
"385 439 LINE",
"225 241 LINE",
"385 43 LINE"
);
}
);
width = 488;
},
{
layerId = "0EBA3A65-8808-4583-9AA2-2A9BC4F414AB";
paths = (
{
closed = 1;
nodes = (
"259 426 LINE",
"228 450 LINE",
"38 258 LINE",
"38 222 LINE",
"228 31 LINE",
"259 55 LINE",
"162 240 LINE"
);
},
{
closed = 1;
nodes = (
"484 426 LINE",
"453 450 LINE",
"263 258 LINE",
"263 222 LINE",
"453 31 LINE",
"484 55 LINE",
"387 240 LINE"
);
}
);
width = 522;
}
);
unicode = 00AB;
},
{
glyphname = guillemotright;
lastChange = "2019-08-19 16:07:20 +0000";
layers = (
{
layerId = UUID0;
paths = (
{
closed = 1;
nodes = (
"103 439 LINE",
"64 415 LINE",
"163 241 LINE",
"64 68 LINE",
"103 43 LINE",
"263 241 LINE"
);
},
{
closed = 1;
nodes = (
"290 439 LINE",
"251 415 LINE",
"350 241 LINE",
"251 68 LINE",
"290 43 LINE",
"450 241 LINE"
);
}
);
width = 488;
},
{
layerId = "0EBA3A65-8808-4583-9AA2-2A9BC4F414AB";
paths = (
{
closed = 1;
nodes = (
"293 31 LINE",
"483 222 LINE",
"483 258 LINE",
"293 450 LINE",
"262 426 LINE",
"359 240 LINE",
"262 55 LINE"
);
},
{
closed = 1;
nodes = (
"68 31 LINE",
"258 222 LINE",
"258 258 LINE",
"68 450 LINE",
"37 426 LINE",
"134 240 LINE",
"37 55 LINE"
);
}
);
width = 522;
}
);
unicode = 00BB;
},
{
glyphname = slash;
lastChange = "2019-08-19 16:07:20 +0000";
layers = (
{
layerId = UUID0;
paths = (
{
closed = 1;
nodes = (
"132 -132 LINE",
"445 678 LINE",
"390 699 LINE",
"77 -112 LINE"
);
}
);
width = 490;
},
{
layerId = "0EBA3A65-8808-4583-9AA2-2A9BC4F414AB";
paths = (
{
closed = 1;
nodes = (
"451 672 LINE",
"377 700 LINE",
"67 -112 LINE",
"141 -140 LINE"
);
}
);
width = 505;
}
);
unicode = 002F;
},
{
glyphname = bar;
lastChange = "2019-08-19 16:07:20 +0000";
layers = (
{
layerId = UUID0;
paths = (
{
closed = 1;
nodes = (
"190 -146 LINE",
"190 754 LINE",
"126 754 LINE",
"126 -146 LINE"
);
}
);
width = 316;
},
{
layerId = "0EBA3A65-8808-4583-9AA2-2A9BC4F414AB";
paths = (
{
closed = 1;
nodes = (
"210 758 LINE",
"110 758 LINE",
"110 -151 LINE",
"210 -151 LINE"
);
}
);
width = 320;
}
);
unicode = 007C;
},
{
glyphname = endash;
lastChange = "2019-08-19 16:07:20 +0000";
layers = (
{
layerId = UUID0;
paths = (
{
closed = 1;
nodes = (
"462 230 LINE",
"462 284 LINE",
"38 284 LINE",
"38 230 LINE"
);
}
);
width = 500;
},
{
layerId = "0EBA3A65-8808-4583-9AA2-2A9BC4F414AB";
paths = (
{
closed = 1;
nodes = (
"462 220 LINE",
"462 315 LINE",
"38 315 LINE",
"38 220 LINE"
);
}
);
width = 500;
}
);
unicode = 2013;
},
{
glyphname = emdash;
lastChange = "2019-08-19 16:07:20 +0000";
layers = (
{
layerId = UUID0;
paths = (
{
closed = 1;
nodes = (
"956 230 LINE",
"956 284 LINE",
"44 284 LINE",
"44 230 LINE"
);
}
);
width = 1000;
},
{
layerId = "0EBA3A65-8808-4583-9AA2-2A9BC4F414AB";
paths = (
{
closed = 1;
nodes = (
"956 220 LINE",
"956 315 LINE",
"44 315 LINE",
"44 220 LINE"
);
}
);
width = 1000;
}
);
unicode = 2014;
},
{
glyphname = bullet;
lastChange = "2019-08-19 16:07:20 +0000";
layers = (
{
layerId = UUID0;
paths = (
{
closed = 1;
nodes = (
"279 187 OFFCURVE",
"308 226 OFFCURVE",
"308 287 CURVE SMOOTH",
"308 347 OFFCURVE",
"279 388 OFFCURVE",
"222 388 CURVE SMOOTH",
"165 388 OFFCURVE",
"136 348 OFFCURVE",
"136 288 CURVE SMOOTH",
"136 228 OFFCURVE",
"165 187 OFFCURVE",
"222 187 CURVE SMOOTH",
"222 187 LINE"
);
}
);
width = 443;
},
{
layerId = "0EBA3A65-8808-4583-9AA2-2A9BC4F414AB";
paths = (
{
closed = 1;
nodes = (
"301 148 OFFCURVE",
"341 202 OFFCURVE",
"341 287 CURVE SMOOTH",
"341 370 OFFCURVE",
"301 427 OFFCURVE",
"222 427 CURVE SMOOTH",
"143 427 OFFCURVE",
"102 372 OFFCURVE",
"102 288 CURVE SMOOTH",
"102 205 OFFCURVE",
"143 148 OFFCURVE",
"222 148 CURVE SMOOTH",
"222 148 LINE"
);
}
);
width = 443;
}
);
unicode = 2022;
},
{
glyphname = periodcentered;
lastChange = "2019-08-19 16:07:20 +0000";
layers = (
{
layerId = UUID0;
paths = (
{
closed = 1;
nodes = (
"105 351 OFFCURVE",
"88 329 OFFCURVE",
"88 293 CURVE SMOOTH",
"88 258 OFFCURVE",
"105 235 OFFCURVE",
"141 235 CURVE SMOOTH",
"177 235 OFFCURVE",
"194 257 OFFCURVE",
"194 293 CURVE SMOOTH",
"194 328 OFFCURVE",
"177 351 OFFCURVE",
"141 351 CURVE SMOOTH",
"141 351 LINE"
);
}
);
width = 282;
},
{
layerId = "0EBA3A65-8808-4583-9AA2-2A9BC4F414AB";
paths = (
{
closed = 1;
nodes = (
"90 377 OFFCURVE",
"68 348 OFFCURVE",
"68 300 CURVE SMOOTH",
"68 255 OFFCURVE",
"90 224 OFFCURVE",
"138 224 CURVE SMOOTH",
"186 224 OFFCURVE",
"208 253 OFFCURVE",
"208 300 CURVE SMOOTH",
"208 347 OFFCURVE",
"186 377 OFFCURVE",
"138 377 CURVE SMOOTH",
"138 377 LINE"
);
}
);
width = 276;
}
);
unicode = 00B7;
},
{
glyphname = parenleft;
lastChange = "2019-08-19 16:07:20 +0000";
layers = (
{
layerId = UUID0;
paths = (
{
closed = 1;
nodes = (
"309 -119 LINE",
"219 -25 OFFCURVE",
"160 103 OFFCURVE",
"160 283 CURVE SMOOTH",
"160 463 OFFCURVE",
"219 591 OFFCURVE",
"309 685 CURVE",
"284 710 LINE",
"284 710 OFFCURVE",
"88 569 OFFCURVE",
"88 282 CURVE SMOOTH",
"88 -5 OFFCURVE",
"284 -145 OFFCURVE",
"284 -145 CURVE",
"284 -145 LINE"
);
}
);
width = 382;
},
{
layerId = "0EBA3A65-8808-4583-9AA2-2A9BC4F414AB";
paths = (
{
closed = 1;
nodes = (
"277 -41 OFFCURVE",
"210 95 OFFCURVE",
"210 283 CURVE SMOOTH",
"210 471 OFFCURVE",
"277 607 OFFCURVE",
"379 705 CURVE",
"354 730 LINE",
"354 730 OFFCURVE",
"93 581 OFFCURVE",
"93 282 CURVE SMOOTH",
"93 -17 OFFCURVE",
"354 -165 OFFCURVE",
"354 -165 CURVE",
"379 -139 LINE"
);
}
);
width = 408;
}
);
unicode = 0028;
},
{
glyphname = parenright;
lastChange = "2019-08-19 16:07:20 +0000";
layers = (
{
layerId = UUID0;
paths = (
{
closed = 1;
nodes = (
"98 -145 OFFCURVE",
"294 -5 OFFCURVE",
"294 282 CURVE SMOOTH",
"294 569 OFFCURVE",
"98 710 OFFCURVE",
"98 710 CURVE",
"73 685 LINE",
"172 581 OFFCURVE",
"222 447 OFFCURVE",
"222 283 CURVE SMOOTH",
"222 103 OFFCURVE",
"163 -25 OFFCURVE",
"73 -119 CURVE",
"98 -145 LINE"
);
}
);
width = 382;
},
{
layerId = "0EBA3A65-8808-4583-9AA2-2A9BC4F414AB";
paths = (
{
closed = 1;
nodes = (
"54 -165 OFFCURVE",
"315 -17 OFFCURVE",
"315 282 CURVE SMOOTH",
"315 581 OFFCURVE",
"54 730 OFFCURVE",
"54 730 CURVE",
"29 705 LINE",
"131 607 OFFCURVE",
"198 471 OFFCURVE",
"198 283 CURVE SMOOTH",
"198 95 OFFCURVE",
"131 -41 OFFCURVE",
"29 -139 CURVE",
"54 -165 LINE"
);
}
);
width = 408;
}
);
unicode = 0029;
},
{
glyphname = bracketleft;
lastChange = "2019-08-19 16:07:20 +0000";
layers = (
{
layerId = UUID0;
paths = (
{
closed = 1;
nodes = (
"292 -106 LINE",
"179 -96 LINE",
"179 666 LINE",
"292 676 LINE",
"292 709 LINE",
"111 709 LINE",
"111 -140 LINE",
"292 -140 LINE"
);
}
);
width = 350;
},
{
layerId = "0EBA3A65-8808-4583-9AA2-2A9BC4F414AB";
paths = (
{
closed = 1;
nodes = (
"110 -172 LINE",
"323 -172 LINE",
"323 -118 LINE",
"210 -106 LINE",
"210 672 LINE",
"323 684 LINE",
"323 738 LINE",
"110 738 LINE"
);
}
);
width = 368;
}
);
unicode = 005B;
},
{
glyphname = bracketright;
lastChange = "2019-08-19 16:07:20 +0000";
layers = (
{
layerId = UUID0;
paths = (
{
closed = 1;
nodes = (
"239 709 LINE",
"58 709 LINE",
"58 676 LINE",
"171 666 LINE",
"171 -96 LINE",
"58 -106 LINE",
"58 -140 LINE",
"239 -140 LINE"
);
}
);
width = 350;
},
{
layerId = "0EBA3A65-8808-4583-9AA2-2A9BC4F414AB";
paths = (
{
closed = 1;
nodes = (
"45 684 LINE",
"158 672 LINE",
"158 -106 LINE",
"45 -118 LINE",
"45 -172 LINE",
"258 -172 LINE",
"258 738 LINE",
"45 738 LINE"
);
}
);
width = 368;
}
);
unicode = 005D;
},
